<svg width="187" height="53" viewBox="0 0 187 53" fill="none" xmlns="http://www.w3.org/2000/svg">
<path d="M58.2736 10.5342C58.4311 9.06425 59.5598 7.96177 61.266 7.96177C62.946 7.96177 64.101 9.06425 64.2585 10.5342H58.2736ZM61.266 5.31059C57.1186 5.31059 54.7824 8.53926 54.7824 11.9517C54.7824 15.6003 57.2761 18.8028 61.266 18.8028C63.261 18.8028 65.2297 18.0415 66.3322 16.7291C66.8309 16.1516 67.2246 15.3641 67.2246 14.8654C67.2246 14.7079 67.1984 14.5504 67.0934 14.4454C66.9884 14.3141 66.8571 14.2616 66.5946 14.2616H64.6784C64.2847 14.2616 64.0222 14.3929 63.8385 14.6816C63.2872 15.4953 62.4735 15.9416 61.266 15.9416C59.4811 15.9416 58.3261 14.5766 58.2211 13.0804H66.5421C66.9096 13.0804 67.1721 13.0017 67.3559 12.8179C67.5659 12.6342 67.6446 12.3454 67.6446 11.8467C67.6446 10.2717 67.1459 8.67051 66.1222 7.41054C65.1247 6.15057 63.5235 5.31059 61.266 5.31059ZM66.5159 3.47313C66.7784 3.47313 66.9621 3.39438 67.0934 3.28939C67.2509 3.13189 67.3296 2.94814 67.3296 2.6594V1.55693C67.3296 1.13694 67.2509 0.900694 67.0934 0.769447C66.9621 0.611951 66.7521 0.533203 66.5159 0.533203C66.3321 0.533203 66.1222 0.559452 65.8072 0.585702L56.2786 1.53068C56.0161 1.55693 55.8849 1.63568 55.7799 1.74067C55.6749 1.87192 55.6224 2.00317 55.6224 2.23941V2.8694C55.6224 3.10564 55.6749 3.21064 55.7537 3.31564C55.8587 3.44688 56.0161 3.49938 56.2261 3.49938H66.5159V3.47313ZM19.5558 10.5342C19.7133 9.06425 20.842 7.96177 22.5482 7.96177C24.2282 7.96177 25.3831 9.06425 25.5406 10.5342H19.5558ZM50.0838 17.4903C50.0838 17.8053 50.1888 18.0153 50.32 18.199C50.5038 18.409 50.74 18.5403 51.1075 18.5403H52.525C52.8925 18.5403 53.155 18.409 53.3387 18.199C53.47 18.0153 53.575 17.8053 53.575 17.4903V1.87192C53.575 1.55693 53.47 1.34693 53.3387 1.16319C53.155 0.953193 52.9187 0.821946 52.525 0.821946H51.1075C50.74 0.821946 50.4775 0.953193 50.32 1.16319C50.1888 1.34693 50.0838 1.55693 50.0838 1.87192V17.4903ZM42.7865 5.75683H42.104C41.8415 5.75683 41.6577 5.83558 41.5265 5.94057C41.369 6.07182 41.2903 6.28181 41.2903 6.57056V7.38429C41.2903 7.67303 41.369 7.85678 41.5265 8.01427C41.6577 8.14552 41.8677 8.19802 42.104 8.19802H42.7865V14.1566C42.7865 15.6791 43.2065 16.6503 43.9677 17.4115C44.6764 18.1203 45.6214 18.5665 47.2489 18.5665H48.2726C48.5088 18.5665 48.7188 18.4878 48.8501 18.3828C49.0076 18.2253 49.1126 18.0415 49.1126 17.7528V16.7028C49.1126 16.4141 49.0076 16.2303 48.8501 16.0728C48.7188 15.9678 48.5088 15.8891 48.2726 15.8891H48.1413C47.4851 15.8891 47.0651 15.7316 46.7501 15.4428C46.3826 15.1016 46.2251 14.6029 46.2251 13.9204V8.19802H48.4038C48.6663 8.19802 48.8501 8.11927 48.9813 8.01427C49.1388 7.88303 49.2176 7.67303 49.2176 7.38429V6.57056C49.2176 6.28181 49.1388 6.09807 48.9813 5.94057C48.8501 5.80933 48.6401 5.75683 48.4038 5.75683H46.1989V1.87192C46.1989 1.55693 46.0939 1.34693 45.9626 1.16319C45.7789 0.953193 45.5427 0.821946 45.1752 0.821946H43.8364C43.469 0.821946 43.2065 0.953193 43.049 1.16319C42.8652 1.32068 42.7865 1.55693 42.7865 1.87192V5.75683ZM35.3316 5.31059C32.0505 5.31059 29.898 6.8593 29.898 9.35299C29.898 10.2455 30.213 10.9542 30.738 11.5054C31.3417 12.1617 32.2342 12.6079 33.4942 12.9492L36.2241 13.6316C36.9854 13.8154 37.6416 14.0516 37.6416 14.7079C37.6416 15.7316 36.5654 16.0728 35.4104 16.0728C34.8592 16.0728 34.2554 15.9678 33.7829 15.7316C33.4417 15.5741 33.153 15.3378 32.9692 14.9966C32.7855 14.7079 32.733 14.5241 32.4442 14.3666C32.2867 14.2616 32.0767 14.2616 31.788 14.2616H30.318C30.003 14.2616 29.8455 14.3666 29.7405 14.4979C29.6355 14.6291 29.6093 14.8129 29.6093 15.0229C29.6093 15.4953 29.7668 16.0991 30.1605 16.6241C31.0793 17.8315 32.9692 18.829 35.3841 18.829C37.7728 18.829 41.0803 17.8315 41.0803 14.6291C41.0803 13.8154 40.844 13.1067 40.3978 12.5292C39.8465 11.7942 39.0328 11.2954 37.6678 10.9542L35.0167 10.2455C33.8879 9.95673 33.3629 9.74673 33.3629 9.06425C33.3629 8.40801 33.9667 7.85678 35.3579 7.85678C36.1716 7.85678 36.9066 8.04052 37.3791 8.53926C37.7728 8.95925 37.6941 9.16924 38.0091 9.35299C38.1928 9.45799 38.4291 9.45799 38.7441 9.45799H40.0828C40.2928 9.45799 40.4503 9.43174 40.5815 9.30049C40.6865 9.19549 40.739 9.038 40.739 8.74926C40.739 8.11927 40.319 7.33179 39.6103 6.72805C38.6653 5.86182 37.1691 5.31059 35.3316 5.31059ZM22.522 5.31059C18.3746 5.31059 16.0384 8.53926 16.0384 11.9517C16.0384 15.6003 18.5321 18.8028 22.522 18.8028C24.5169 18.8028 26.4856 18.0415 27.5881 16.7291C28.0868 16.1516 28.4806 15.3641 28.4806 14.8654C28.4806 14.7079 28.4543 14.5504 28.3493 14.4454C28.2443 14.3141 28.1131 14.2616 27.8506 14.2616H25.9344C25.5406 14.2616 25.2781 14.3929 25.0944 14.6816C24.5432 15.4953 23.7294 15.9416 22.522 15.9416C20.737 15.9416 19.582 14.5766 19.477 13.0804H27.7981C28.1656 13.0804 28.4281 13.0017 28.6118 12.8179C28.8218 12.6342 28.9006 12.3454 28.9006 11.8467C28.9006 10.2717 28.4018 8.67051 27.3781 7.41054C26.3806 6.15057 24.7794 5.31059 22.522 5.31059ZM11.6285 1.18944C11.471 1.39943 11.366 1.60943 11.366 2.00317V12.8704H11.3135C11.3135 12.8704 5.38112 2.29191 5.09238 1.79317C4.88238 1.45193 4.67239 1.21569 4.3574 1.03194C4.06865 0.874445 3.75366 0.769447 3.14992 0.769447H1.20747C0.761232 0.769447 0.472489 0.900694 0.262494 1.16319C0.104997 1.34693 0 1.58318 0 1.97692V17.3328C0 17.7265 0.104997 17.9628 0.262494 18.1465C0.472489 18.3828 0.761232 18.5403 1.20747 18.5403H2.30994C2.75618 18.5403 3.04493 18.3828 3.25492 18.1465C3.41242 17.9365 3.51742 17.7265 3.51742 17.3328V6.22932H3.56991C3.56991 6.22932 9.73851 17.1491 9.97476 17.5428C10.316 18.1203 10.9197 18.5403 11.7335 18.5403H13.6497C14.0959 18.5403 14.3847 18.3828 14.5946 18.1465C14.7521 17.9365 14.8571 17.7265 14.8571 17.3328V3.47313H39.794C40.0303 3.47313 40.2403 3.39438 40.3715 3.28939C40.529 3.13189 40.6078 2.94814 40.6078 2.6594V1.60943C40.6078 1.32068 40.529 1.13694 40.3715 0.979442C40.2403 0.848196 40.0303 0.795697 39.794 0.795697H12.5734C12.1272 0.795697 11.8385 0.953193 11.6285 1.18944ZM176.868 36.1273C179.362 36.1273 180.832 37.8598 181.121 40.196H172.642C172.905 37.9386 174.506 36.1273 176.868 36.1273ZM183.824 45.4459C182.407 45.4459 180.517 47.5983 177.787 47.5983C175.293 47.5983 173.115 46.3646 172.747 43.7397H184.113C185.741 43.7397 186.449 42.9522 186.449 41.3772C186.449 36.9411 182.643 31.665 176.868 31.665C171.251 31.665 167.313 36.5998 167.313 42.0072C167.313 47.8871 171.303 52.2707 177.314 52.2707C181.278 52.2707 186.029 50.0395 186.029 47.7558C186.029 46.6008 184.979 45.4459 183.824 45.4459ZM136.26 34.8936C136.26 33.1087 137.363 31.9274 138.938 31.9274C140.303 31.9274 141.195 32.6624 141.379 33.9224C142.665 32.5049 144.372 31.6912 146.34 31.6912C148.571 31.6912 150.461 32.6099 151.853 34.3949C153.323 32.6887 155.659 31.6912 157.47 31.6912C161.801 31.6912 164.767 34.2111 164.767 38.8835V49.0945C164.767 50.8795 163.665 52.0607 162.09 52.0607C160.541 52.0607 159.412 50.8795 159.412 49.0945V39.8023C159.412 37.6498 158.231 36.1273 156.289 36.1273C154.32 36.1273 153.139 37.6498 153.139 39.8023V49.0945C153.139 50.8795 152.036 52.0607 150.461 52.0607C148.913 52.0607 147.784 50.8795 147.784 49.0945V39.8023C147.784 37.6498 146.603 36.1273 144.66 36.1273C142.482 36.1273 141.51 37.6498 141.51 39.8023V49.0945C141.51 50.8795 140.408 52.0607 138.833 52.0607C137.284 52.0607 136.155 50.8795 136.155 49.0945V34.8936H136.26ZM105.47 13.5791C108.909 13.5791 110.694 16.3091 110.694 18.6978C110.694 20.7977 108.699 22.7402 108.252 23.2389C107.754 23.7901 106.205 25.5751 105.837 25.9688C105.549 26.2576 105.234 25.9951 105.102 25.8638C104.84 25.6013 104.551 25.3651 104.289 25.1026C103.108 24.0264 101.9 22.8977 100.876 21.6377C100.141 20.7452 99.7738 19.7477 99.7738 18.6978C99.7476 17.1228 100.85 13.5791 105.47 13.5791ZM131.221 47.1783C130.538 46.3646 129.698 45.6821 128.858 45.0259L128.648 44.8684C127.493 43.9497 126.574 43.2672 125.603 42.5322C124.947 42.0335 124.265 41.5347 123.451 40.9047L119.75 37.9123C119.75 37.9123 119.356 38.9885 116.705 41.8497C113.424 45.3409 109.381 46.9158 105.522 46.8371C102.294 46.7846 99.3801 45.4459 97.3589 43.0572C95.4165 40.7735 94.4452 37.4136 94.8915 34.4999C95.2852 31.9012 96.7289 29.7487 99.0651 28.2525L106.257 34.0011C107.124 34.6049 107.937 34.9461 108.646 35.0249C110.326 35.2086 111.691 33.6599 112.636 32.0324L112.347 31.7962L109.722 29.6438C116.39 23.6064 117.991 17.3853 114.211 12.1092C111.087 7.75178 104.289 6.64931 99.0651 9.66798C95.5214 11.6892 93.8677 15.2328 94.1565 19.144C94.2877 20.7715 94.7602 22.1627 95.5739 24.0526L93.789 25.6538C90.1666 28.9613 88.3029 34.3949 89.0903 39.5135C89.8516 44.5009 92.844 48.4645 97.5426 50.6432C100.246 51.9032 102.95 52.5332 105.601 52.5332C109.04 52.5332 112.452 51.4832 115.786 49.3833C116.967 48.6483 118.043 47.7558 119.172 46.8108C119.645 46.4171 120.117 46.0234 120.642 45.6296C121.193 46.1021 121.666 46.5221 122.112 46.9421C123.005 47.7558 123.871 48.517 125.052 49.4883C125.944 50.2233 126.994 51.037 128.176 51.5357C129.514 52.1132 130.827 51.7982 131.641 50.6695C132.323 49.5933 132.192 48.3858 131.221 47.1783Z" fill="white"/>
<path d="M54.3362 49.0942C54.3362 50.9054 55.4649 52.1129 57.0399 52.1129C58.6148 52.1129 59.7436 50.9054 59.7436 49.0942V39.6444C59.7436 37.4657 60.7148 35.917 62.946 35.917C64.8884 35.917 66.0959 37.4657 66.0959 39.6444V49.0942C66.0959 50.9054 67.2246 52.1129 68.7996 52.1129C70.3745 52.1129 71.5033 50.9054 71.5033 49.0942V39.6444C71.5033 37.4657 72.7107 35.917 74.7057 35.917C76.6481 35.917 77.8556 37.4657 77.8556 39.6444V49.0942C77.8556 50.9054 78.9843 52.1129 80.5593 52.1129C82.1343 52.1129 83.263 50.9054 83.263 49.0942V38.7257C83.263 34.0008 80.2443 31.4283 75.8607 31.4283C74.0232 31.4283 71.6608 32.4521 70.1383 34.1845C68.7208 32.3733 66.8046 31.4283 64.5472 31.4283C62.5522 31.4283 60.8198 32.2683 59.5073 33.6858C59.3236 32.3996 58.4048 31.6646 57.0136 31.6646C55.4387 31.6646 54.3099 32.8721 54.3099 34.6833V49.0942H54.3362ZM42.3402 36.3895C45.3064 36.3895 46.6189 39.3294 46.6189 41.9281C46.6189 44.5268 45.2539 47.388 42.3402 47.388C39.4003 47.388 38.0616 44.5268 38.0616 41.9281C38.0616 39.3032 39.374 36.3895 42.3402 36.3895ZM42.3402 31.4283C36.6179 31.4283 32.6279 36.4157 32.6279 41.9281C32.6279 47.5717 36.5129 52.3491 42.3402 52.3491C48.1676 52.3491 52.0262 47.5717 52.0262 41.9281C52.0525 36.4157 48.0626 31.4283 42.3402 31.4283ZM0.13123 48.7529C0.10498 48.9892 0.10498 49.1992 0.10498 49.3829C0.10498 51.0366 1.31245 52.0866 2.80867 52.0866C4.72487 52.0866 5.4861 51.2204 5.7486 49.4617L7.95354 34.1583H8.03229L12.5472 49.9079C12.8097 50.8004 13.5184 52.0866 15.5659 52.0866C17.5871 52.0866 18.322 50.8004 18.5845 49.9079L23.0994 34.1583H23.1782L25.4094 49.4617C25.6719 51.2204 26.4331 52.0866 28.3493 52.0866C29.8455 52.0866 31.053 51.0366 31.053 49.3829C31.053 49.1992 31.053 48.9629 31.0267 48.7529L27.5356 27.7797C27.2993 26.4147 25.8556 24.8923 23.8607 24.8923C21.9707 24.8923 20.527 26.2572 20.107 27.5959L15.6709 42.4793H15.5921L11.156 27.5959C10.736 26.231 9.26601 24.8923 7.40231 24.8923C5.40735 24.8923 3.93739 26.441 3.72739 27.7797L0.13123 48.7529ZM118.043 31.6646C117.44 31.3234 116.731 31.2446 116.048 31.4808C115.366 31.6908 114.841 32.1633 114.552 32.8196C114.368 33.1871 114.185 33.6333 114.08 33.7645C112.925 35.6282 111.481 36.7832 109.959 37.0982C109.512 37.2032 109.066 37.2032 108.594 37.177C108.436 37.1507 108.279 37.177 108.121 37.177C107.675 37.0982 107.229 36.9932 106.809 36.8357C105.68 36.4157 104.394 36.862 103.79 37.9119L103.764 37.9644C103.396 38.5944 103.318 39.3819 103.58 40.0644C103.842 40.7731 104.367 41.3244 105.076 41.5869C106.441 42.0856 107.78 42.3218 109.066 42.3218C109.985 42.3218 110.877 42.1906 111.744 41.9543C113.66 41.4294 115.313 40.3269 116.705 38.6994L116.757 38.5944C117.335 37.9644 117.86 37.2557 118.358 36.4682C118.516 36.232 118.752 35.7595 119.12 34.972C119.671 33.7383 119.198 32.3208 118.043 31.6646ZM121.535 27.2022C121.535 29.0397 120.038 30.5359 118.201 30.5359C116.363 30.5359 114.867 29.0397 114.867 27.2022C114.867 25.3647 116.363 23.8685 118.201 23.8685C120.038 23.8685 121.535 25.3647 121.535 27.2022Z" fill="white"/>
</svg>
