<svg width="159" height="43" viewBox="0 0 159 43" fill="none" xmlns="http://www.w3.org/2000/svg">
<path d="M90.9771 30.0866C90.8609 32.5724 90.6751 34.8724 90.0943 37.1259C89.5832 39.1703 88.2822 40.4713 86.1913 40.9127C85.6569 41.0289 85.1226 41.0754 84.565 41.1218C84.3559 41.1451 84.1468 41.1218 83.9145 41.0754C83.6125 40.9592 83.5428 40.8198 83.566 40.634C83.5428 40.541 83.7054 40.3319 83.8448 40.239C84.0307 40.1228 84.0307 39.9835 84.0307 39.8208C83.961 37.637 83.8448 35.4532 83.7984 33.2694C83.7519 31.3643 83.8216 27.9724 83.7984 26.0442C83.7984 25.7422 83.659 25.9977 83.4034 25.6492C83.2408 25.4401 83.2872 25.1381 83.5196 24.9987C83.659 24.9058 83.8913 24.9058 84.0539 24.9058C85.2852 24.8129 86.5397 24.8593 87.7478 25.1381C89.5832 25.5563 90.6054 26.6714 90.8609 28.53C90.9306 29.0876 90.9306 29.6684 90.9771 30.0866ZM85.7499 39.6117C85.9125 39.5653 86.0054 39.542 86.0983 39.5188C87.2599 39.1239 87.9569 38.3107 88.2822 37.1491C88.9791 34.5704 89.2811 31.9219 89.0953 29.2502C88.9791 27.5543 88.0266 26.23 85.6105 26.2533C85.6337 30.6906 85.7034 35.1279 85.7499 39.6117Z" fill="white"/>
<path d="M78.8963 31.8522C78.8498 29.6452 78.8266 27.4381 78.7801 25.2543C78.7801 24.5574 79.1983 24.2321 79.8488 24.3947C80.1276 24.4644 80.267 24.6503 80.2902 24.8826C80.3599 25.324 80.4064 25.7654 80.4296 26.2068C80.4993 29.5058 80.5458 32.828 80.5922 36.127C80.6155 37.1492 80.6387 38.1714 80.4993 39.1704C80.1973 41.2845 78.5943 42.2602 76.5034 41.7491C75.1095 41.4007 74.366 40.4714 74.2034 39.1239C74.064 38.0088 73.9943 36.8936 73.9711 35.7785C73.8782 32.9209 73.8085 30.0634 73.7155 27.2058C73.6923 26.7876 73.6691 26.3695 73.6691 25.9745C73.6691 25.7887 73.6691 25.626 73.6923 25.4402C73.762 24.9755 73.9943 24.7664 74.366 24.7432C74.8539 24.72 75.2024 24.9291 75.3186 25.3705C75.3882 25.6028 75.3882 25.8351 75.3882 26.0674C75.4579 29.6917 75.5276 33.3391 75.6206 36.9633C75.6438 37.7532 75.7367 38.5663 75.8761 39.3562C75.969 39.937 76.2943 40.3552 76.968 40.4714C77.7579 40.5875 78.4084 40.3087 78.6407 39.5421C78.8266 38.8916 78.8963 38.1946 78.8963 37.5209C78.9195 35.6391 78.9195 33.7573 78.9195 31.8987C78.9195 31.8522 78.9195 31.8522 78.8963 31.8522Z" fill="white"/>
<path d="M114.627 40.4254C115.65 40.4486 116.672 40.4951 117.671 40.4951C118.228 40.4951 118.484 40.6345 118.507 41.0062C118.554 41.4476 118.368 41.7496 117.787 41.7961C116.834 41.8658 115.882 41.889 114.953 41.889C114.511 41.889 114.093 41.8193 113.652 41.7729C113.071 41.7032 112.862 41.4709 112.862 40.8901C112.862 40.3092 112.862 39.7052 112.862 39.1244C112.839 36.8244 112.862 34.5244 112.815 32.2245C112.769 30.3427 112.629 28.4609 112.56 26.5791C112.537 26.1841 112.629 25.7659 112.746 25.371C112.862 24.976 113.21 24.8366 113.605 24.8599C113.977 24.8831 114.232 25.1154 114.325 25.5104C114.372 25.673 114.395 25.8356 114.395 25.9983C114.442 27.8104 114.488 29.6457 114.511 31.4578C114.534 32.7356 114.534 34.0133 114.558 35.2911C114.581 36.9174 114.581 38.5436 114.604 40.1931C114.604 40.2163 114.627 40.286 114.627 40.4254Z" fill="white"/>
<path d="M68.7207 40.4245C69.8591 40.4478 70.9277 40.471 71.9732 40.4942C72.5075 40.5175 72.7863 40.9124 72.554 41.3771C72.4611 41.5629 72.2055 41.7255 72.0197 41.7488C71.4621 41.8417 70.8813 41.8882 70.3237 41.8882C69.5106 41.8882 68.6975 41.8185 67.8843 41.772C67.1874 41.7255 67.0015 41.5164 66.9783 40.7962C66.9551 40.2154 66.9783 39.6346 66.9783 39.0538C66.9783 37.5205 67.0015 35.9872 66.9783 34.4539C66.9318 32.2701 66.8621 30.1095 66.7924 27.9256C66.7692 27.3681 66.6763 26.8105 66.6763 26.2529C66.6763 25.9277 66.7924 25.5792 66.9086 25.254C67.048 24.9287 67.35 24.7893 67.6985 24.8125C68.0702 24.8358 68.3258 25.0449 68.4187 25.3701C68.4884 25.6721 68.5116 25.9974 68.5116 26.2994C68.5581 28.7852 68.6278 31.2711 68.6742 33.7569C68.6975 35.6387 68.7207 37.5438 68.7207 39.4256C68.7207 39.774 68.7207 40.0761 68.7207 40.4245Z" fill="white"/>
<path d="M41.0743 1.78982C41.1208 1.78982 41.1905 1.78982 41.237 1.78982C42.445 1.67366 43.6299 1.55749 44.8379 1.4181C45.0935 1.39487 45.3491 1.30194 45.5349 1.06962C45.8834 0.767602 45.6743 0.302959 45.3258 0.163566C45.1864 0.117102 45.047 0.0474056 44.8147 0.0241735C44.2804 -0.0222908 44.0481 0.000941328 43.746 0.0706377C43.6531 0.0938699 43.4672 0.117102 43.3743 0.140334C42.5612 0.326191 41.7481 0.488816 40.9349 0.674673C40.54 0.767602 40.3774 1.04639 40.4006 1.34841C40.4238 1.60396 40.6562 1.76658 41.0743 1.78982Z" fill="white"/>
<path d="M14.7524 2.53308C14.4039 2.50984 10.8958 2.46338 10.4777 2.46338C10.013 2.46338 9.66454 2.71893 9.64131 3.09065V3.11388C9.64131 3.2765 9.73424 3.46236 9.87363 3.60175C9.87363 3.9967 9.8504 5.41386 9.82716 6.529C9.66454 6.62193 9.52515 6.78456 9.52515 7.10981C9.52515 7.36536 9.64131 7.52798 9.80393 7.66738C9.80393 7.87647 9.80393 7.99263 9.80393 8.03909C9.75747 10.1532 9.73424 12.2906 9.711 14.4047C9.68777 15.5895 9.711 16.7744 9.66454 17.9592C9.64131 18.842 9.8504 19.1208 10.7332 19.1441C11.8716 19.1673 13.01 19.1673 14.1483 19.1441C14.4039 19.1441 14.6827 19.0744 14.9382 19.0047C15.2403 18.9117 15.3796 18.6794 15.3796 18.3542C15.3564 18.0289 15.1473 17.8198 14.8453 17.7501C14.7059 17.7269 14.5433 17.7269 14.3807 17.7269C13.4281 17.7269 12.4756 17.7269 11.5231 17.7269H11.1282C11.1746 14.4512 11.2211 11.2219 11.2676 7.94616H11.6625C12.5453 7.94616 13.4281 7.94616 14.311 7.94616C14.3574 7.94616 14.4271 7.94616 14.4736 7.92293C14.5201 7.92293 14.5433 7.92293 14.5433 7.92293C14.9615 7.83 15.1009 7.36536 15.0079 6.99365C14.9847 6.92395 14.9615 6.85425 14.915 6.78456C14.7291 6.529 14.4504 6.48254 14.1483 6.48254C14.0089 6.48254 13.8696 6.45931 13.7302 6.45931C13.1958 6.45931 12.6615 6.45931 12.1271 6.45931C11.8019 6.45931 11.5231 6.45931 11.3373 6.45931C11.3373 5.69265 11.3373 4.25225 11.3373 3.85731L14.7524 3.83408C15.217 3.83408 15.4958 3.57852 15.4958 3.18358V3.16034C15.4493 2.7654 15.1009 2.55631 14.7524 2.53308Z" fill="white"/>
<path d="M6.41207 2.16173C6.31914 1.85971 6.04036 1.76679 5.73834 1.79002C5.43632 1.81325 5.27369 1.99911 5.18077 2.25466C5.11107 2.48698 5.06461 2.7193 5.06461 2.95162C5.04137 3.90414 5.04137 4.85666 5.04137 5.80918C5.04137 8.20209 5.04137 10.595 5.01814 12.9879C5.01814 13.0808 5.01814 13.1738 4.99491 13.2667C4.13532 10.8041 3.29896 8.34148 2.46261 5.90211C2.13736 4.83343 1.8818 3.78798 1.57979 2.76577C1.46362 2.34759 1.13837 2.0688 0.76666 2.09204C0.394946 2.11527 0.0696964 2.46375 0 2.88193C0 2.99809 0 3.13748 0 3.27687C0.0464643 4.13646 0.139393 4.99605 0.139393 5.85564C0.185857 7.36573 0.139393 8.89905 0.139393 10.4324C0.139393 12.3142 0.139393 14.196 0.162625 16.0545C0.162625 17.0768 0.209089 18.099 0.255553 19.1444C0.278786 19.4929 0.511107 19.7252 0.836357 19.7717C1.16161 19.8182 1.41716 19.6555 1.53332 19.307C1.62625 19.0283 1.64948 18.703 1.64948 18.4242C1.64948 15.4041 1.64948 12.3839 1.64948 9.3637C1.64948 9.2243 1.64948 9.10814 1.64948 8.96875C1.67271 8.96875 1.69595 8.96875 1.71918 8.96875C1.74241 9.01521 1.74241 9.03844 1.76564 9.08491C2.85755 12.2445 3.94946 15.3808 5.04137 18.5404C5.18077 18.9586 5.48278 19.1444 5.83127 19.1212C6.15652 19.098 6.34237 18.9121 6.38884 18.4475C6.45853 17.704 6.48177 16.9606 6.505 16.2172C6.52823 13.0111 6.55146 9.80511 6.57469 6.59907C6.57469 5.43746 6.62116 4.29909 6.59793 3.13748C6.59793 2.789 6.505 2.46375 6.41207 2.16173Z" fill="white"/>
<path d="M21.4897 12.8014C20.8857 10.7802 20.1887 8.78227 19.5614 6.73784C19.3756 6.11057 19.2594 5.39038 19.2594 4.76311C19.2594 4.3914 19.5614 4.08938 19.9332 4.04291C20.2584 4.01968 20.5604 4.22877 20.6766 4.60049C20.7463 4.87927 20.816 5.13482 20.8857 5.41361C21.0018 5.78532 21.2342 5.92472 21.6291 5.92472C21.9776 5.90148 22.2331 5.6924 22.3028 5.34391C22.5584 4.18231 21.722 2.71868 20.6301 2.48636C19.2362 2.18434 17.9584 2.951 17.7029 4.29847C17.517 5.27422 17.6796 6.2035 17.9817 7.13279C18.5625 9.03782 19.1665 10.9196 19.7473 12.8247C20.119 14.0095 20.4443 15.1943 20.816 16.3792C20.9786 16.9367 20.6069 17.4246 20.2352 17.5176C19.7473 17.6337 19.2362 17.262 19.12 16.7044C19.0736 16.4721 19.0736 16.2398 19.0503 16.0075C19.0039 15.6357 18.7483 15.3337 18.3998 15.2873C18.0746 15.2408 17.819 15.3802 17.6796 15.7519C17.1453 17.2155 18.1211 19.2135 20.0029 19.2135C21.7453 19.167 22.721 17.959 22.3725 16.263C22.0938 15.0782 21.8382 13.9166 21.4897 12.8014Z" fill="white"/>
<path d="M28.413 2.88192C28.2968 2.88192 28.111 2.88192 27.9251 2.88192C27.7625 2.5799 27.414 2.39404 26.9494 2.39404C26.5079 2.39404 26.3918 2.67283 26.3221 2.88192C25.5787 2.88192 24.8817 2.88192 24.7191 2.88192C24.1383 2.92838 23.813 3.02131 23.8362 3.50919C23.8595 3.99706 24.6261 4.08999 25.1372 4.08999C25.3696 4.08999 25.811 4.08999 26.2989 4.06676C26.3221 4.6011 26.3686 5.15867 26.3918 5.55361C26.4382 6.32027 26.5776 10.1303 26.6473 11.2223C26.717 12.3142 26.8332 17.0768 26.9261 17.8666C27.0191 18.6565 27.2978 18.9353 27.9716 18.9353C28.6453 18.9353 28.7615 18.3081 28.7615 18.0293C28.7382 17.7737 28.7382 16.8909 28.6685 15.3576C28.5988 13.8243 28.4827 10.6647 28.2271 6.52936C28.1807 5.85563 28.1574 4.83342 28.0877 4.02029C28.8312 4.04352 30.0625 4.02029 30.4342 3.92736C30.8291 3.83444 30.8988 3.3001 30.5968 3.02131C30.318 2.78899 29.2261 2.90515 28.413 2.88192Z" fill="white"/>
<path d="M37.2644 17.7042C36.7533 17.7042 36.2422 17.7042 35.7311 17.7042C35.1967 17.7042 34.6624 17.7042 34.128 17.7042C34.1048 17.5648 34.1048 17.5183 34.1048 17.4719C34.1048 13.1042 34.1048 8.7366 34.0816 4.36896C34.0816 3.78815 34.0119 3.20735 33.9422 2.64978C33.8957 2.32453 33.6634 2.13867 33.3149 2.13867C32.9897 2.1619 32.7806 2.34776 32.7109 2.67301C32.6412 3.09119 32.525 3.5326 32.525 3.95078C32.5483 5.53056 32.6412 7.11035 32.6412 8.71337C32.6412 11.8497 32.618 14.9628 32.5947 18.0992C32.5947 18.9587 32.9897 19.3537 33.8028 19.3537C34.5695 19.3537 35.3129 19.3769 36.0795 19.3305C36.5442 19.3072 37.0321 19.2143 37.4967 19.0981C37.8684 19.0052 38.031 18.6335 37.9381 18.2385C37.8916 17.8668 37.6826 17.7042 37.2644 17.7042Z" fill="white"/>
<path d="M44.9077 2.53308C44.5592 2.50984 41.0511 2.46338 40.6329 2.46338C40.1683 2.46338 39.8198 2.71893 39.7966 3.09065V3.11388C39.7966 3.2765 39.8895 3.46236 40.0289 3.60175C40.0289 3.9967 40.0057 5.41386 39.9824 6.529C39.8198 6.62193 39.6804 6.78456 39.6804 7.10981C39.6804 7.36536 39.7966 7.52798 39.9592 7.66738C39.9592 7.87647 39.9592 7.99263 39.9592 8.03909C39.9127 10.1532 39.8895 12.2906 39.8663 14.4047C39.843 15.5895 39.8663 16.7744 39.8198 17.9592C39.7966 18.842 40.0057 19.1208 40.8885 19.1441C42.0269 19.1673 43.1652 19.1673 44.3036 19.1441C44.5592 19.1441 44.838 19.0744 45.0935 19.0047C45.3955 18.9117 45.5349 18.6794 45.5349 18.3542C45.5117 18.0289 45.3026 17.8198 45.0006 17.7501C44.8612 17.7269 44.6986 17.7269 44.5359 17.7269C43.5834 17.7269 42.6309 17.7269 41.6784 17.7269H41.2834C41.3299 14.4512 41.3764 11.2219 41.4228 7.94616H41.8178C42.7006 7.94616 43.5834 7.94616 44.4662 7.94616C44.5127 7.94616 44.5824 7.94616 44.6289 7.92293C44.6753 7.92293 44.6986 7.92293 44.6986 7.92293C45.1167 7.83 45.2561 7.36536 45.1632 6.99365C45.14 6.92395 45.1167 6.85425 45.0703 6.78456C44.8844 6.529 44.6056 6.48254 44.3036 6.48254C44.1642 6.48254 44.0248 6.45931 43.8854 6.45931C43.3511 6.45931 42.8168 6.45931 42.2824 6.45931C41.9572 6.45931 41.6784 6.45931 41.4925 6.45931C41.4925 5.69265 41.4925 4.25225 41.4925 3.85731L44.9077 3.83408C45.3723 3.83408 45.6511 3.57852 45.6511 3.18358V3.16034C45.5814 2.7654 45.2561 2.55631 44.9077 2.53308Z" fill="white"/>
<path d="M53.7822 17.7269C53.7822 18.1218 53.7822 18.5865 53.7822 19.0511C53.7822 19.539 53.759 20.0036 53.7358 20.4915C53.7125 20.8632 53.5267 21.0258 53.2014 21.0491C52.7832 21.0723 52.4812 20.8632 52.458 20.4915C52.3883 19.7481 52.3186 19.0046 52.2721 18.2612C52.2721 18.1451 52.2489 18.0521 52.2489 17.9127C52.0398 17.8895 51.854 17.8663 51.6449 17.843C51.2267 17.7966 50.9711 17.5178 50.9479 17.1228C50.9247 16.7279 51.1338 16.4723 51.5752 16.3794C51.7378 16.333 51.9237 16.333 52.1095 16.333C52.1095 16.2168 52.1327 16.1239 52.1327 16.0309C52.1327 14.1027 52.156 12.1744 52.156 10.2694C52.156 10.037 52.156 9.82795 52.1792 9.59563C52.2024 9.13099 52.3651 8.89867 52.6903 8.78251C53.0388 8.66635 53.2944 8.78251 53.5267 9.06129C54.061 8.96837 54.5489 8.78251 55.0135 8.82897C56.1984 8.9219 57.1044 9.78149 57.36 11.036C57.6388 12.4067 57.6155 13.8239 57.36 15.1946C57.1974 16.0774 56.663 16.7279 55.8499 17.0764C55.1994 17.3552 54.4792 17.5178 53.7822 17.7269ZM53.5267 16.3097C54.0842 16.1703 54.5721 16.0309 55.06 15.8915C55.6176 15.7521 55.8964 15.3572 55.966 14.7996C56.0125 14.3582 56.0357 13.9168 56.059 13.4754C56.1054 12.7087 56.1287 11.9421 55.9196 11.1754C55.757 10.6643 55.4549 10.3855 54.9671 10.3623C54.2469 10.3158 53.7822 10.6643 53.6893 11.431C53.5964 12.3138 53.5731 13.2198 53.5267 14.1027C53.5034 14.7996 53.5267 15.4966 53.5267 16.3097Z" fill="white"/>
<path d="M64.0509 14.6838C64.0509 15.5434 63.9115 16.4494 63.7024 17.309C63.4004 18.5171 62.2853 19.2373 61.1004 19.1676C60.1247 19.1211 59.1722 18.3545 58.8237 17.2858C58.6611 16.7515 58.4984 16.1939 58.4752 15.6595C58.4287 14.405 58.2197 13.1272 58.5681 11.8959C58.7075 11.4081 58.9398 10.9202 59.2186 10.4788C59.7762 9.61918 60.9378 9.17777 61.8439 9.38686C62.8429 9.64242 63.563 10.4323 63.7489 11.5475C63.9348 12.4535 64.0045 13.5454 64.0509 14.6838ZM62.5641 14.6838C62.5176 13.708 62.5176 13.0111 62.4247 12.3141C62.3782 11.8959 62.2156 11.4545 61.9833 11.106C61.5651 10.4555 60.7984 10.502 60.4267 11.1757C60.1944 11.6171 60.0085 12.105 59.9156 12.6161C59.66 13.8474 59.8459 15.0555 60.0318 16.2636C60.0782 16.5656 60.1712 16.8908 60.3338 17.1696C60.6823 17.7504 61.4025 17.8434 61.8671 17.3555C62.0994 17.0767 62.3085 16.7282 62.3782 16.3797C62.5176 15.7292 62.5408 15.0787 62.5641 14.6838Z" fill="white"/>
<path d="M66.9085 9.47964C67.9771 9.015 68.8367 9.13116 69.6034 9.87458C69.9054 10.1534 69.9983 10.5715 69.8589 10.92C69.7428 11.1988 69.5337 11.3382 69.2549 11.222C69.0458 11.1291 68.86 11.013 68.6973 10.8736C68.3489 10.618 68.0004 10.4554 67.5822 10.6645C67.1872 10.8736 67.0246 11.1988 67.0246 11.6635C67.0246 13.7079 67.0246 15.7523 67.0246 17.7967C67.0246 18.0755 67.0479 18.3311 67.0246 18.5866C67.0014 18.9351 66.8155 19.1442 66.5135 19.1907C66.165 19.2139 65.7933 19.0513 65.7469 18.7493C65.6772 18.3311 65.6307 17.9129 65.6307 17.4947C65.6075 14.9857 65.5842 12.4766 65.5842 9.94428C65.5842 9.71196 65.6307 9.43317 65.7701 9.24732C66.0953 8.80591 66.5832 8.92207 66.9085 9.47964Z" fill="white"/>
<path d="M6.17977 36.6612C6.17977 35.4299 6.17977 34.1754 6.17977 32.9441C6.203 30.3653 6.22624 27.7866 6.24947 25.2078C6.24947 25.0219 6.2727 24.8361 6.3424 24.6502C6.41209 24.3947 6.57472 24.2088 6.83027 24.1624C7.10906 24.1159 7.38784 24.1856 7.52724 24.4411C7.66663 24.6735 7.78279 24.9522 7.78279 25.2078C7.78279 27.6472 7.73632 30.1098 7.71309 32.5492C7.68986 34.6633 7.66663 36.8006 7.6434 38.9148C7.6434 39.635 7.5737 40.3319 7.52724 41.0521C7.504 41.3541 7.45754 41.6562 7.06259 41.7491C6.69088 41.8188 6.36563 41.6562 6.17977 41.2844C6.01715 40.9592 5.90099 40.6339 5.76159 40.2855C4.48383 36.8703 3.22929 33.4784 1.95152 30.0633C1.95152 30.0401 1.92829 30.0169 1.83536 29.9704C1.83536 30.0865 1.83536 30.1795 1.83536 30.2956C1.83536 33.8734 1.85859 37.4744 1.85859 41.0521C1.85859 41.3309 1.83536 41.6097 1.7889 41.8885C1.7192 42.2602 1.44042 42.3996 1.0687 42.3763C0.72022 42.3531 0.511131 42.1673 0.487899 41.7955C0.464666 40.541 0.418202 39.24 0.39497 37.9622C0.371738 34.64 0.418202 31.3179 0.39497 27.9957C0.39497 27.1825 0.278809 26.3462 0.209113 25.533C0.139417 24.9755 0.348506 24.6038 0.836381 24.4876C1.27779 24.3714 1.64951 24.6502 1.83536 25.1613C2.99697 28.3209 4.15858 31.4805 5.32018 34.64C5.57574 35.337 5.83129 36.0107 6.11007 36.6845C6.13331 36.6845 6.15654 36.6612 6.17977 36.6612Z" fill="white"/>
<path d="M32.9433 34.3378C32.9665 36.2661 32.8272 38.1479 32.3393 40.0064C32.2464 40.3782 32.0837 40.7499 31.9211 41.0983C31.6191 41.7488 31.0615 42.1206 30.3645 42.2135C29.9696 42.26 29.5747 42.2832 29.1565 42.26C28.0181 42.2135 27.2747 41.6095 26.8565 40.6105C26.4151 39.565 26.2757 38.4499 26.206 37.3347C26.0434 35.1045 26.0666 32.8742 26.3919 30.6439C26.6009 29.2732 26.903 27.949 27.4141 26.6712C27.5767 26.253 27.7858 25.8581 28.0413 25.4864C28.6454 24.6732 29.4817 24.3944 30.4575 24.5571C31.1544 24.6732 31.5726 25.1146 31.8746 25.7187C32.2928 26.5086 32.4554 27.3914 32.5251 28.2742C32.7807 30.2025 32.9665 33.6641 32.9433 34.3378ZM31.3868 34.1519C31.2938 32.8277 31.1777 31.0853 31.0383 29.3429C30.9686 28.4368 30.8524 27.5308 30.4807 26.6712C30.3645 26.3692 30.2484 26.0439 29.8767 26.0207C29.505 25.9975 29.2959 26.253 29.11 26.5318C29.0171 26.648 28.9474 26.8106 28.9009 26.95C28.7615 27.3217 28.6221 27.6934 28.5292 28.0884C27.7161 31.4802 27.4838 34.9186 27.8787 38.4034C27.9484 39.0075 28.1575 39.6347 28.4363 40.1691C28.9242 41.0751 30.0625 41.0984 30.6433 40.2388C30.8524 39.9135 31.015 39.5418 31.0847 39.1701C31.3635 37.66 31.3868 36.1267 31.3868 34.1519Z" fill="white"/>
<path d="M37.7523 25.2774C38.6119 25.3007 39.4483 25.4168 40.0523 26.1602C40.424 26.6249 40.5866 27.1592 40.6331 27.74C40.6563 28.1117 40.4008 28.3905 39.9826 28.4602C39.518 28.5532 39.0765 28.3673 38.9372 27.9491C38.8442 27.7168 38.7978 27.4612 38.7048 27.2057C38.5887 26.9037 38.4028 26.6714 38.0543 26.5784C37.5432 26.4623 37.0553 26.741 36.9856 27.3218C36.9392 27.7633 36.9624 28.2279 37.0786 28.6229C37.3109 29.2966 37.6129 29.9471 37.9382 30.5743C39.0068 32.7814 40.1452 34.9652 40.9583 37.2884C41.1442 37.7995 41.2604 38.3339 41.3533 38.8682C41.5624 40.0531 41.0513 40.9359 39.9129 41.3541C38.7048 41.7722 37.5432 41.8187 36.521 40.8894C35.8937 40.3086 35.522 39.5884 35.6847 38.6824C35.7543 38.2642 36.0796 37.9854 36.4513 37.9854C36.8927 37.9854 37.2412 38.241 37.3341 38.6591C37.3806 38.8915 37.4271 39.147 37.4968 39.3793C37.7058 40.0531 38.4725 40.4015 39.1462 40.146C39.4947 40.0298 39.6341 39.751 39.6341 39.4258C39.6341 39.0773 39.5876 38.7288 39.4715 38.4036C38.7281 36.6379 37.9614 34.8723 37.1715 33.1299C36.6836 32.038 36.1028 30.9693 35.5917 29.8774C35.2665 29.1804 35.0574 28.4602 35.0806 27.6703C35.1271 26.2764 36.0564 25.3007 37.4735 25.231C37.5665 25.2774 37.6594 25.2774 37.7523 25.2774Z" fill="white"/>
<path d="M21.8847 36.6614C21.8847 36.5453 21.8847 36.4291 21.8847 36.313C21.8847 34.1291 21.8847 31.9453 21.9079 29.7847C21.9079 28.2746 21.9544 26.7413 21.9776 25.2312C21.9776 25.0454 22.0241 24.8595 22.0473 24.6737C22.117 24.4181 22.2797 24.2323 22.5352 24.1858C22.814 24.1393 23.116 24.209 23.2322 24.4646C23.3716 24.7434 23.4877 25.0454 23.4877 25.3474C23.4645 28.3443 23.4413 31.3645 23.3948 34.3615C23.3716 36.4291 23.3251 38.52 23.2786 40.5877C23.2786 40.7968 23.2554 40.9826 23.2089 41.1917C23.1625 41.4705 23.0928 41.7261 22.7675 41.7725C22.4191 41.819 22.1403 41.7261 21.9776 41.424C21.815 41.122 21.6756 40.7968 21.5595 40.4715C20.3282 37.1726 19.0969 33.8504 17.8888 30.5514C17.8191 30.3655 17.7494 30.1797 17.61 30.0171C17.61 30.1332 17.61 30.2494 17.61 30.3655C17.61 33.9665 17.6332 37.5907 17.6332 41.1917C17.6332 41.424 17.6332 41.6331 17.5868 41.8654C17.5171 42.2604 17.2383 42.4462 16.8433 42.423C16.4716 42.3998 16.2625 42.1907 16.2625 41.7725C16.2161 38.915 16.1696 36.0574 16.1464 33.1999C16.1231 31.5039 16.1696 29.808 16.1464 28.112C16.1231 27.2524 16.0302 26.3928 15.9605 25.5333C15.9141 24.9989 16.0999 24.6272 16.5878 24.511C17.0292 24.4181 17.4009 24.6737 17.5868 25.1383C18.9807 28.9484 20.3979 32.7584 21.815 36.5685C21.8382 36.615 21.8382 36.6382 21.8615 36.6847C21.8382 36.6614 21.8615 36.6614 21.8847 36.6614Z" fill="white"/>
<path d="M21.4898 23.6972C20.9322 23.6739 20.3979 23.5578 19.9565 23.2325C19.7009 23.0467 19.5151 22.7679 19.3524 22.5123C19.1433 22.1871 18.9575 21.9083 18.5393 21.9315C18.0514 21.978 17.7726 22.1871 17.6333 22.6982C17.5868 22.8376 17.5636 22.977 17.5403 23.1164C17.4474 23.4881 17.1686 23.6972 16.7969 23.6739C16.4949 23.6507 16.2626 23.3952 16.2393 23.0234C16.1232 21.8154 17.2151 20.7467 18.5161 20.8396C18.9575 20.8629 19.4221 21.0023 19.8403 21.1649C20.2353 21.3043 20.4908 21.6295 20.6302 22.0245C20.7464 22.3497 20.9322 22.6053 21.3272 22.582C21.8383 22.5588 22.1403 22.3729 22.3029 21.9548C22.3726 21.7921 22.3958 21.6063 22.4423 21.4437C22.512 21.0487 22.7676 20.8164 23.1393 20.8396C23.4645 20.8396 23.7201 21.1184 23.7665 21.5134C23.8595 22.3962 23.1393 23.3952 22.2332 23.6275C21.9777 23.6507 21.7221 23.6507 21.4898 23.6972Z" fill="white"/>
<path d="M10.8726 25.6257C10.8958 25.0681 10.7332 24.2086 11.6392 24.1156C12.5453 24.0459 12.4523 25.0914 12.4523 25.3469C12.4523 25.6257 12.4756 32.5954 12.4988 33.8731C12.5453 35.1509 12.6847 39.1468 12.7311 40.2387C12.7776 41.3074 12.8473 42.2599 12.0342 42.2832C11.221 42.3296 11.1281 41.6791 11.0584 41.0519C10.9887 40.4246 10.9655 36.6145 10.9422 35.3135C10.919 34.0125 10.8029 30.458 10.8029 29.0408C10.8029 27.6237 10.8726 25.6257 10.8726 25.6257Z" fill="white"/>
<path d="M101.664 41.3309C101.664 41.1915 101.641 41.0753 101.594 40.936C101.083 38.7289 100.572 36.5218 100.061 34.3148C100.038 34.2451 100.014 34.1057 99.968 33.9198C100.27 33.8037 100.502 33.6411 100.433 33.3623C100.363 33.0603 100.061 32.9441 99.7357 32.8976C99.7124 32.7582 99.666 32.6421 99.666 32.5956C99.5266 31.9683 99.3872 31.3411 99.2246 30.7138C98.8064 28.9714 98.3882 27.2522 97.9468 25.5098C97.9003 25.3007 97.7145 25.0684 97.5054 24.9522C96.8317 24.5573 96.0882 24.8825 95.8791 25.6957C95.2983 27.9724 94.764 30.2724 94.2064 32.5492C94.1832 32.6188 94.1367 32.8047 94.0903 32.9906C93.9509 32.9906 93.4165 33.0603 93.4165 33.432C93.4165 33.734 93.6489 33.8734 93.8579 33.9431C93.8115 34.1289 93.765 34.2916 93.765 34.3613C93.3004 36.3592 92.8357 38.3572 92.3711 40.3552C92.2782 40.7501 92.464 41.0986 92.8125 41.238C93.161 41.3774 93.5327 41.2844 93.7418 40.9592C93.9044 40.6804 94.0438 40.3551 94.1135 40.0299C94.5781 38.1946 95.0892 36.034 95.5539 34.1754L98.4347 34.1057C98.5508 34.64 98.7135 35.4299 98.8296 35.9178C99.2246 37.7067 99.6195 39.5188 100.038 41.3077C100.154 41.842 100.433 42.0279 100.967 42.0511C101.501 42.0743 101.687 41.8652 101.664 41.3309ZM96.9014 28.0886C96.9246 28.0886 96.9478 28.0886 96.9943 28.0886C97.3428 29.6451 97.668 31.2017 98.0397 32.8279H95.8327C96.1579 31.2249 96.5296 29.6451 96.9014 28.0886Z" fill="white"/>
<path d="M109.818 32.5725C109.679 32.0614 109.191 30.1563 107.24 30.0634C108.68 29.2735 109.377 28.2978 109.331 26.8109C109.284 25.3008 108.192 24.418 106.101 24.0463C105.404 23.9533 104.243 23.8837 103.987 24.0695C103.708 24.3018 103.685 24.7897 104.336 25.1614C104.336 25.1614 104.196 28.4371 104.173 29.3897C103.941 29.4361 103.592 29.5523 103.546 29.8543C103.499 30.226 103.546 30.5513 104.15 30.7604C104.103 32.7119 104.034 36.1502 104.034 37.428C104.034 39.1239 103.894 40.1461 103.941 40.5411C103.964 40.936 104.103 41.3774 104.823 41.4007C105.544 41.4239 108.03 41.8189 109.354 39.2866C110.539 36.9866 109.935 33.0836 109.818 32.5725ZM105.892 25.3473C105.892 25.3473 107.82 25.3705 107.913 26.6947C108.053 28.5068 105.799 29.1341 105.799 29.1341L105.892 25.3473ZM106.868 40.0765C106.38 40.2158 105.544 40.2158 105.544 40.0765C105.544 39.9371 105.474 30.7836 105.474 30.7836C106.868 30.7139 108.657 31.3876 108.75 35.0118C108.819 38.6128 107.379 39.9371 106.868 40.0765Z" fill="white"/>
<path d="M64.3763 41.3309C64.3763 41.1915 64.3531 41.0753 64.3066 40.936C63.7955 38.7289 63.2844 36.5218 62.7733 34.3148C62.7501 34.2451 62.7269 34.1057 62.6804 33.9198C62.9824 33.8037 63.2147 33.6411 63.145 33.3623C63.0753 33.0603 62.7733 32.9441 62.4481 32.8976C62.4248 32.7582 62.3784 32.6421 62.3784 32.5956C62.239 31.9683 62.0996 31.3411 61.937 30.7138C61.5188 28.9714 61.1006 27.2522 60.6592 25.5098C60.6127 25.3007 60.4269 25.0684 60.2178 24.9522C59.5441 24.5573 58.8006 24.8825 58.5915 25.6957C58.0107 27.9724 57.4764 30.2724 56.9188 32.5492C56.8956 32.6188 56.8491 32.8047 56.8027 32.9906C56.6633 32.9906 56.1289 33.0603 56.1289 33.432C56.1289 33.734 56.3613 33.8734 56.5703 33.9431C56.5239 34.1289 56.4774 34.2916 56.4774 34.3613C56.0128 36.3592 55.5481 38.3572 55.0835 40.3552C54.9906 40.7501 55.1764 41.0986 55.5249 41.238C55.8734 41.3774 56.2451 41.2844 56.4542 40.9592C56.6168 40.6804 56.7562 40.3551 56.8259 40.0299C57.2905 38.1946 57.8017 36.034 58.2663 34.1754L61.1471 34.1057C61.2632 34.64 61.4259 35.4299 61.542 35.9178C61.937 37.7067 62.3319 39.5188 62.7501 41.3077C62.8663 41.842 63.145 42.0279 63.6794 42.0511C64.2137 42.0743 64.4228 41.8652 64.3763 41.3309ZM59.6138 28.0886C59.637 28.0886 59.6602 28.0886 59.7067 28.0886C60.0552 29.6451 60.3804 31.2017 60.7521 32.8279H58.5451C58.8936 31.2249 59.242 29.6451 59.6138 28.0886Z" fill="white"/>
<path d="M50.0189 25.2774C50.8785 25.3007 51.7149 25.4168 52.3189 26.1602C52.6906 26.6249 52.8532 27.1592 52.8997 27.74C52.9229 28.1117 52.6674 28.3905 52.2492 28.4602C51.7846 28.5532 51.3431 28.3673 51.2037 27.9491C51.1108 27.7168 51.0644 27.4612 50.9714 27.2057C50.8553 26.9037 50.6694 26.6714 50.3209 26.5784C49.8098 26.4623 49.3219 26.741 49.2523 27.3218C49.2058 27.7633 49.229 28.2279 49.3452 28.6229C49.5775 29.2966 49.8795 29.9471 50.2048 30.5743C51.2734 32.7814 52.4118 34.9652 53.2249 37.2884C53.4108 37.7995 53.527 38.3339 53.6199 38.8682C53.829 40.0531 53.3179 40.9359 52.1795 41.3541C50.9714 41.7722 49.8098 41.8187 48.7876 40.8894C48.1603 40.3086 47.7886 39.5884 47.9512 38.6824C48.0209 38.2642 48.3462 37.9854 48.7179 37.9854C49.1593 37.9854 49.5078 38.241 49.6007 38.6591C49.6472 38.8915 49.6937 39.147 49.7634 39.3793C49.9724 40.0531 50.7391 40.4015 51.4128 40.146C51.7613 40.0298 51.9007 39.751 51.9007 39.4258C51.9007 39.0773 51.8542 38.7288 51.7381 38.4036C50.9947 36.6379 50.228 34.8723 49.4381 33.1299C48.9502 32.038 48.3694 30.9693 47.8583 29.8774C47.5331 29.1804 47.324 28.4602 47.3472 27.6703C47.3937 26.2764 48.323 25.3007 49.7401 25.231C49.8331 25.2774 49.926 25.2774 50.0189 25.2774Z" fill="white"/>
<path d="M131.053 25.2774C131.912 25.3007 132.749 25.4168 133.353 26.1602C133.724 26.6249 133.887 27.1592 133.933 27.74C133.957 28.1117 133.701 28.3905 133.283 28.4602C132.818 28.5532 132.377 28.3673 132.237 27.9491C132.145 27.7168 132.098 27.4612 132.005 27.2057C131.889 26.9037 131.703 26.6714 131.355 26.5784C130.844 26.4623 130.356 26.741 130.286 27.3218C130.239 27.7633 130.263 28.2279 130.379 28.6229C130.611 29.2966 130.913 29.9471 131.238 30.5743C132.307 32.7814 133.446 34.9652 134.259 37.2884C134.445 37.7995 134.561 38.3339 134.654 38.8682C134.863 40.0531 134.352 40.9359 133.213 41.3541C132.005 41.7722 130.844 41.8187 129.821 40.8894C129.194 40.3086 128.822 39.5884 128.985 38.6824C129.055 38.2642 129.38 37.9854 129.752 37.9854C130.193 37.9854 130.541 38.241 130.634 38.6591C130.681 38.8915 130.727 39.147 130.797 39.3793C131.006 40.0531 131.773 40.4015 132.447 40.146C132.795 40.0298 132.934 39.751 132.934 39.4258C132.934 39.0773 132.888 38.7288 132.772 38.4036C132.028 36.6379 131.262 34.8723 130.472 33.1299C129.984 32.038 129.403 30.9693 128.892 29.8774C128.567 29.1804 128.358 28.4602 128.381 27.6703C128.427 26.2764 129.357 25.3007 130.774 25.231C130.867 25.2774 130.96 25.2774 131.053 25.2774Z" fill="white"/>
<path d="M126.708 41.0988C126.708 40.7503 126.336 40.5412 125.942 40.518C125.64 40.518 123.34 40.518 122.039 40.5412C122.085 40.4948 122.108 40.4715 122.085 40.4715C122.131 37.1958 122.178 33.9665 122.224 30.6908H122.666C123.618 30.6908 124.594 30.6908 125.547 30.6908C125.616 30.6908 125.663 30.6908 125.709 30.6676C125.756 30.6676 125.779 30.6676 125.802 30.6676C126.267 30.5746 126.406 30.11 126.29 29.7383C126.267 29.6686 126.244 29.5989 126.197 29.5292C125.988 29.2736 125.686 29.2272 125.361 29.2272C125.198 29.2272 125.059 29.2039 124.896 29.2039C124.315 29.2039 123.734 29.2039 123.154 29.2039C122.805 29.2039 122.503 29.2039 122.294 29.2039C122.294 28.3908 122.294 26.811 122.294 26.5555L125.802 26.4625C126.313 26.4625 126.592 26.1838 126.569 25.812V25.7888C126.569 25.4403 126.197 25.2312 125.825 25.208C125.454 25.208 121.737 25.208 121.272 25.2312C120.761 25.2545 120.389 25.51 120.412 25.8585V25.8817C120.412 26.0908 120.552 26.2999 120.761 26.4393C120.761 26.8807 120.714 28.2282 120.691 29.3201C120.528 29.413 120.343 29.5757 120.343 29.9009C120.343 30.1565 120.482 30.3191 120.668 30.4585C120.668 30.6676 120.668 30.7837 120.668 30.8302C120.621 32.9443 120.598 35.0817 120.552 37.1958C120.528 38.3806 120.528 39.5655 120.505 40.7503C120.505 40.7735 120.505 40.7968 120.505 40.82C120.366 40.9362 120.296 41.0523 120.296 41.2149V41.2382C120.296 41.5867 120.691 41.9584 121.249 41.9351L125.895 41.819C126.406 41.819 126.708 41.5402 126.685 41.1685L126.708 41.0988Z" fill="white"/>
<path d="M155.957 24.6504C152.961 21.4676 148.175 22.4202 146.27 24.2555C145.224 25.2777 144.434 26.6716 144.295 28.4373C145.782 28.0191 149.452 27.7868 151.892 30.4585C153.495 32.2241 154.238 34.5241 153.82 36.7544C154.54 36.4988 155.237 36.1039 155.841 35.5928C159.001 33.014 158.954 27.8332 155.957 24.6504Z" fill="white"/>
<path d="M145.433 33.4321C144.504 31.5503 144.202 29.8776 144.295 28.4604H144.272C139.695 29.7614 138.161 35.0351 140.578 38.7755C142.994 42.5159 149.568 43.2825 152.17 40.1694C153.077 39.1008 153.611 37.9624 153.82 36.7776C150.823 37.8927 147.129 36.8705 145.433 33.4321Z" fill="white"/>
<path d="M148.291 31.3643C148.291 31.1088 148.082 30.8765 147.803 30.8765C147.547 30.8765 147.315 31.0856 147.315 31.3643C147.315 31.6431 147.524 31.8522 147.803 31.8522C148.082 31.8522 148.291 31.6431 148.291 31.3643Z" fill="white"/>
<path d="M150.66 31.318C150.66 31.0624 150.451 30.8301 150.173 30.8301C149.917 30.8301 149.685 31.0392 149.685 31.318C149.685 31.5735 149.894 31.8058 150.173 31.8058C150.451 31.8058 150.66 31.5735 150.66 31.318Z" fill="white"/>
<path d="M149.104 34.5468C148.616 34.5468 148.221 34.4074 147.919 34.1054C147.361 33.5711 147.361 32.7812 147.361 32.7347C147.361 32.5488 147.501 32.4095 147.687 32.4095C147.873 32.4095 148.012 32.5488 148.012 32.7347C148.012 32.7347 148.012 33.2923 148.36 33.6175C148.546 33.8034 148.802 33.8731 149.15 33.8498C149.499 33.8266 149.731 33.7337 149.871 33.5478C150.103 33.2458 150.01 32.7812 150.01 32.7812C149.963 32.5953 150.08 32.4327 150.265 32.3862C150.451 32.3398 150.614 32.4559 150.66 32.6418C150.66 32.665 150.823 33.4084 150.405 33.966C150.149 34.3145 149.731 34.5003 149.174 34.5236C149.174 34.5468 149.15 34.5468 149.104 34.5468Z" fill="white"/>
</svg>
