<svg width="145" height="26" viewBox="0 0 145 26" fill="none" xmlns="http://www.w3.org/2000/svg">
<path d="M0 25.6304C0 17.0894 0 8.54848 0 0C0.136678 0 0.280949 0 0.417627 0C48.4827 0 96.5477 0 144.605 0C144.742 0 144.871 0 145 0C145 8.57864 145 17.097 145 25.6454C144.81 25.6454 144.651 25.6454 144.491 25.6454C96.5021 25.6454 48.513 25.6454 0.523932 25.6454C0.356881 25.6454 0.174644 25.6379 0 25.6304ZM26.1358 0.768911C26.1358 8.81986 26.1358 16.8407 26.1358 24.8464C65.5522 24.8464 104.946 24.8464 144.324 24.8464C144.324 16.803 144.324 8.79725 144.324 0.768911C104.923 0.768911 65.5446 0.768911 26.1358 0.768911ZM25.0956 24.8615C25.0956 16.818 25.0956 8.79725 25.0956 0.783988C16.9936 0.783988 8.92202 0.783988 0.858033 0.783988C0.858033 8.81986 0.858033 16.8331 0.858033 24.8615C8.93721 24.8615 17.0012 24.8615 25.0956 24.8615Z" fill="white"/>
<path d="M85.9703 20.2402C85.9703 20.5041 85.9703 20.7528 85.9703 21.0242C85.864 21.0317 85.7653 21.0468 85.6741 21.0468C84.3453 21.0468 83.0165 21.0468 81.6877 21.0543C81.4979 21.0543 81.3764 21.0091 81.2625 20.8508C79.592 18.5592 77.9139 16.2675 76.2206 13.9909C76.1371 13.8778 75.9548 13.7949 75.8105 13.7799C75.4992 13.7497 75.1879 13.7723 74.831 13.7723C74.831 13.9382 74.831 14.0663 74.831 14.202C74.831 15.6569 74.8234 17.1043 74.831 18.5592C74.831 18.8381 74.8614 19.1245 74.9145 19.4035C75.0057 19.8934 75.522 20.2101 76.2206 20.2327C76.4712 20.2402 76.7217 20.2327 77.0331 20.2327C77.0331 20.3834 77.0331 20.5116 77.0331 20.6397C77.0331 20.7604 77.0331 20.8885 77.0331 21.0317C74.6488 21.0317 72.2949 21.0317 69.9182 21.0317C69.9182 20.7754 69.9182 20.5267 69.9182 20.2704C70.2827 20.2327 70.6472 20.195 71.0192 20.1648C71.8469 20.1045 72.0899 19.5618 72.0975 18.8381C72.1127 16.2449 72.1051 13.6517 72.1051 11.0585C72.1051 9.79207 72.1127 8.52563 72.0975 7.26672C72.0899 6.91996 72.0671 6.55812 71.7861 6.27166C71.49 5.97013 71.1331 5.88721 70.7383 5.87967C70.4725 5.87213 70.2144 5.87967 69.9258 5.87967C69.9258 5.60075 69.9258 5.34445 69.9258 5.06553C70.0093 5.05799 70.0777 5.05045 70.1536 5.05045C72.6062 5.05045 75.0588 5.01276 77.5114 5.07307C78.6884 5.10322 79.8729 5.26906 80.8676 6.01536C81.8472 6.75412 82.5002 7.65872 82.5989 8.94024C82.7432 10.9304 81.5586 12.4833 79.7438 13.1089C79.4781 13.1994 79.2123 13.3049 78.9162 13.4105C79.3566 14.0286 79.7742 14.6166 80.1994 15.2046C80.9208 16.1921 81.6345 17.1872 82.3711 18.1596C83.1 19.117 83.9429 19.9236 85.2109 20.1271C85.4539 20.1573 85.7045 20.195 85.9703 20.2402ZM74.831 9.52069C74.831 10.4328 74.8386 11.345 74.8234 12.2571C74.8158 12.5511 74.9601 12.6416 75.2031 12.6189C75.7954 12.5586 76.3952 12.5209 76.9799 12.3928C77.6785 12.242 78.2859 11.9028 78.7795 11.3525C79.4021 10.659 79.5236 9.84484 79.4629 8.97039C79.3718 7.64364 78.3771 6.54304 77.0255 6.39981C76.4408 6.33951 75.8409 6.46012 75.2487 6.45258C74.8614 6.44504 74.8234 6.61089 74.8234 6.9275C74.8386 7.79441 74.831 8.65378 74.831 9.52069Z" fill="white"/>
<path d="M117.634 16.2074C117.634 16.0717 117.634 15.9435 117.634 15.8078C117.634 13.1769 117.642 10.5461 117.626 7.91517C117.626 7.48549 117.551 7.0558 117.475 6.63366C117.406 6.24166 117.118 5.98536 116.708 5.94013C116.275 5.88736 115.842 5.86474 115.379 5.82705C115.379 5.58583 115.379 5.33706 115.379 5.0506C117.323 5.0506 119.267 5.0506 121.241 5.0506C121.241 5.29183 121.241 5.54813 121.241 5.85721C121.021 5.85721 120.785 5.84967 120.55 5.85721C119.373 5.90997 119.084 6.33212 119.077 7.32718C119.054 9.7093 119.069 12.0839 119.069 14.466C119.069 16.6069 119.069 18.7478 119.069 20.8887C119.069 21.0244 119.069 21.16 119.069 21.2731C118.378 21.5671 118.097 21.062 117.771 20.6701C116.844 19.5619 115.926 18.4538 115.007 17.3456C114.247 16.426 113.503 15.5063 112.744 14.5866C112.099 13.8102 111.446 13.0488 110.8 12.2799C110.033 11.3527 109.274 10.4254 108.507 9.49823C108.416 9.38515 108.302 9.29469 108.143 9.12885C108.143 9.33238 108.143 9.453 108.143 9.57361C108.143 12.4306 108.135 15.2877 108.15 18.1372C108.15 18.5669 108.241 18.9965 108.294 19.4187C108.34 19.7654 108.545 19.9841 108.887 20.0519C109.373 20.1424 109.866 20.2027 110.39 20.2781C110.39 20.4816 110.39 20.7304 110.39 21.0093C108.439 21.0093 106.487 21.0093 104.521 21.0093C104.521 20.753 104.521 20.5042 104.521 20.2404C104.877 20.2102 105.234 20.1951 105.591 20.1499C106.548 20.0368 106.692 19.5393 106.692 18.7327C106.715 15.348 106.7 11.9708 106.7 8.58609C106.7 8.49563 106.692 8.4127 106.7 8.32224C106.768 7.68902 106.669 7.1538 106.115 6.7015C105.637 6.31704 105.158 6.00797 104.551 5.91751C104.247 5.87228 103.936 5.84213 103.609 5.80444C103.609 5.56321 103.609 5.31445 103.609 5.00537C103.738 5.00537 103.875 5.00537 104.004 5.00537C105.204 5.00537 106.411 5.0506 107.611 4.98276C108.15 4.9526 108.439 5.20891 108.72 5.54813C109.494 6.48289 110.269 7.42518 111.036 8.35994C111.901 9.4153 112.767 10.4707 113.632 11.5185C114.278 12.295 114.931 13.0563 115.576 13.8328C116.237 14.6243 116.89 15.4158 117.543 16.1998C117.573 16.23 117.604 16.2224 117.634 16.2074Z" fill="white"/>
<path d="M47.7538 5.78909C47.7538 5.46494 47.7538 5.2011 47.7538 4.89957C47.8753 4.89203 47.9892 4.88449 48.1031 4.88449C50.2368 4.88449 52.3781 4.89203 54.5117 4.87695C54.8686 4.87695 54.9597 4.99003 54.9597 5.32925C54.9597 5.68356 54.8686 5.81171 54.489 5.80417C54.1245 5.79663 53.7524 5.86448 53.3879 5.93986C53.0007 6.02278 52.8336 6.33939 52.7577 6.68616C52.697 6.97261 52.6742 7.27415 52.6742 7.57568C52.6666 10.1086 52.6438 12.6339 52.6894 15.1668C52.7046 16.1091 52.7881 17.0589 53.1526 17.956C53.5778 18.9812 54.3978 19.5616 55.4457 19.7576C57.0631 20.0592 58.6045 19.818 59.9333 18.7701C60.5483 18.2801 60.9128 17.6168 61.0115 16.8478C61.1254 15.8754 61.2241 14.8954 61.2393 13.923C61.2773 11.9178 61.2545 9.91257 61.2393 7.91491C61.2393 7.5003 61.1786 7.07815 61.0951 6.67108C60.9812 6.12078 60.5863 5.81925 60.0168 5.80417C59.6751 5.79663 59.341 5.80417 58.9841 5.80417C58.9841 5.4951 58.9841 5.23126 58.9841 4.92972C60.9356 4.92972 62.8871 4.92972 64.8613 4.92972C64.8613 5.20864 64.8613 5.48756 64.8613 5.80417C64.6487 5.80417 64.4513 5.81171 64.2538 5.80417C63.2515 5.7514 62.6896 6.36201 62.682 7.35707C62.682 9.8598 62.72 12.3701 62.6669 14.8728C62.6441 16.0111 62.5757 17.1645 62.0898 18.2424C61.4292 19.7049 60.2826 20.6472 58.7563 21.0392C56.7593 21.5518 54.7244 21.5518 52.8261 20.6698C51.315 19.9687 50.4114 18.7174 50.1608 17.0514C49.8571 15.0537 50.0621 13.041 50.009 11.0282C49.9862 10.0784 50.0242 9.12104 50.0014 8.17121C49.9862 7.68122 49.933 7.18369 49.8495 6.70123C49.7432 6.09817 49.356 5.81171 48.7257 5.80417C48.4144 5.78909 48.1031 5.78909 47.7538 5.78909Z" fill="white"/>
<path d="M31.2841 5.8645C31.2841 5.57805 31.2841 5.33682 31.2841 5.02775C31.4055 5.02775 31.527 5.02775 31.6485 5.02775C33.9113 5.02775 36.1741 4.99005 38.4369 5.05036C39.9555 5.09559 41.3906 5.48005 42.484 6.64095C43.2661 7.46263 43.6534 8.42 43.6534 9.55829C43.6534 10.8926 43.2358 12.0309 42.2259 12.9355C41.4893 13.5988 40.6009 13.9155 39.6442 14.0511C38.5052 14.217 37.3814 14.0511 36.2196 13.8325C36.2121 13.9531 36.1969 14.0738 36.1969 14.1868C36.1969 15.5362 36.1893 16.8931 36.1969 18.2425C36.1969 18.5742 36.2196 18.9134 36.2804 19.2451C36.4171 19.9989 36.8271 20.1346 37.6016 20.2175C37.875 20.2477 38.1559 20.225 38.4445 20.225C38.4445 20.504 38.4445 20.7452 38.4445 21.0241C36.0678 21.0241 33.6911 21.0241 31.2841 21.0241C31.2841 20.7753 31.2841 20.5266 31.2841 20.2703C31.7245 20.2326 32.1573 20.2175 32.5825 20.1497C33.1596 20.0517 33.4481 19.7049 33.4557 19.132C33.4861 15.2648 33.5089 11.4052 33.5316 7.53802C33.5316 7.28171 33.5013 7.01787 33.4405 6.76157C33.3266 6.2188 32.8786 5.90219 32.2256 5.87958C31.9371 5.85696 31.6333 5.8645 31.2841 5.8645ZM36.2121 6.55803C36.2121 8.616 36.2121 10.6363 36.2121 12.7395C36.7588 12.7772 37.2979 12.8224 37.8446 12.8601C38.8089 12.9279 39.4847 12.4455 40.0011 11.7067C40.6693 10.7494 40.6541 9.68644 40.3883 8.616C40.2213 7.93755 39.9024 7.33448 39.2949 6.91233C38.3306 6.2565 37.2979 6.30173 36.2121 6.55803Z" fill="white"/>
<path d="M140.991 20.2555C140.991 20.4967 140.991 20.7455 140.991 21.0169C138.758 21.0169 136.533 21.0169 134.278 21.0169C134.278 20.7606 134.278 20.5118 134.278 20.2404C134.544 20.2027 134.802 20.1651 135.06 20.1424C135.706 20.0821 136.032 19.6751 135.827 19.072C135.463 18.0317 135.038 17.014 134.62 15.9888C134.59 15.921 134.438 15.8607 134.347 15.8607C132.547 15.8531 130.755 15.8531 128.955 15.8607C128.857 15.8607 128.712 15.9436 128.674 16.019C128.242 17.0517 127.809 18.0769 127.422 19.1248C127.239 19.6148 127.482 19.954 128.014 20.0595C128.211 20.0972 128.409 20.1047 128.606 20.1424C128.788 20.1726 128.971 20.2103 129.16 20.248C129.16 20.5043 129.16 20.753 129.16 21.0244C127.376 21.0244 125.599 21.0244 123.807 21.0244C123.807 20.7681 123.807 20.5269 123.807 20.248C123.974 20.2103 124.149 20.1726 124.331 20.1424C125.091 20.0218 125.501 19.4866 125.797 18.8609C126.199 18.0317 126.579 17.1874 126.958 16.3431C127.528 15.0616 128.082 13.7725 128.644 12.491C129.381 10.8024 130.117 9.11384 130.854 7.42525C131.203 6.62619 131.568 5.83466 131.909 5.02806C132.023 4.74914 132.175 4.60591 132.494 4.66622C132.6 4.68883 132.722 4.66622 132.858 4.66622C133.352 5.8422 133.838 7.01818 134.331 8.19416C135.281 10.4858 136.222 12.7775 137.171 15.0691C137.627 16.1697 138.052 17.2854 138.546 18.3634C138.887 19.1172 139.252 19.8861 140.193 20.0972C140.436 20.1651 140.702 20.2027 140.991 20.2555ZM133.997 14.4962C133.238 12.6569 132.501 10.8778 131.735 9.02338C130.915 10.9004 130.132 12.687 129.343 14.4962C130.892 14.4962 132.403 14.4962 133.997 14.4962Z" fill="white"/>
<path d="M97.7399 20.2627C97.7399 20.519 97.7399 20.7527 97.7399 21.0241C95.3784 21.0241 93.0169 21.0241 90.6403 21.0241C90.6403 20.7753 90.6403 20.519 90.6403 20.2627C91.0275 20.225 91.4224 20.2175 91.7944 20.1497C92.6752 19.9913 92.7967 19.5692 92.8043 18.9209C92.8271 14.9783 92.8271 11.0358 92.8043 7.09324C92.7967 6.2188 92.3563 6.00018 91.4224 5.87957C91.1718 5.84942 90.9212 5.87203 90.6403 5.87203C90.6403 5.60065 90.6403 5.34435 90.6403 5.06543C92.9942 5.06543 95.348 5.06543 97.7247 5.06543C97.7247 5.32173 97.7247 5.56296 97.7247 5.87203C97.4969 5.87203 97.2615 5.86449 97.0337 5.87203C95.834 5.93234 95.5758 6.33941 95.5607 7.34201C95.5303 9.04567 95.5531 10.7493 95.5531 12.453C95.5531 14.5034 95.5531 16.5614 95.5531 18.6118C95.5531 18.8907 95.5683 19.1847 95.6366 19.4561C95.7429 19.9009 96.1453 20.0592 96.5326 20.1421C96.9123 20.2175 97.3147 20.2175 97.7399 20.2627Z" fill="white"/>
<path d="M24.1845 24.0319C16.652 24.0319 9.14231 24.0319 1.61743 24.0319C1.61743 16.5539 1.61743 9.09846 1.61743 1.60535C9.12712 1.60535 16.6444 1.60535 24.1845 1.60535C24.1845 9.06831 24.1845 16.5388 24.1845 24.0319ZM9.49159 9.39246C9.49159 11.6615 9.49159 13.9381 9.49159 16.2147C11.8151 16.2147 14.0931 16.2147 16.3635 16.2147C16.3635 13.9305 16.3635 11.6766 16.3635 9.40753C14.0475 9.40753 11.762 9.40753 9.47641 9.40753C9.47641 7.10834 9.47641 4.81668 9.47641 2.51749C7.16048 2.51749 4.88251 2.51749 2.60455 2.51749C2.60455 4.82422 2.60455 7.10834 2.60455 9.39999C4.92048 9.39246 7.20604 9.39246 9.49159 9.39246ZM23.3492 9.37738C23.3492 7.06311 23.3492 4.78653 23.3492 2.50995C21.0409 2.50995 18.7629 2.50995 16.4925 2.50995C16.4925 4.81668 16.4925 7.08572 16.4925 9.37738C18.7781 9.37738 21.0485 9.37738 23.3492 9.37738ZM2.61214 16.3202C2.61214 18.5892 2.61214 20.8583 2.61214 23.1273C4.90529 23.1273 7.18326 23.1273 9.46122 23.1273C9.46122 20.8432 9.46122 18.5892 9.46122 16.3202C7.16807 16.3202 4.90529 16.3202 2.61214 16.3202ZM23.3568 16.3353C21.0485 16.3353 18.7629 16.3353 16.5001 16.3353C16.5001 18.6194 16.5001 20.8734 16.5001 23.1273C18.8009 23.1273 21.0712 23.1273 23.3568 23.1273C23.3568 20.8583 23.3568 18.6119 23.3568 16.3353Z" fill="white"/>
</svg>
