<svg width="216" height="58" viewBox="0 0 216 58" fill="none" xmlns="http://www.w3.org/2000/svg">
<path d="M123.729 40.918C123.571 44.2987 123.318 47.4267 122.528 50.4915C121.833 53.2719 120.064 55.0413 117.22 55.6416C116.493 55.7996 115.767 55.8628 115.008 55.9259C114.724 55.9575 114.44 55.9259 114.124 55.8627C113.713 55.7048 113.618 55.5152 113.65 55.2624C113.618 55.136 113.839 54.8517 114.029 54.7253C114.282 54.5673 114.282 54.3778 114.282 54.1566C114.187 51.1866 114.029 48.2166 113.966 45.2466C113.902 42.6557 113.997 38.0428 113.966 35.4203C113.966 35.0096 113.776 35.3571 113.429 34.8832C113.207 34.5988 113.271 34.1881 113.587 33.9985C113.776 33.8721 114.092 33.8721 114.313 33.8721C115.988 33.7458 117.694 33.8089 119.337 34.1881C121.833 34.7568 123.223 36.2734 123.571 38.8011C123.666 39.5594 123.666 40.3493 123.729 40.918ZM116.62 53.8722C116.841 53.809 116.967 53.7774 117.094 53.7458C118.673 53.2087 119.621 52.1029 120.064 50.5231C121.012 47.016 121.422 43.414 121.169 39.7805C121.012 37.474 119.716 35.6731 116.43 35.7047C116.462 41.7395 116.557 47.7743 116.62 53.8722Z" fill="white"/>
<path d="M107.299 43.3189C107.236 40.3173 107.204 37.3157 107.141 34.3457C107.141 33.3978 107.71 32.9555 108.594 33.1767C108.974 33.2714 109.163 33.5242 109.195 33.8402C109.29 34.4405 109.353 35.0408 109.384 35.6411C109.479 40.1277 109.542 44.6459 109.605 49.1325C109.637 50.5227 109.669 51.9129 109.479 53.2715C109.068 56.1467 106.888 57.4738 104.045 56.7786C102.149 56.3047 101.138 55.0409 100.917 53.2083C100.727 51.6917 100.632 50.1751 100.601 48.6586C100.474 44.7723 100.38 40.886 100.253 36.9997C100.222 36.431 100.19 35.8623 100.19 35.3252C100.19 35.0724 100.19 34.8512 100.222 34.5985C100.316 33.9665 100.632 33.6822 101.138 33.6506C101.801 33.619 102.275 33.9034 102.433 34.5037C102.528 34.8196 102.528 35.1356 102.528 35.4515C102.623 40.3805 102.718 45.341 102.844 50.2699C102.876 51.3442 103.002 52.45 103.192 53.5243C103.318 54.3142 103.76 54.8829 104.677 55.0409C105.751 55.1989 106.635 54.8197 106.951 53.7771C107.204 52.8924 107.299 51.9445 107.299 51.0282C107.331 48.469 107.331 45.9097 107.331 43.3821C107.331 43.3189 107.331 43.3189 107.299 43.3189Z" fill="white"/>
<path d="M155.893 54.9781C157.283 55.0097 158.673 55.0729 160.032 55.0729C160.79 55.0729 161.138 55.2625 161.17 55.768C161.233 56.3683 160.98 56.7791 160.19 56.8423C158.895 56.9371 157.599 56.9687 156.335 56.9687C155.735 56.9687 155.166 56.8739 154.566 56.8107C153.776 56.7159 153.492 56.3999 153.492 55.61C153.492 54.8202 153.492 53.9987 153.492 53.2088C153.46 50.0808 153.492 46.9528 153.429 43.8248C153.365 41.2656 153.176 38.7063 153.081 36.1471C153.049 35.61 153.176 35.0412 153.334 34.5041C153.492 33.967 153.966 33.7774 154.503 33.809C155.008 33.8406 155.356 34.1566 155.482 34.6937C155.546 34.9149 155.577 35.136 155.577 35.3572C155.64 37.8217 155.703 40.3177 155.735 42.7822C155.767 44.5199 155.767 46.2577 155.798 47.9955C155.83 50.2072 155.83 52.4189 155.861 54.6622C155.861 54.6938 155.893 54.7886 155.893 54.9781Z" fill="white"/>
<path d="M93.46 54.9774C95.0082 55.009 96.4616 55.0406 97.8834 55.0722C98.6101 55.1038 98.9892 55.6409 98.6733 56.2728C98.5469 56.5256 98.1993 56.7467 97.9466 56.7783C97.1883 56.9047 96.3984 56.9679 95.6401 56.9679C94.5342 56.9679 93.4284 56.8731 92.3225 56.8099C91.3747 56.7467 91.1219 56.4624 91.0903 55.4829C91.0587 54.693 91.0903 53.9031 91.0903 53.1132C91.0903 51.0279 91.1219 48.9426 91.0903 46.8573C91.0271 43.8873 90.9323 40.9489 90.8375 37.9789C90.8059 37.2206 90.6796 36.4623 90.6796 35.704C90.6796 35.2617 90.8375 34.7877 90.9955 34.3454C91.1851 33.9031 91.5958 33.7135 92.0698 33.7451C92.5753 33.7767 92.9229 34.061 93.0492 34.5034C93.144 34.9141 93.1756 35.3565 93.1756 35.7672C93.2388 39.1479 93.3336 42.5287 93.3968 45.9094C93.4284 48.4687 93.46 51.0595 93.46 53.6188C93.46 54.0927 93.46 54.5035 93.46 54.9774Z" fill="white"/>
<path d="M55.861 2.43415C55.9242 2.43415 56.019 2.43415 56.0822 2.43415C57.7251 2.27617 59.3365 2.11819 60.9795 1.92862C61.3271 1.89702 61.6746 1.77064 61.9274 1.45468C62.4013 1.04394 62.1169 0.412024 61.643 0.22245C61.4534 0.159259 61.2639 0.0644716 60.9479 0.0328759C60.2212 -0.0303155 59.9052 0.00128021 59.4945 0.0960673C59.3681 0.127663 59.1154 0.159259 58.989 0.190854C57.8831 0.44362 56.7773 0.66479 55.6714 0.917556C55.1343 1.04394 54.9131 1.42309 54.9447 1.83383C54.9763 2.18138 55.2923 2.40255 55.861 2.43415Z" fill="white"/>
<path d="M20.0631 3.44488C19.5892 3.41329 14.8182 3.3501 14.2495 3.3501C13.6176 3.3501 13.1437 3.69765 13.1121 4.20318V4.23478C13.1121 4.45595 13.2385 4.70871 13.428 4.89829C13.428 5.43541 13.3964 7.36275 13.3648 8.87935C13.1437 9.00573 12.9541 9.2269 12.9541 9.66924C12.9541 10.0168 13.1121 10.238 13.3333 10.4275C13.3333 10.7119 13.3333 10.8699 13.3333 10.9331C13.2701 13.8083 13.2385 16.7151 13.2069 19.5903C13.1753 21.2017 13.2069 22.8131 13.1437 24.4244C13.1121 25.6251 13.3964 26.0042 14.5971 26.0358C16.1453 26.0674 17.6935 26.0674 19.2416 26.0358C19.5892 26.0358 19.9683 25.941 20.3159 25.8462C20.7266 25.7199 20.9162 25.4039 20.9162 24.9616C20.8846 24.5192 20.6003 24.2349 20.1895 24.1401C19.9999 24.1085 19.7788 24.1085 19.5576 24.1085C18.2622 24.1085 16.9668 24.1085 15.6713 24.1085H15.1342C15.1974 19.6535 15.2606 15.2617 15.3238 10.8067H15.8609C17.0615 10.8067 18.2622 10.8067 19.4628 10.8067C19.526 10.8067 19.6208 10.8067 19.684 10.7751C19.7472 10.7751 19.7788 10.7751 19.7788 10.7751C20.3475 10.6487 20.5371 10.0168 20.4107 9.51126C20.3791 9.41647 20.3475 9.32169 20.2843 9.2269C20.0315 8.87935 19.6524 8.81616 19.2416 8.81616C19.0521 8.81616 18.8625 8.78456 18.6729 8.78456C17.9462 8.78456 17.2195 8.78456 16.4928 8.78456C16.0505 8.78456 15.6713 8.78456 15.4186 8.78456C15.4186 7.7419 15.4186 5.78297 15.4186 5.24584L20.0631 5.21424C20.695 5.21424 21.0742 4.86669 21.0742 4.32956V4.29797C21.011 3.76084 20.5371 3.47648 20.0631 3.44488Z" fill="white"/>
<path d="M8.72029 2.93984C8.59391 2.52909 8.21476 2.40271 7.80402 2.43431C7.39327 2.4659 7.1721 2.71867 7.04572 3.06622C6.95093 3.38218 6.88774 3.69814 6.88774 4.01409C6.85614 5.30952 6.85615 6.60494 6.85615 7.90036C6.85615 11.1547 6.85615 14.4091 6.82455 17.6634C6.82455 17.7898 6.82455 17.9162 6.79295 18.0426C5.62391 14.6934 4.48647 11.3443 3.34902 8.02675C2.90668 6.57334 2.55913 5.15154 2.14839 3.76133C1.99041 3.1926 1.54807 2.81346 1.04254 2.84505C0.537005 2.87665 0.094665 3.35058 -0.00012207 3.91931C-0.00012207 4.07728 -0.00012207 4.26686 -0.00012207 4.45643C0.0630693 5.62547 0.189452 6.79451 0.189452 7.96356C0.252644 10.0173 0.189452 12.1026 0.189452 14.1879C0.189452 16.7472 0.189452 19.3064 0.221048 21.8341C0.221048 23.2243 0.284239 24.6145 0.347431 26.0363C0.379026 26.5102 0.694983 26.8262 1.13732 26.8894C1.57966 26.9526 1.92722 26.7314 2.08519 26.2575C2.21158 25.8783 2.24317 25.436 2.24317 25.0568C2.24317 20.9494 2.24317 16.8419 2.24317 12.7345C2.24317 12.5449 2.24317 12.387 2.24317 12.1974C2.27477 12.1974 2.30636 12.1974 2.33796 12.1974C2.36956 12.2606 2.36956 12.2922 2.40115 12.3554C3.88615 16.6524 5.37115 20.9178 6.85615 25.2148C7.04572 25.7835 7.45646 26.0363 7.9304 26.0047C8.37274 25.9731 8.6255 25.7203 8.6887 25.0884C8.78348 24.0774 8.81508 23.0663 8.84667 22.0552C8.87827 17.695 8.90987 13.3348 8.94146 8.97462C8.94146 7.39483 9.00465 5.84664 8.97306 4.26686C8.97306 3.79292 8.84667 3.35058 8.72029 2.93984Z" fill="white"/>
<path d="M29.2257 17.4105C28.4042 14.6617 27.4563 11.9444 26.6032 9.16401C26.3505 8.31093 26.1925 7.33146 26.1925 6.47838C26.1925 5.97285 26.6032 5.5621 27.1088 5.49891C27.5511 5.46731 27.9618 5.75168 28.1198 6.25721C28.2146 6.63635 28.3094 6.98391 28.4042 7.36306C28.5622 7.86859 28.8781 8.05816 29.4152 8.05816C29.8892 8.02657 30.2367 7.7422 30.3315 7.26827C30.6791 5.68848 29.5416 3.69795 28.0566 3.382C26.1609 2.97125 24.4231 4.01391 24.0756 5.84646C23.8228 7.17348 24.044 8.43731 24.4547 9.70114C25.2446 12.292 26.0661 14.8512 26.856 17.4421C27.3615 19.0535 27.8039 20.6648 28.3094 22.2762C28.5306 23.0345 28.025 23.698 27.5195 23.8244C26.856 23.9824 26.1609 23.4769 26.0029 22.7186C25.9397 22.4026 25.9397 22.0867 25.9081 21.7707C25.8449 21.2652 25.4974 20.8544 25.0234 20.7912C24.5811 20.728 24.2336 20.9176 24.044 21.4231C23.3173 23.4137 24.6443 26.1309 27.2035 26.1309C29.5732 26.0677 30.9002 24.4247 30.4263 22.1182C30.0472 20.5069 29.6996 18.9271 29.2257 17.4105Z" fill="white"/>
<path d="M38.6417 3.91937C38.4837 3.91937 38.231 3.91937 37.9782 3.91937C37.757 3.50863 37.2831 3.25586 36.6512 3.25586C36.0509 3.25586 35.8929 3.63501 35.7981 3.91937C34.787 3.91937 33.8392 3.91937 33.618 3.91937C32.8281 3.98256 32.3858 4.10894 32.4174 4.77245C32.449 5.43596 33.4916 5.56235 34.1867 5.56235C34.5027 5.56235 35.103 5.56235 35.7665 5.53075C35.7981 6.25745 35.8613 7.01575 35.8929 7.55288C35.9561 8.59553 36.1456 13.7772 36.2404 15.2622C36.3352 16.7472 36.4932 23.2243 36.6196 24.2986C36.746 25.3729 37.1251 25.752 38.0414 25.752C38.9577 25.752 39.1156 24.8989 39.1156 24.5198C39.0841 24.1722 39.084 22.9716 38.9893 20.8863C38.8945 18.8009 38.7365 14.5039 38.3889 8.8799C38.3258 7.96362 38.2942 6.57341 38.1994 5.46756C39.2104 5.49915 40.885 5.46756 41.3905 5.34118C41.9277 5.21479 42.0224 4.48809 41.6117 4.10894C41.2326 3.79299 39.7476 3.95097 38.6417 3.91937Z" fill="white"/>
<path d="M50.6793 24.0773C49.9842 24.0773 49.2891 24.0773 48.594 24.0773C47.8673 24.0773 47.1406 24.0773 46.4139 24.0773C46.3823 23.8878 46.3823 23.8246 46.3823 23.7614C46.3823 17.8214 46.3823 11.8814 46.3507 5.94139C46.3507 5.1515 46.2559 4.36161 46.1611 3.60331C46.0979 3.16097 45.782 2.9082 45.308 2.9082C44.8657 2.9398 44.5813 3.19256 44.4865 3.6349C44.3917 4.20363 44.2338 4.80395 44.2338 5.37267C44.2654 7.52118 44.3917 9.66968 44.3917 11.8498C44.3917 16.1152 44.3601 20.349 44.3286 24.6145C44.3286 25.7835 44.8657 26.3206 45.9715 26.3206C47.0142 26.3206 48.0253 26.3522 49.0679 26.289C49.6998 26.2574 50.3633 26.1311 50.9952 25.9731C51.5008 25.8467 51.7219 25.3412 51.5956 24.804C51.5324 24.2985 51.248 24.0773 50.6793 24.0773Z" fill="white"/>
<path d="M61.0742 3.44488C60.6003 3.41329 55.8294 3.3501 55.2606 3.3501C54.6287 3.3501 54.1548 3.69765 54.1232 4.20318V4.23478C54.1232 4.45595 54.2496 4.70871 54.4391 4.89829C54.4391 5.43541 54.4076 7.36275 54.376 8.87935C54.1548 9.00573 53.9652 9.2269 53.9652 9.66924C53.9652 10.0168 54.1232 10.238 54.3444 10.4275C54.3444 10.7119 54.3444 10.8699 54.3444 10.9331C54.2812 13.8083 54.2496 16.7151 54.218 19.5903C54.1864 21.2017 54.218 22.8131 54.1548 24.4244C54.1232 25.6251 54.4075 26.0042 55.6082 26.0358C57.1564 26.0674 58.7046 26.0674 60.2528 26.0358C60.6003 26.0358 60.9795 25.941 61.327 25.8462C61.7378 25.7199 61.9273 25.4039 61.9273 24.9616C61.8957 24.5192 61.6114 24.2349 61.2006 24.1401C61.0111 24.1085 60.7899 24.1085 60.5687 24.1085C59.2733 24.1085 57.9779 24.1085 56.6824 24.1085H56.1453C56.2085 19.6535 56.2717 15.2617 56.3349 10.8067H56.872C58.0727 10.8067 59.2733 10.8067 60.4739 10.8067C60.5371 10.8067 60.6319 10.8067 60.6951 10.7751C60.7583 10.7751 60.7899 10.7751 60.7899 10.7751C61.3586 10.6487 61.5482 10.0168 61.4218 9.51126C61.3902 9.41647 61.3586 9.32169 61.2954 9.2269C61.0426 8.87935 60.6635 8.81616 60.2528 8.81616C60.0632 8.81616 59.8736 8.78456 59.684 8.78456C58.9573 8.78456 58.2306 8.78456 57.5039 8.78456C57.0616 8.78456 56.6824 8.78456 56.4297 8.78456C56.4297 7.7419 56.4297 5.78297 56.4297 5.24584L61.0742 5.21424C61.7062 5.21424 62.0853 4.86669 62.0853 4.32956V4.29797C61.9905 3.76084 61.5482 3.47648 61.0742 3.44488Z" fill="white"/>
<path d="M73.1439 24.1085C73.1439 24.6456 73.1439 25.2775 73.1439 25.9094C73.1439 26.5729 73.1123 27.2048 73.0807 27.8684C73.0491 28.3739 72.7964 28.595 72.354 28.6266C71.7853 28.6582 71.3746 28.3739 71.343 27.8684C71.2482 26.8573 71.1534 25.8462 71.0902 24.8352C71.0902 24.6772 71.0586 24.5508 71.0586 24.3612C70.7742 24.3296 70.5215 24.298 70.2371 24.2664C69.6684 24.2032 69.3208 23.8241 69.2892 23.287C69.2576 22.7498 69.542 22.4023 70.1423 22.2759C70.3635 22.2127 70.6163 22.2127 70.869 22.2127C70.869 22.0547 70.9006 21.9284 70.9006 21.802C70.9006 19.1795 70.9322 16.5571 70.9322 13.9662C70.9322 13.6503 70.9322 13.3659 70.9638 13.05C70.9954 12.418 71.2166 12.1021 71.6589 11.9441C72.1328 11.7861 72.4804 11.9441 72.7964 12.3233C73.5231 12.1969 74.1866 11.9441 74.8185 12.0073C76.4299 12.1337 77.6621 13.3027 78.0096 15.0089C78.3888 16.873 78.3572 18.8004 78.0096 20.6645C77.7885 21.8652 77.0618 22.7498 75.9559 23.2238C75.0712 23.6029 74.0918 23.8241 73.1439 24.1085ZM72.7964 22.1811C73.5547 21.9915 74.2182 21.802 74.8817 21.6124C75.64 21.4228 76.0191 20.8857 76.1139 20.1274C76.1771 19.5271 76.2087 18.9268 76.2403 18.3264C76.3035 17.2838 76.3351 16.2411 76.0507 15.1985C75.8295 14.5034 75.4188 14.1242 74.7553 14.0926C73.7758 14.0294 73.1439 14.5034 73.0175 15.546C72.8911 16.7467 72.8595 17.9789 72.7964 19.1795C72.7648 20.1274 72.7964 21.0753 72.7964 22.1811Z" fill="white"/>
<path d="M87.1091 19.97C87.1091 21.1391 86.9196 22.3713 86.6352 23.5403C86.2245 25.1833 84.7079 26.1628 83.0965 26.068C81.7695 26.0048 80.474 24.9622 80.0001 23.5088C79.7789 22.7821 79.5578 22.0238 79.5262 21.2971C79.463 19.5909 79.1786 17.8531 79.6526 16.1785C79.8421 15.515 80.1581 14.8515 80.5372 14.2512C81.2955 13.0822 82.8753 12.4819 84.1076 12.7662C85.4662 13.1138 86.4456 14.188 86.6984 15.7046C86.9512 16.9368 87.046 18.4218 87.1091 19.97ZM85.087 19.97C85.0238 18.643 85.0238 17.6951 84.8974 16.7473C84.8343 16.1785 84.6131 15.5782 84.2971 15.1043C83.7284 14.2196 82.6857 14.2828 82.1802 15.1991C81.8643 15.7994 81.6115 16.4629 81.4851 17.158C81.1375 18.8326 81.3903 20.4756 81.6431 22.1185C81.7063 22.5293 81.8327 22.9716 82.0538 23.3508C82.5278 24.1407 83.5072 24.2671 84.1391 23.6035C84.4551 23.2244 84.7395 22.7505 84.8342 22.2765C85.0238 21.3918 85.0554 20.5072 85.087 19.97Z" fill="white"/>
<path d="M90.9954 12.8928C92.4488 12.2609 93.6179 12.4189 94.6605 13.4299C95.0713 13.8091 95.1976 14.3778 95.0081 14.8517C94.8501 15.2309 94.5657 15.4205 94.1866 15.2625C93.9022 15.1361 93.6495 14.9781 93.4283 14.7886C92.9544 14.441 92.4804 14.2198 91.9117 14.5042C91.3746 14.7886 91.1534 15.2309 91.1534 15.8628C91.1534 18.6432 91.1534 21.4237 91.1534 24.2041C91.1534 24.5832 91.185 24.9308 91.1534 25.2783C91.1218 25.7523 90.869 26.0366 90.4583 26.0998C89.9844 26.1314 89.4788 25.9102 89.4156 25.4995C89.3208 24.9308 89.2577 24.3621 89.2577 23.7933C89.2261 20.381 89.1945 16.9687 89.1945 13.5247C89.1945 13.2088 89.2577 12.8296 89.4472 12.5769C89.8896 11.9765 90.5531 12.1345 90.9954 12.8928Z" fill="white"/>
<path d="M8.40435 49.859C8.40435 48.1845 8.40435 46.4783 8.40435 44.8037C8.43594 41.2966 8.46754 37.7895 8.49914 34.2824C8.49914 34.0296 8.53073 33.7768 8.62552 33.5241C8.7203 33.1765 8.94147 32.9237 9.28903 32.8605C9.66818 32.7974 10.0473 32.8921 10.2369 33.2397C10.4265 33.5557 10.5845 33.9348 10.5845 34.2824C10.5845 37.5999 10.5213 40.949 10.4897 44.2666C10.4581 47.1418 10.4265 50.0486 10.3949 52.9238C10.3949 53.9033 10.3001 54.8512 10.2369 55.8306C10.2053 56.2414 10.1421 56.6521 9.60498 56.7785C9.09945 56.8733 8.65711 56.6521 8.40435 56.1466C8.18318 55.7042 8.0252 55.2619 7.83563 54.788C6.09786 50.1434 4.39169 45.5304 2.65393 40.8859C2.65393 40.8543 2.62233 40.8227 2.49595 40.7595C2.49595 40.9175 2.49595 41.0438 2.49595 41.2018C2.49595 46.0676 2.52755 50.9649 2.52755 55.8306C2.52755 56.2098 2.49595 56.5889 2.43276 56.9681C2.33797 57.4736 1.95882 57.6632 1.45329 57.6316C0.979358 57.6 0.694996 57.3472 0.663401 56.8417C0.631805 55.1355 0.568613 53.3662 0.537018 51.6284C0.505422 47.1102 0.568613 42.592 0.537018 38.0738C0.537018 36.968 0.379039 35.8305 0.284252 34.7247C0.189465 33.9664 0.473826 33.4609 1.13734 33.3029C1.73765 33.1449 2.24319 33.5241 2.49595 34.2192C4.07574 38.5162 5.65552 42.8132 7.23531 47.1102C7.58286 48.0581 7.93041 48.9744 8.30956 49.8906C8.34116 49.8906 8.37275 49.859 8.40435 49.859Z" fill="white"/>
<path d="M44.8028 46.6995C44.8344 49.322 44.6448 51.8812 43.9813 54.4089C43.8549 54.9144 43.6338 55.42 43.4126 55.8939C43.0018 56.7786 42.2435 57.2841 41.2957 57.4105C40.7585 57.4737 40.2214 57.5053 39.6527 57.4737C38.1045 57.4105 37.0934 56.589 36.5247 55.2304C35.9244 53.8086 35.7348 52.292 35.64 50.7754C35.4189 47.7422 35.4505 44.709 35.8928 41.6758C36.1772 39.8117 36.5879 38.0107 37.283 36.273C37.5042 35.7042 37.7885 35.1671 38.1361 34.6616C38.9576 33.5557 40.095 33.1766 41.4221 33.3977C42.3699 33.5557 42.9386 34.156 43.3494 34.9775C43.9181 36.0518 44.1393 37.2524 44.2341 38.4531C44.5816 41.0755 44.8344 45.7833 44.8028 46.6995ZM42.6859 46.4468C42.5595 44.6458 42.4015 42.2761 42.212 39.9065C42.1172 38.6742 41.9592 37.442 41.4537 36.273C41.2957 35.8622 41.1377 35.4199 40.6322 35.3883C40.1266 35.3567 39.8423 35.7042 39.5895 36.0834C39.4631 36.2414 39.3683 36.4625 39.3051 36.6521C39.1156 37.1576 38.926 37.6632 38.7996 38.2003C37.6938 42.8133 37.3778 47.4894 37.9149 52.2288C38.0097 53.0503 38.2941 53.9034 38.6732 54.6301C39.3367 55.8623 40.8849 55.8939 41.6748 54.7248C41.9592 54.2825 42.1804 53.777 42.2751 53.2714C42.6543 51.2177 42.6859 49.1324 42.6859 46.4468Z" fill="white"/>
<path d="M51.343 34.3772C52.5121 34.4088 53.6495 34.5667 54.471 35.5778C54.9766 36.2097 55.1977 36.9364 55.2609 37.7263C55.2925 38.2318 54.945 38.611 54.3762 38.7058C53.7443 38.8322 53.144 38.5794 52.9544 38.0107C52.828 37.6947 52.7649 37.3472 52.6385 36.9996C52.4805 36.5889 52.2277 36.2729 51.7538 36.1465C51.0587 35.9885 50.3952 36.3677 50.3004 37.1576C50.2372 37.7579 50.2688 38.3898 50.4268 38.9269C50.7427 39.8432 51.1535 40.7279 51.5958 41.581C53.0492 44.5826 54.5974 47.5526 55.7033 50.7121C55.956 51.4072 56.114 52.1339 56.2404 52.8606C56.5247 54.472 55.8296 55.6727 54.2815 56.2414C52.6385 56.8101 51.0587 56.8733 49.6685 55.6095C48.8154 54.8196 48.3099 53.8401 48.531 52.6079C48.6258 52.0392 49.0682 51.66 49.5737 51.66C50.174 51.66 50.6479 52.0076 50.7743 52.5763C50.8375 52.8922 50.9007 53.2398 50.9955 53.5558C51.2799 54.472 52.3225 54.946 53.2388 54.5984C53.7127 54.4404 53.9023 54.0613 53.9023 53.6189C53.9023 53.145 53.8391 52.6711 53.6811 52.2287C52.6701 49.8275 51.6274 47.4262 50.5532 45.0565C49.8896 43.5715 49.0998 42.1181 48.4046 40.6331C47.9623 39.6852 47.6779 38.7058 47.7095 37.6315C47.7727 35.7358 49.0366 34.4088 50.9639 34.314C51.0903 34.3772 51.2167 34.3772 51.343 34.3772Z" fill="white"/>
<path d="M29.7631 49.8592C29.7631 49.7012 29.7631 49.5432 29.7631 49.3852C29.7631 46.4152 29.7631 43.4453 29.7947 40.5069C29.7947 38.4531 29.8579 36.3678 29.8895 34.3141C29.8895 34.0613 29.9526 33.8086 29.9842 33.5558C30.079 33.2082 30.3002 32.9555 30.6477 32.8923C31.0269 32.8291 31.4376 32.9239 31.5956 33.2714C31.7852 33.6506 31.9432 34.0613 31.9432 34.4721C31.9116 38.5479 31.88 42.6554 31.8168 46.7312C31.7852 49.5432 31.722 52.3868 31.6588 55.1989C31.6588 55.4832 31.6272 55.736 31.564 56.0203C31.5008 56.3995 31.406 56.747 30.9637 56.8102C30.4898 56.8734 30.1106 56.747 29.8895 56.3363C29.6683 55.9256 29.4787 55.4832 29.3207 55.0409C27.6462 50.5543 25.9716 46.0361 24.3286 41.5495C24.2338 41.2967 24.139 41.044 23.9495 40.8228C23.9495 40.9808 23.9495 41.1388 23.9495 41.2967C23.9495 46.1941 23.9811 51.123 23.9811 56.0203C23.9811 56.3363 23.9811 56.6207 23.9179 56.9366C23.8231 57.4737 23.4439 57.7265 22.9068 57.6949C22.4013 57.6633 22.1169 57.379 22.1169 56.8102C22.0537 52.924 21.9905 49.0377 21.9589 45.1514C21.9273 42.8449 21.9905 40.5384 21.9589 38.232C21.9273 37.0629 21.801 35.8939 21.7062 34.7248C21.643 33.9981 21.8957 33.4926 22.5592 33.3346C23.1596 33.2082 23.6651 33.5558 23.9179 34.1877C25.8136 39.3694 27.7409 44.5511 29.6683 49.7328C29.6999 49.796 29.6999 49.8276 29.7315 49.8908C29.6999 49.8592 29.7315 49.8592 29.7631 49.8592Z" fill="white"/>
<path d="M29.2262 32.2284C28.4679 32.1968 27.7412 32.0388 27.1408 31.5965C26.7933 31.3437 26.5405 30.9646 26.3193 30.617C26.035 30.1747 25.7822 29.7955 25.2135 29.8271C24.55 29.8903 24.1708 30.1747 23.9813 30.8698C23.9181 31.0594 23.8865 31.249 23.8549 31.4385C23.7285 31.9441 23.3494 32.2284 22.8438 32.1968C22.4331 32.1652 22.1171 31.8177 22.0855 31.3121C21.9275 29.6692 23.4125 28.2158 25.1819 28.3421C25.7822 28.3737 26.4141 28.5633 26.9829 28.7845C27.52 28.9741 27.8675 29.4164 28.0571 29.9535C28.2151 30.3959 28.4679 30.7434 29.005 30.7118C29.7001 30.6802 30.1108 30.4275 30.332 29.8587C30.4268 29.6376 30.4584 29.3848 30.5216 29.1636C30.6164 28.6265 30.9639 28.3106 31.4694 28.3421C31.9118 28.3421 32.2593 28.7213 32.3225 29.2584C32.4489 30.4591 31.4694 31.8177 30.2372 32.1336C29.8897 32.1652 29.5421 32.1652 29.2262 32.2284Z" fill="white"/>
<path d="M14.7867 34.8512C14.8183 34.0929 14.5971 32.9239 15.8293 32.7975C17.0616 32.7027 16.9352 34.1245 16.9352 34.4721C16.9352 34.8512 16.9668 44.3299 16.9984 46.0677C17.0616 47.8055 17.2511 53.2399 17.3143 54.7249C17.3775 56.1783 17.4723 57.4737 16.3665 57.5053C15.2606 57.5685 15.1342 56.6838 15.0394 55.8308C14.9447 54.9777 14.9131 49.796 14.8815 48.0266C14.8499 46.2573 14.6919 41.4231 14.6919 39.4958C14.6919 37.5684 14.7867 34.8512 14.7867 34.8512Z" fill="white"/>
<path d="M138.263 56.2099C138.263 56.0203 138.231 55.8624 138.168 55.6728C137.473 52.6712 136.778 49.6696 136.083 46.668C136.051 46.5732 136.02 46.3836 135.957 46.1309C136.367 45.9729 136.683 45.7517 136.588 45.3726C136.494 44.9618 136.083 44.8039 135.641 44.7407C135.609 44.5511 135.546 44.3931 135.546 44.3299C135.356 43.4768 135.167 42.6238 134.946 41.7707C134.377 39.401 133.808 37.0629 133.208 34.6932C133.145 34.4089 132.892 34.0929 132.607 33.9349C131.691 33.3978 130.68 33.8401 130.396 34.946C129.606 38.0424 128.879 41.1703 128.121 44.2667C128.089 44.3615 128.026 44.6143 127.963 44.867C127.773 44.867 127.047 44.9618 127.047 45.4674C127.047 45.8781 127.363 46.0677 127.647 46.1625C127.584 46.4152 127.521 46.6364 127.521 46.7312C126.889 49.4484 126.257 52.1657 125.625 54.8829C125.498 55.42 125.751 55.894 126.225 56.0835C126.699 56.2731 127.205 56.1467 127.489 55.7044C127.71 55.3252 127.9 54.8829 127.994 54.4405C128.626 51.9445 129.321 49.0061 129.953 46.4784L133.871 46.3836C134.029 47.1103 134.25 48.1846 134.408 48.8481C134.946 51.281 135.483 53.7454 136.051 56.1783C136.209 56.905 136.588 57.1578 137.315 57.1894C138.042 57.221 138.295 56.9366 138.263 56.2099ZM131.786 38.2004C131.818 38.2004 131.849 38.2004 131.912 38.2004C132.386 40.3173 132.829 42.4342 133.334 44.6459H130.333C130.775 42.4658 131.28 40.3173 131.786 38.2004Z" fill="white"/>
<path d="M149.353 44.2987C149.163 43.6036 148.5 41.0127 145.846 40.8863C147.805 39.8121 148.752 38.485 148.689 36.4629C148.626 34.4092 147.141 33.2086 144.297 32.703C143.35 32.5766 141.77 32.4819 141.422 32.7346C141.043 33.0506 141.011 33.7141 141.896 34.2196C141.896 34.2196 141.707 38.6746 141.675 39.97C141.359 40.0332 140.885 40.1912 140.822 40.602C140.759 41.1075 140.822 41.5498 141.643 41.8342C141.58 44.4882 141.485 49.1644 141.485 50.9022C141.485 53.2086 141.296 54.5989 141.359 55.136C141.391 55.6731 141.58 56.2734 142.56 56.305C143.539 56.3366 146.92 56.8737 148.721 53.4298C150.332 50.3018 149.511 44.9938 149.353 44.2987ZM144.013 34.4724C144.013 34.4724 146.635 34.504 146.762 36.3049C146.951 38.7694 143.887 39.6225 143.887 39.6225L144.013 34.4724ZM145.34 54.5041C144.677 54.6936 143.539 54.6936 143.539 54.5041C143.539 54.3145 143.444 41.8658 143.444 41.8658C145.34 41.771 147.773 42.6873 147.899 47.6162C147.994 52.5135 146.035 54.3145 145.34 54.5041Z" fill="white"/>
<path d="M87.5515 56.2099C87.5515 56.0203 87.5199 55.8624 87.4567 55.6728C86.7616 52.6712 86.0665 49.6696 85.3714 46.668C85.3398 46.5732 85.3082 46.3836 85.245 46.1309C85.6558 45.9729 85.9717 45.7517 85.8769 45.3726C85.7821 44.9618 85.3714 44.8039 84.9291 44.7407C84.8975 44.5511 84.8343 44.3931 84.8343 44.3299C84.6447 43.4768 84.4551 42.6238 84.234 41.7707C83.6652 39.401 83.0965 37.0629 82.4962 34.6932C82.433 34.4089 82.1802 34.0929 81.8959 33.9349C80.9796 33.3978 79.9685 33.8401 79.6842 34.946C78.8943 38.0424 78.1676 41.1703 77.4093 44.2667C77.3777 44.3615 77.3145 44.6143 77.2513 44.867C77.0617 44.867 76.335 44.9618 76.335 45.4674C76.335 45.8781 76.651 46.0677 76.9354 46.1625C76.8722 46.4152 76.809 46.6364 76.809 46.7312C76.1771 49.4484 75.5451 52.1657 74.9132 54.8829C74.7868 55.42 75.0396 55.894 75.5135 56.0835C75.9875 56.2731 76.493 56.1467 76.7774 55.7044C76.9985 55.3252 77.1881 54.8829 77.2829 54.4405C77.9148 51.9445 78.6099 49.0061 79.2418 46.4784L83.1597 46.3836C83.3177 47.1103 83.5389 48.1846 83.6968 48.8481C84.234 51.281 84.7711 53.7454 85.3398 56.1783C85.4978 56.905 85.8769 57.1578 86.6036 57.1894C87.3303 57.221 87.6147 56.9366 87.5515 56.2099ZM81.0744 38.2004C81.106 38.2004 81.1376 38.2004 81.2008 38.2004C81.6747 40.3173 82.117 42.4342 82.6226 44.6459H79.621C80.0949 42.4658 80.5689 40.3173 81.0744 38.2004Z" fill="white"/>
<path d="M68.0255 34.3772C69.1946 34.4088 70.332 34.5667 71.1535 35.5778C71.659 36.2097 71.8802 36.9364 71.9434 37.7263C71.975 38.2318 71.6275 38.611 71.0587 38.7058C70.4268 38.8322 69.8265 38.5794 69.6369 38.0107C69.5105 37.6947 69.4473 37.3472 69.321 36.9996C69.163 36.5889 68.9102 36.2729 68.4363 36.1465C67.7412 35.9885 67.0777 36.3677 66.9829 37.1576C66.9197 37.7579 66.9513 38.3898 67.1093 38.9269C67.4252 39.8432 67.836 40.7279 68.2783 41.581C69.7317 44.5826 71.2799 47.5526 72.3858 50.7121C72.6385 51.4072 72.7965 52.1339 72.9229 52.8606C73.2072 54.472 72.5121 55.6727 70.9639 56.2414C69.321 56.8101 67.7412 56.8733 66.351 55.6095C65.4979 54.8196 64.9924 53.8401 65.2135 52.6079C65.3083 52.0392 65.7507 51.66 66.2562 51.66C66.8565 51.66 67.3304 52.0076 67.4568 52.5763C67.52 52.8922 67.5832 53.2398 67.678 53.5558C67.9624 54.472 69.005 54.946 69.9213 54.5984C70.3952 54.4404 70.5848 54.0613 70.5848 53.6189C70.5848 53.145 70.5216 52.6711 70.3636 52.2287C69.3526 49.8275 68.3099 47.4262 67.2357 45.0565C66.5721 43.5715 65.7822 42.1181 65.0871 40.6331C64.6448 39.6852 64.3604 38.7058 64.392 37.6315C64.4552 35.7358 65.7191 34.4088 67.6464 34.314C67.7728 34.3772 67.8992 34.3772 68.0255 34.3772Z" fill="white"/>
<path d="M178.231 34.3772C179.4 34.4088 180.538 34.5667 181.359 35.5778C181.865 36.2097 182.086 36.9364 182.149 37.7263C182.181 38.2318 181.833 38.611 181.265 38.7058C180.633 38.8322 180.032 38.5794 179.843 38.0107C179.716 37.6947 179.653 37.3472 179.527 36.9996C179.369 36.5889 179.116 36.2729 178.642 36.1465C177.947 35.9885 177.283 36.3677 177.189 37.1576C177.126 37.7579 177.157 38.3898 177.315 38.9269C177.631 39.8432 178.042 40.7279 178.484 41.581C179.938 44.5826 181.486 47.5526 182.592 50.7121C182.844 51.4072 183.002 52.1339 183.129 52.8606C183.413 54.472 182.718 55.6727 181.17 56.2414C179.527 56.8101 177.947 56.8733 176.557 55.6095C175.704 54.8196 175.198 53.8401 175.419 52.6079C175.514 52.0392 175.956 51.66 176.462 51.66C177.062 51.66 177.536 52.0076 177.663 52.5763C177.726 52.8922 177.789 53.2398 177.884 53.5558C178.168 54.472 179.211 54.946 180.127 54.5984C180.601 54.4404 180.791 54.0613 180.791 53.6189C180.791 53.145 180.727 52.6711 180.569 52.2287C179.558 49.8275 178.516 47.4262 177.441 45.0565C176.778 43.5715 175.988 42.1181 175.293 40.6331C174.851 39.6852 174.566 38.7058 174.598 37.6315C174.661 35.7358 175.925 34.4088 177.852 34.314C177.979 34.3772 178.105 34.3772 178.231 34.3772Z" fill="white"/>
<path d="M172.323 55.8942C172.323 55.4202 171.818 55.1359 171.28 55.1043C170.87 55.1043 167.742 55.1043 165.972 55.1359C166.036 55.0727 166.067 55.0411 166.036 55.0411C166.099 50.5861 166.162 46.1943 166.225 41.7393H166.825C168.121 41.7393 169.448 41.7393 170.743 41.7393C170.838 41.7393 170.901 41.7393 170.964 41.7077C171.028 41.7077 171.059 41.7077 171.091 41.7077C171.723 41.5813 171.912 40.9494 171.754 40.4439C171.723 40.3491 171.691 40.2543 171.628 40.1595C171.344 39.812 170.933 39.7488 170.491 39.7488C170.269 39.7488 170.08 39.7172 169.859 39.7172C169.069 39.7172 168.279 39.7172 167.489 39.7172C167.015 39.7172 166.604 39.7172 166.32 39.7172C166.32 38.6113 166.32 36.4628 166.32 36.1153L171.091 35.9889C171.786 35.9889 172.165 35.6097 172.134 35.1042V35.0726C172.134 34.5987 171.628 34.3143 171.122 34.2827C170.617 34.2827 165.562 34.2827 164.93 34.3143C164.235 34.3459 163.729 34.6935 163.761 35.1674V35.199C163.761 35.4834 163.95 35.7677 164.235 35.9573C164.235 36.5576 164.171 38.3902 164.14 39.8752C163.919 40.0015 163.666 40.2227 163.666 40.665C163.666 41.0126 163.855 41.2338 164.108 41.4233C164.108 41.7077 164.108 41.8657 164.108 41.9289C164.045 44.8041 164.013 47.7109 163.95 50.5861C163.919 52.1975 163.919 53.8089 163.887 55.4202C163.887 55.4518 163.887 55.4834 163.887 55.515C163.697 55.673 163.603 55.831 163.603 56.0522V56.0838C163.603 56.5577 164.14 57.0632 164.898 57.0316L171.217 56.8736C171.912 56.8736 172.323 56.4945 172.291 55.989L172.323 55.8942Z" fill="white"/>
<path d="M212.102 33.5246C208.026 29.196 201.517 30.4914 198.927 32.9875C197.505 34.3777 196.431 36.2734 196.241 38.6747C198.263 38.106 203.255 37.79 206.573 41.4235C208.753 43.8248 209.764 46.9528 209.195 49.986C210.175 49.6384 211.123 49.1013 211.944 48.4062C216.241 44.899 216.178 37.8532 212.102 33.5246Z" fill="white"/>
<path d="M197.789 45.4675C196.525 42.9083 196.114 40.6334 196.241 38.7061H196.209C189.985 40.4754 187.899 47.6476 191.185 52.7345C194.471 57.8215 203.413 58.8641 206.952 54.6303C208.184 53.1769 208.911 51.6287 209.195 50.0173C205.119 51.5339 200.095 50.1437 197.789 45.4675Z" fill="white"/>
<path d="M201.675 42.6557C201.675 42.3081 201.391 41.9922 201.012 41.9922C200.664 41.9922 200.348 42.2766 200.348 42.6557C200.348 43.0348 200.633 43.3192 201.012 43.3192C201.391 43.3192 201.675 43.0348 201.675 42.6557Z" fill="white"/>
<path d="M204.898 42.5922C204.898 42.2447 204.614 41.9287 204.235 41.9287C203.887 41.9287 203.571 42.2131 203.571 42.5922C203.571 42.9398 203.856 43.2557 204.235 43.2557C204.614 43.2557 204.898 42.9398 204.898 42.5922Z" fill="white"/>
<path d="M202.781 46.9841C202.118 46.9841 201.581 46.7945 201.17 46.3838C200.412 45.6571 200.412 44.5828 200.412 44.5196C200.412 44.2668 200.601 44.0773 200.854 44.0773C201.107 44.0773 201.296 44.2668 201.296 44.5196C201.296 44.5196 201.296 45.2779 201.77 45.7202C202.023 45.973 202.371 46.0678 202.844 46.0362C203.318 46.0046 203.634 45.8782 203.824 45.6255C204.14 45.2147 204.014 44.5828 204.014 44.5828C203.95 44.33 204.108 44.1089 204.361 44.0457C204.614 43.9825 204.835 44.1405 204.898 44.3932C204.898 44.4248 205.119 45.4359 204.551 46.1942C204.203 46.6681 203.634 46.9209 202.876 46.9525C202.876 46.9841 202.844 46.9841 202.781 46.9841Z" fill="white"/>
</svg>
