<svg width="93" height="93" viewBox="0 0 93 93" fill="none" xmlns="http://www.w3.org/2000/svg">
<circle cx="46.24" cy="46.24" r="46.24" fill="#1C7DC0"/>
<path d="M63.315 43.9889C61.1653 41.8684 59.0316 39.7478 56.8818 37.6272C56.5034 37.2525 56.3182 36.83 56.4632 36.3039C56.7128 35.3951 57.8158 35.0602 58.5405 35.6661C58.6129 35.7219 58.6693 35.7857 58.7337 35.8495C61.6484 38.7354 64.555 41.6133 67.4697 44.4992C68.1782 45.2007 68.1782 45.8943 67.4616 46.5958C64.5389 49.4897 61.6081 52.3915 58.6854 55.2854C58.2989 55.668 57.8722 55.8594 57.3247 55.7079C56.4229 55.4608 56.0847 54.3766 56.6805 53.667C56.753 53.5794 56.8335 53.5076 56.914 53.4279C59.0397 51.3233 61.1733 49.2107 63.2989 47.106C63.3795 47.0263 63.4761 46.8988 63.5163 46.8031C63.4036 46.8031 63.2989 46.8031 63.1862 46.8031C55.8593 46.8031 53.7659 46.8031 46.4389 46.8031C46.2457 46.8031 46.0525 46.8111 45.8673 46.7712C45.2634 46.6437 44.8286 46.0378 44.885 45.4399C44.9494 44.8101 45.4405 44.3238 46.0847 44.2919C46.2135 44.2839 46.3423 44.2839 46.4792 44.2839C53.7739 44.2839 55.8432 44.2839 63.1379 44.2839C63.2587 44.2839 63.46 44.2839 63.5808 44.2839C63.5646 44.2361 63.3875 44.0687 63.315 43.9889Z" fill="white"/>
<path d="M27.8049 47.1307C29.9547 49.2512 32.0883 51.3718 34.2381 53.4924C34.6165 53.8671 34.8017 54.2896 34.6568 54.8158C34.4072 55.7246 33.3041 56.0594 32.5795 55.4535C32.507 55.3977 32.4507 55.3339 32.3862 55.2702C29.4716 52.3843 26.565 49.5064 23.6503 46.6205C22.9417 45.9189 22.9417 45.2254 23.6583 44.5238C26.5811 41.6299 29.5118 38.7281 32.4346 35.8342C32.821 35.4516 33.2478 35.2603 33.7953 35.4117C34.6971 35.6589 35.0352 36.7431 34.4394 37.4526C34.3669 37.5403 34.2864 37.612 34.2059 37.6917C32.0803 39.7964 29.9466 41.909 27.821 44.0136C27.7405 44.0933 27.6439 44.2209 27.6036 44.3165C27.7163 44.3165 27.821 44.3165 27.9337 44.3165C35.2607 44.3165 37.3541 44.3165 44.681 44.3165C44.8743 44.3165 48.2799 44.3484 48.4651 44.3883C49.069 44.5158 46.2913 45.0819 46.235 45.6798C46.1706 46.3096 50.4128 46.7879 49.7687 46.8198C49.6399 46.8277 44.7776 46.8357 44.6408 46.8357C37.346 46.8357 35.2768 46.8357 27.982 46.8357C27.8613 46.8357 27.66 46.8357 27.5392 46.8357C27.5553 46.8835 27.7324 47.051 27.8049 47.1307Z" fill="white"/>
</svg>
