<svg width="753" height="529" viewBox="0 0 753 529" fill="none" xmlns="http://www.w3.org/2000/svg">
<path d="M573.42 341.018C573.42 341.018 572.038 345.761 569.311 361.363C565.999 380.306 573.032 403.349 574.095 405.438C575.939 409.087 556.513 406.249 546.141 399.439C553.807 390.241 557.313 367.02 559.475 354.647C561.638 342.273 565.587 332.632 561.987 331.006C558.389 329.368 549.265 323.591 543.921 318.993C544.229 314.063 546.578 315.639 546.578 315.639C546.578 315.639 555.576 323.245 562.574 325.296C565.375 326.122 567.694 328.081 567.259 321.079C566.972 316.394 563.469 306.565 561.35 302.867C562.524 300.859 560.438 300.209 563.478 300.184C567.059 308.021 567.42 310.155 569.281 314.222C570.593 317.092 572.243 315.892 574.454 312.511C578.157 306.854 583.569 298.259 590.631 291.337C593.557 293.506 598.837 286.182 592.179 294.249C590.777 295.945 578.991 312.087 574.987 322.119C573.018 327.057 577.001 325.682 579.135 325.395C583.31 324.83 587.423 322.494 589.331 320.109C594.75 313.314 600.788 302.317 601.917 295.86C606.856 292.84 605.566 301.987 605.566 301.987C600.055 314.604 597.359 318.405 594.267 323.289C591.991 326.891 598.203 328.805 602.617 327.247C607.031 325.688 615.219 325.566 618.426 326.126L618.304 329.989C618.304 329.989 609.032 329.468 600.709 333.011C595.554 335.204 591.115 328.006 586.471 329.409C581.808 330.846 574.36 335.642 573.42 341.018Z" fill="#55B5D6"/>
<g style="mix-blend-mode:multiply">
<path d="M554.967 195.092H596.809V384.255H190.158L204.264 317.631L201.511 231.581V128.649H233.994V218.51H242.252V175.486H271.431V219.6H303.364V155.335H365.026V85.0795H392.003V155.335H402.463V72.5533H436.047V136.273H489.451V169.495H524.686V116.667H554.967V169.495V195.092Z" fill="url(#paint0_linear_2087_21746)" fill-opacity="0.18"/>
</g>
<path d="M215.643 309.143C215.643 309.143 215.094 314.026 215.094 329.781C215.094 348.91 226.066 370.283 227.482 372.148C229.944 375.408 210.182 375.953 198.713 371.057C204.722 360.732 204.173 337.379 204.173 324.885C204.173 312.39 206.419 302.268 202.566 301.291C198.713 300.302 188.66 296.204 182.562 292.615C182.013 287.731 184.616 288.873 184.616 288.873C184.616 288.873 194.86 294.784 202.158 295.596C205.079 295.925 207.72 297.448 206.074 290.661C204.977 286.12 199.798 277.089 197.055 273.829C197.871 271.659 195.689 271.38 198.7 270.835C203.612 277.9 204.339 279.93 206.891 283.596C208.69 286.183 210.119 284.725 211.726 281.033C214.418 274.856 218.296 265.507 224.101 257.516C227.38 259.14 231.347 251.059 226.142 260.104C225.045 262.006 216.153 279.841 213.92 290.357C212.823 295.532 216.536 293.503 218.602 292.856C222.647 291.587 226.321 288.594 227.801 285.93C231.998 278.344 236.08 266.535 236.08 260.015C240.456 256.209 240.763 265.393 240.763 265.393C237.484 278.7 235.468 282.885 233.248 288.2C231.615 292.12 238.109 292.932 242.217 290.649C246.325 288.365 254.426 286.843 257.705 286.843L258.253 290.649C258.253 290.649 248.966 291.727 241.324 296.623C236.591 299.655 230.939 293.363 226.576 295.532C222.2 297.739 215.643 303.714 215.643 309.143Z" fill="#55B5D6"/>
<path d="M239.033 261.346C243.134 271.086 247.376 273.764 256.141 275.925C255.042 281.331 256.128 293.813 264.995 295.935C280.762 299.725 287.086 287.85 286.639 277.567C297.307 279.184 301.217 268.673 301.408 259.439C301.6 250.204 293.551 242.662 284.045 245.075C292.248 224.522 278.027 206.672 251.222 212.622C252.091 205.067 236.286 197.147 220.175 197.235C203.489 197.323 186.445 205.712 187.212 215.325C184.005 210.196 164.329 210.853 154.516 219.14C142.123 229.625 140.73 249.964 155.474 260.222C137.281 264.58 140.015 286.208 150.415 295.404C160.815 304.601 183.097 301.657 186.522 289.732C188.54 282.683 188.297 281.319 186.662 273.208C202.122 278.375 208.676 268.635 209.647 256.975C220.162 266.223 226.729 267.031 239.033 261.346Z" fill="#BCE194"/>
<g clip-path="url(#clip0_2087_21746)">
<path d="M196.124 85.2745C192.982 68.1397 180.797 75.8234 180.797 75.8234C163.707 59.6875 160.795 80.5105 160.795 80.5105C152.978 77.5907 150.755 85.1976 150.755 85.1976C139.95 82.5852 136.578 88.2711 135.658 93.4961H208.08C206.087 81.0484 196.124 85.2745 196.124 85.2745Z" fill="white"/>
<path d="M266.918 102.019C268.869 95.9691 274.777 96.1142 279.351 97.0863C276.796 91.6599 269.007 93.0818 266.602 96.7526C260.736 95.9546 253.963 94.199 250.996 103.485C254.733 100.568 259.307 95.7515 266.918 102.019Z" fill="#00629B" fill-opacity="0.08"/>
<path d="M289.077 114.156C289.373 108.46 294.833 107.053 299.277 106.719C295.594 102.707 287.736 106.579 286.439 110.354C282.432 109.63 275.928 109.351 275.519 118.084C278.214 114.616 280.527 110.73 289.077 114.156Z" fill="#00629B" fill-opacity="0.08"/>
</g>
<path d="M279.39 394.325L293.95 384.685L286.173 374.311L271.853 387.668C271.853 387.668 275.9 394.192 279.39 394.325Z" fill="#FB9391"/>
<path d="M272.727 386.442C272.727 386.442 274.205 390.387 279.281 394.054C279.281 394.054 286.494 411.553 282.422 414.921C282.422 414.921 281.878 416.614 276.452 410.748C270.986 404.897 262.403 395.91 262.298 395.54C262.136 395.146 261.394 391.544 272.727 386.442Z" fill="#060633"/>
<path d="M262.242 395.517C262.347 395.887 270.969 404.857 276.396 410.724C281.862 416.575 282.366 414.898 282.366 414.898C282.647 414.69 282.841 414.381 283.035 414.072L263.644 392.23C261.945 394.121 262.2 395.304 262.242 395.517Z" fill="white"/>
<path d="M199.926 359.99L217.35 358.501L215.485 345.656L196.535 350.505C196.492 350.547 196.874 358.246 199.926 359.99Z" fill="#FB9391"/>
<path d="M197.805 350.208C197.805 350.208 197.212 354.376 199.925 360.033C199.925 360.033 197.848 378.833 192.676 379.811C192.676 379.811 191.404 381.002 189.411 373.261C187.419 365.52 184.197 353.525 184.239 353.142C184.324 352.76 185.426 349.272 197.805 350.208Z" fill="#060633"/>
<path d="M184.239 353.142C184.155 353.525 187.419 365.519 189.411 373.26C191.404 381.001 192.676 379.81 192.676 379.81C193.015 379.725 193.354 379.597 193.651 379.385L187.08 350.93C184.663 351.738 184.282 352.929 184.239 353.142Z" fill="white"/>
<path d="M293.029 237.476C293.029 237.476 348.376 297.218 347.227 315.89C345.78 339.648 289.599 392.627 289.599 392.627L279.04 379.486C279.04 379.486 316.331 323.673 312.932 317.389C308.797 309.752 289.11 291.663 281.123 282.34C268.111 267.125 259.416 259.655 259.416 259.655L293.029 237.476Z" fill="#AA6B88"/>
<path d="M286.79 269.309C286.79 269.309 293.573 273.307 294.76 282.409C295.524 288.449 293.319 296.445 291.835 307.589C289.08 328.005 285.603 349.995 279.287 352.887C261.185 361.096 206.2 362.84 206.2 362.84L205.14 347.655C205.14 347.655 257.751 334.598 258.811 329.494C260.634 320.562 252.791 255.613 261.142 247.234C267.417 240.854 286.79 269.309 286.79 269.309Z" fill="#AA6B88"/>
<path d="M243.633 142.602C243.633 142.602 230.788 110.405 241.132 67.2758L249.78 69.6577C249.78 69.6577 245.329 109.043 261.057 135.414L243.633 142.602Z" fill="#EDA977"/>
<path d="M337.239 144.516C337.239 144.516 342.538 110.234 322.74 70.5506L314.855 74.8465C314.855 74.8465 328.039 112.191 318.67 141.454L337.239 144.516Z" fill="#EDA977"/>
<path d="M249.525 72.6774C249.525 72.6774 254.781 61.8314 255.841 58.6839C256.901 55.5365 260.25 53.2822 258.724 52.0913C257.198 50.9003 252.958 55.6641 252.958 55.6641C252.958 55.6641 251.983 48.9863 251.983 46.9022C251.983 44.8181 251.051 41.0326 249.525 40.905C247.998 40.7774 248.677 50.8578 248.677 50.8578C248.677 50.8578 247.278 42.4362 245.879 42.0109C244.48 41.5855 244.692 52.6017 244.692 52.6017C244.692 52.6017 243.632 43.5421 242.911 42.9041C242.19 42.2661 241.385 43.1593 240.961 46.4343C240.537 49.7519 241.003 53.1971 241.003 53.1971C241.003 53.1971 239.774 46.8597 239.392 46.1791C238.969 45.4561 237.909 44.8181 237.824 49.7519C237.739 54.7283 239.181 65.1915 242.106 70.253L249.525 72.6774Z" fill="#EDA977"/>
<path d="M315.66 75.8675C315.66 75.8675 308.199 70.4232 305.697 68.254C303.196 66.0848 299.169 65.8722 299.847 64.0432C300.525 62.2568 306.63 64.1708 306.63 64.1708C306.63 64.1708 304.087 57.9184 303.027 56.0895C301.967 54.3031 300.865 50.5602 302.094 49.667C303.366 48.7738 307.902 57.7908 307.902 57.7908C307.902 57.7908 304.807 49.7946 305.782 48.7312C306.757 47.6679 312.184 57.2379 312.184 57.2379C312.184 57.2379 308.495 48.9014 308.75 47.9656C309.047 47.0724 310.191 47.3702 312.226 50.0072C314.261 52.6443 315.66 55.8768 315.66 55.8768C315.66 55.8768 313.498 49.7946 313.498 48.9864C313.498 48.1783 314.091 47.0299 316.677 51.2407C319.263 55.4515 323.164 65.3618 323.164 71.2314L315.66 75.8675Z" fill="#EDA977"/>
<path d="M254.825 261.27C254.825 261.27 258.725 195.599 256.902 182.499C255.715 174.205 239.987 141.709 239.987 141.709L266.102 128.609C266.102 128.609 276.361 159.913 291.199 157.829C306.036 155.788 314.727 150.641 319.348 132.65L348.515 148.557C348.515 148.557 333.72 169.909 330.582 193.812C326.385 226.01 329.056 265.864 329.056 265.864C329.056 265.864 275.81 275.136 254.825 261.27Z" fill="#94C1E8"/>
<path d="M309.683 126.355C309.683 126.355 310.87 124.1 312.057 124.866C315.067 126.823 312.524 129.885 310.701 130.693L309.683 126.355Z" fill="#D6864B"/>
<path d="M309.565 118.762C309.522 118.549 309.522 118.337 309.522 118.082C308.632 108.171 299.56 100.983 289.597 102.557C281.288 103.875 275.056 111.149 275.056 119.613C275.056 122.76 275.862 125.652 277.261 128.162C279.211 132.032 280.949 135.393 282.687 138.115C285.57 142.623 286.842 148.025 286.418 153.384L286.079 157.595C297.143 162.274 301.51 156.574 301.51 156.574L301.001 148.961C300.916 147.982 301.637 147.089 302.612 146.919C315.712 144.835 310.116 124.717 309.565 118.762Z" fill="#EDA977"/>
<path d="M292.725 129.204C292.64 128.311 291.877 127.673 290.987 127.758C290.096 127.843 289.46 128.609 289.545 129.502C289.63 130.395 290.393 131.033 291.283 130.948C292.131 130.863 292.81 130.055 292.725 129.204Z" fill="#050521"/>
<path d="M306.671 125.036C306.587 124.143 305.823 123.505 304.933 123.59C304.043 123.675 303.407 124.44 303.492 125.334C303.577 126.227 304.34 126.865 305.23 126.78C306.12 126.695 306.756 125.929 306.671 125.036Z" fill="#050521"/>
<path d="M286.748 127.205C286.579 127.205 286.409 127.205 286.239 127.12C285.773 126.907 285.561 126.312 285.816 125.844C286.494 124.44 288.783 122.144 292.514 123.59C292.98 123.76 293.234 124.313 293.065 124.823C292.895 125.291 292.344 125.546 291.835 125.376C288.741 124.185 287.554 126.567 287.511 126.695C287.384 126.992 287.087 127.163 286.748 127.205Z" fill="#050521"/>
<path d="M301.541 123.334C301.372 123.334 301.202 123.334 301.033 123.249C300.566 123.037 300.354 122.441 300.609 121.973C301.287 120.57 303.576 118.273 307.307 119.719C307.773 119.889 308.028 120.442 307.858 120.953C307.688 121.42 307.137 121.676 306.629 121.505C303.534 120.315 302.347 122.696 302.304 122.824C302.135 123.079 301.838 123.292 301.541 123.334Z" fill="#050521"/>
<path d="M273.733 122.314L279.456 133.585L282.508 132.649L283.017 117.422L273.733 122.314Z" fill="#050521"/>
<path d="M282.975 132.224C282.636 131.671 282.127 131.331 281.534 131.118C280.304 130.735 278.142 130.395 276.87 131.969C274.963 134.266 279.711 139.497 283.653 136.35C283.611 136.392 284.713 135.074 282.975 132.224Z" fill="#EDA977"/>
<path d="M301.458 134.266C299.974 135.159 298.533 134.436 298.533 134.436C298.406 134.351 298.321 134.181 298.406 134.053C298.491 133.926 298.66 133.841 298.787 133.926C298.872 133.968 300.441 134.734 301.84 133.203C302.052 132.947 302.179 132.777 302.179 132.607C302.179 132.394 301.924 132.182 301.585 131.884C300.78 131.161 299.466 129.97 298.787 126.993C298.745 126.823 298.83 126.695 298.999 126.652C299.169 126.61 299.296 126.695 299.338 126.865C299.932 129.63 301.161 130.736 301.967 131.459C302.391 131.842 302.73 132.139 302.772 132.565C302.772 132.862 302.645 133.16 302.306 133.543C302.009 133.883 301.755 134.096 301.458 134.266Z" fill="#EA6868"/>
<path d="M295.268 137.754C295.268 137.754 301.882 137.966 305.824 135.67C305.824 135.67 305.273 140.816 301.5 141.539C297.77 142.305 295.268 137.754 295.268 137.754Z" fill="white"/>
<path d="M306.248 112.063C306.248 112.063 308.877 113.594 310.445 124.015C310.445 124.015 310.233 112.276 308.834 111.085C307.393 109.894 306.248 112.063 306.248 112.063Z" fill="#050521"/>
<path d="M272.206 118.613C272.376 108.15 282.508 103.769 284.839 101.855C286.662 100.366 287.425 95.6878 289.757 95.9855C290.562 97.6868 289.418 99.4307 287.764 101.004C291.495 99.218 295.48 98.0271 299.592 97.4316C300.652 97.304 301.754 97.1764 302.772 97.4316C303.789 97.6868 304.764 98.4099 305.061 99.4307C305.443 100.792 304.425 102.366 303.026 102.493C305.231 103.004 307.435 103.556 309.385 104.62C311.378 105.683 313.116 107.384 313.752 109.554C312.268 109.851 310.742 109.809 309.3 109.341C310.36 109.979 311.378 111.085 311.123 112.318C310.954 113.212 310.106 113.892 309.216 114.105C308.325 114.36 307.393 114.232 306.502 114.147C301.924 113.637 297.303 113.126 292.725 112.574C294.759 114.062 296.455 116.061 297.557 118.358C293.53 118.698 289.46 117.805 285.942 115.849C285.942 117.763 285.687 119.719 285.178 121.548C285.094 121.846 285.009 122.143 284.755 122.356C283.991 122.994 283.016 121.846 282.126 121.42C281.024 120.867 279.667 121.463 278.735 122.271C277.081 123.675 276.106 125.376 274.283 123.462C273.054 122.314 272.206 120.357 272.206 118.613Z" fill="#050521"/>
<path d="M292.52 133.2C292.934 133.107 293.348 133.015 293.739 132.82C295.119 132.186 296.258 130.955 296.706 129.551C297.258 128.124 297.119 126.525 296.486 125.145C295.196 122.281 291.652 121.005 288.811 122.398C287.431 123.031 286.292 124.263 285.844 125.666C285.292 127.093 285.431 128.692 286.064 130.073C287.135 132.442 289.931 133.776 292.52 133.2ZM290.238 122.95C292.412 122.466 294.598 123.5 295.6 125.559C296.164 126.629 296.13 127.941 295.739 129.114C295.349 130.288 294.475 131.243 293.278 131.727C290.909 132.798 288.078 131.798 287.007 129.428C286.443 128.358 286.477 127.047 286.868 125.873C287.259 124.699 288.133 123.744 289.329 123.261C289.513 123.111 289.927 123.019 290.238 122.95Z" fill="#3D6BC1"/>
<path d="M285.811 127.956C286.018 127.909 286.202 127.76 286.26 127.53C286.294 127.196 286.144 127.012 285.811 126.978L277.86 125.922C277.527 125.888 277.343 126.037 277.308 126.371C277.274 126.705 277.424 126.889 277.757 126.923L285.708 127.979L285.811 127.956Z" fill="#3D6BC1"/>
<path d="M305.392 130.008C305.806 129.916 306.221 129.824 306.612 129.628C307.992 128.995 309.131 127.763 309.579 126.36C310.13 124.933 309.992 123.334 309.358 121.953C308.069 119.089 304.525 117.813 301.684 119.206C300.303 119.84 299.165 121.071 298.717 122.475C298.165 123.902 298.304 125.501 298.937 126.881C300.134 129.331 302.804 130.584 305.392 130.008ZM303.11 119.758C305.285 119.274 307.471 120.309 308.473 122.368C309.037 123.438 309.003 124.749 308.612 125.923C308.221 127.096 307.347 128.052 306.151 128.535C303.781 129.606 300.951 128.606 299.88 126.237C299.316 125.167 299.35 123.855 299.741 122.682C300.131 121.508 301.005 120.553 302.202 120.069C302.512 120 302.8 119.827 303.11 119.758Z" fill="#3D6BC1"/>
<path d="M296.636 126.306L298.868 125.592C299.178 125.523 299.316 125.166 299.144 124.879C299.075 124.568 298.718 124.43 298.43 124.603L296.302 125.294C295.992 125.363 295.854 125.72 296.026 126.008C296.072 126.215 296.429 126.353 296.636 126.306Z" fill="#3D6BC1"/>
<path d="M727.971 11.64C632.53 -1.75489 426.71 -1.15115 366.953 108.423C292.257 245.391 315.268 339.572 108.061 315.313C-57.7041 295.906 -158.29 448.961 -187.863 527.914" stroke="#94C6EC" stroke-width="1.5" stroke-dasharray="4 4"/>
<path d="M602.274 296.348C604.617 306.694 608.319 310.074 616.553 313.717C614.539 318.881 613.445 331.424 621.786 335.047C636.614 341.506 644.88 330.835 646.221 320.578C656.418 324.011 662.077 314.276 663.863 305.167C665.649 296.058 659.049 287.209 649.296 287.966C660.908 269.026 650.032 248.913 622.677 250.202C624.837 242.873 610.686 232.318 594.848 229.64C578.445 226.863 560.255 232.241 559.345 241.891C557.083 236.262 537.645 233.535 526.574 240.055C512.589 248.308 507.701 268.204 520.406 280.891C501.784 282.082 500.727 303.963 509.349 314.853C517.972 325.743 540.365 326.654 545.791 315.436C548.993 308.804 548.991 307.411 548.788 299.101C563.077 306.87 571.199 298.353 574.171 286.976C582.897 297.936 589.207 299.864 602.274 296.348Z" fill="#BCE194"/>
<path d="M500.169 188.024C500.169 188.024 511.044 156.418 488.529 158.143C474.03 159.226 482.085 134.68 463.518 135.281C434.923 136.244 454.537 139.573 430.291 155.737C417.926 163.999 414.181 188.986 436.131 188.986C454.094 188.986 454.376 219.228 477.695 209.081C492.356 202.744 500.169 188.024 500.169 188.024Z" fill="#0C0C20"/>
<path d="M384.721 343.024C384.721 343.024 363.133 335.323 359.952 336.727C358.139 337.529 345.775 361.955 348.916 363.96C352.058 365.966 364.06 348.278 370.907 349.2C377.753 350.123 383.432 353.051 383.432 353.051L384.721 343.024Z" fill="#AF7E57"/>
<path d="M368.853 338.01C357.293 348.559 357.938 353.773 359.509 356.019C354.877 360.391 350.608 365.003 348.916 363.92C345.775 361.915 358.139 337.489 359.952 336.686C361.12 336.205 364.744 336.927 368.853 338.01Z" fill="#F96058"/>
<path d="M457.218 428.093C457.218 428.093 446.424 449.03 447.431 452.439C447.995 454.404 471.637 470.408 474.094 467.44C476.591 464.512 459.917 449.872 461.729 443.014C463.582 436.155 467.368 430.781 467.368 430.781L457.218 428.093Z" fill="#AF7E57"/>
<path d="M449.927 443.535C459.311 456.771 464.749 456.851 467.286 455.567C471.193 460.902 475.422 465.875 474.093 467.48C471.596 470.408 447.994 454.444 447.43 452.479C447.027 451.196 448.236 447.626 449.927 443.535Z" fill="#F96058"/>
<path d="M452.465 257.953C452.465 257.953 443.805 275.521 440.865 285.949C437.925 296.337 435.025 341.299 431.682 345.47C428.34 349.641 381.096 340.898 381.096 340.898L377.351 352.128C377.351 352.128 426.245 380.003 441.711 375.03C457.177 370.016 475.341 311.779 475.341 311.779C475.341 311.779 478.483 351.647 476.791 364.16C475.14 376.634 451.981 434.711 451.981 434.711L464.547 440.807C464.547 440.807 503.574 404.59 508.569 348.438C513.603 292.246 490.283 257.833 490.283 257.833L452.465 257.953Z" fill="#8EBCC9"/>
<path d="M442.692 213.151C442.692 213.151 435.765 248.447 397.866 262.765L396.537 255.746C396.537 255.746 421.145 236.414 428.193 210.063L442.692 213.151Z" fill="#AF7E57"/>
<path d="M397.89 256.67C397.89 256.67 391.365 254.224 388.787 253.863C386.21 253.502 384.035 251.256 383.31 252.579C382.625 253.903 386.854 256.47 386.854 256.47C386.854 256.47 381.86 258.154 380.289 258.475C378.678 258.756 375.94 259.999 376.06 261.202C376.181 262.406 383.793 260.44 383.793 260.44C383.793 260.44 377.551 262.686 377.389 263.809C377.269 264.932 385.646 263.208 385.646 263.208C385.646 263.208 378.839 265.293 378.477 265.935C378.074 266.577 378.88 267.098 381.457 266.938C384.035 266.777 386.653 265.975 386.653 265.975C386.653 265.975 381.981 267.78 381.498 268.221C381.014 268.622 380.652 269.545 384.478 268.903C388.304 268.261 396.279 265.574 399.742 262.566L397.89 256.67Z" fill="#AF7E57"/>
<path d="M541.796 198.633C541.796 198.633 541.916 191.855 542.521 189.409C543.125 186.962 541.876 184.194 543.326 184.034C544.776 183.874 545.582 188.647 545.582 188.647C545.582 188.647 548.924 184.796 549.77 183.432C550.616 182.069 552.751 180.063 553.758 180.585C554.805 181.106 550.294 187.283 550.294 187.283C550.294 187.283 554.603 182.47 555.65 182.751C556.698 183.031 552.146 189.97 552.146 189.97C552.146 189.97 556.496 184.596 557.181 184.475C557.906 184.355 558.067 185.237 557.02 187.523C555.932 189.81 554.281 191.855 554.281 191.855C554.281 191.855 557.624 188.286 558.148 188.005C558.711 187.724 559.678 187.724 557.705 190.933C555.771 194.141 550.415 200.358 546.468 202.404L541.796 198.633Z" fill="#AF7E57"/>
<path d="M506.756 209.462C506.756 209.462 513.361 218.246 518.839 218.246C524.316 218.246 543.004 196.026 543.004 196.026L546.468 202.443C546.468 202.443 531.767 236.014 517.469 236.295C503.212 236.576 492.498 220.693 492.78 219.891C493.062 219.088 502.124 209.462 502.124 209.462H506.756Z" fill="#AF7E57"/>
<path d="M491.129 253.783V259.117C491.129 259.117 481.262 269.986 451.377 260.16L451.055 253.783L477.275 252.138L491.129 253.783Z" fill="#060633"/>
<path d="M480.979 189.488C480.979 189.488 491.572 189.087 496.928 192.777C500.754 195.425 509.253 210.305 509.253 210.305L499.506 218.527C499.506 218.527 501.842 227.511 492.78 232.003L491.129 253.742C491.129 253.742 474.092 263.569 451.054 253.742C451.054 253.742 448.879 217.524 446.423 220.853C444.489 223.46 440.341 229.757 440.341 229.757L424.674 212.751C424.674 212.751 440.381 192.978 445.98 190.451C454.961 186.36 466.48 188.526 466.48 188.526L480.979 189.488Z" fill="#F86867"/>
<path d="M478.907 155.436C478.907 155.436 479.632 152.989 480.961 153.511C484.344 154.794 482.21 158.484 480.599 159.647L478.907 155.436Z" fill="#AF7E57"/>
<path d="M454.217 135.863C446.041 138.911 441.329 147.735 443.423 156.198C444.108 158.965 445.437 161.412 447.169 163.417C451.237 168.511 454.539 172.602 457.922 175.289C461.346 178.017 463.722 181.867 464.366 186.159L465.051 190.53C476.812 195.384 479.832 189.087 479.832 189.087L476.087 176.653C486.196 172.241 478.986 153.39 477.255 147.695C477.214 147.494 477.134 147.254 477.094 147.053C474.153 137.547 463.762 132.293 454.217 135.863Z" fill="#AF7E57"/>
<path d="M458.004 153.029C456.111 157.361 454.017 161.693 453.01 166.305C452.889 166.827 452.164 170.597 452.768 170.837C449.425 169.594 446.767 167.067 444.391 164.46C440.243 159.928 439.075 153.35 440.686 147.494C442.297 141.719 446.646 137.668 452.164 135.502C458.085 133.176 465.294 133.216 470.53 137.146C475.443 140.836 477.417 146.772 479.511 152.267C477.175 146.091 467.227 143.965 461.468 143.283C461.629 143.323 459.333 149.861 459.212 150.182C458.81 151.104 458.407 152.067 458.004 153.029Z" fill="#0C0C20"/>
<path d="M453.654 166.546C453.211 166.105 452.647 165.824 452.003 165.744C450.714 165.623 448.539 165.744 447.532 167.549C446.082 170.196 451.842 174.367 455.104 170.476C455.144 170.476 455.95 168.992 453.654 166.546Z" fill="#AF7E57"/>
<path d="M476.167 156.398C476.006 155.596 475.2 155.035 474.395 155.195C473.589 155.356 473.025 156.158 473.186 156.96C473.348 157.762 474.153 158.324 474.959 158.163C475.804 158.043 476.368 157.241 476.167 156.398Z" fill="#060633"/>
<path d="M462.917 162.054C462.756 161.252 461.951 160.69 461.145 160.85C460.339 161.011 459.776 161.813 459.937 162.615C460.098 163.417 460.903 163.979 461.709 163.818C462.555 163.698 463.078 162.896 462.917 162.054Z" fill="#060633"/>
<path d="M476.57 167.107C476.57 167.107 474.355 166.064 473.63 166.425C472.905 166.786 472.704 167.789 472.704 167.789C472.704 167.789 472.059 166.987 471.133 167.147C470.207 167.348 468.757 170.236 468.757 170.236C468.757 170.236 472.261 173.725 474.959 172.602C477.698 171.479 476.611 167.268 476.611 167.268L476.57 167.107Z" fill="#FA7267"/>
<path d="M457.922 161.212C457.761 161.252 457.559 161.252 457.398 161.131C457.116 160.931 457.036 160.57 457.197 160.249C457.237 160.169 458.647 158.083 461.345 157.361C461.668 157.281 462.03 157.482 462.111 157.802C462.191 158.123 461.99 158.484 461.668 158.564C459.372 159.166 458.244 160.891 458.244 160.931C458.164 161.091 458.043 161.171 457.922 161.212Z" fill="#060633"/>
<path d="M471.414 154.233C471.253 154.233 471.052 154.193 470.931 154.032C470.689 153.792 470.689 153.391 470.971 153.15C471.052 153.07 472.864 151.385 475.684 151.345C476.046 151.345 476.328 151.626 476.328 151.947C476.328 152.308 476.046 152.588 475.724 152.588C473.348 152.629 471.857 154.032 471.817 154.072C471.696 154.193 471.535 154.233 471.414 154.233Z" fill="#060633"/>
<path d="M471.133 165.623C472.784 164.861 472.946 163.377 472.784 162.615C472.744 162.495 472.664 162.375 472.543 162.294C470.448 160.891 469.764 158.083 469.764 158.043C469.683 157.762 469.401 157.562 469.119 157.642C468.837 157.722 468.636 158.003 468.717 158.284C468.757 158.404 469.442 161.332 471.737 163.016C471.778 163.458 471.616 164.46 469.965 164.861C469.683 164.942 469.522 165.222 469.562 165.503C469.643 165.784 469.925 165.944 470.207 165.904C470.569 165.864 470.892 165.744 471.133 165.623Z" fill="#7C533E"/>
<path d="M476.569 167.108L468.716 170.236C468.716 170.236 472.139 171.68 474.274 170.958C476.448 170.276 476.569 167.108 476.569 167.108Z" fill="#FAFAFC"/>
<path d="M464.911 229.035C457.178 229.035 453.956 221.335 453.956 221.254C453.916 221.094 453.956 220.933 454.117 220.893C454.278 220.853 454.439 220.893 454.479 221.054C454.52 221.134 457.581 228.474 464.911 228.474C472.281 228.474 475.101 223.139 475.141 223.099C475.221 222.979 475.382 222.899 475.544 222.979C475.664 223.059 475.745 223.22 475.664 223.38C475.624 223.42 472.603 229.035 464.911 229.035Z" fill="#060633"/>
<path d="M499.508 218.848C499.347 218.848 499.226 218.728 499.226 218.607C499.226 218.567 498.541 213.434 494.554 209.663C494.433 209.543 494.433 209.383 494.554 209.262C494.675 209.142 494.836 209.142 494.957 209.262C499.105 213.153 499.749 218.327 499.79 218.527C499.83 218.648 499.709 218.808 499.508 218.848C499.548 218.848 499.508 218.848 499.508 218.848Z" fill="#7C9AF2"/>
<path d="M477.035 265.694C474.256 265.694 472 263.448 472 260.681C472 257.913 474.256 255.667 477.035 255.667C479.814 255.667 482.069 257.913 482.069 260.681C482.069 263.448 479.814 265.694 477.035 265.694ZM477.035 257.953C475.504 257.953 474.296 259.197 474.296 260.681C474.296 262.205 475.544 263.408 477.035 263.408C478.565 263.408 479.773 262.165 479.773 260.681C479.773 259.157 478.565 257.953 477.035 257.953Z" fill="#BDD1F9"/>
<defs>
<linearGradient id="paint0_linear_2087_21746" x1="282.442" y1="283.32" x2="282.505" y2="68.3626" gradientUnits="userSpaceOnUse">
<stop stop-color="#DDF0F7"/>
<stop offset="1" stop-color="#037EC0"/>
</linearGradient>
<clipPath id="clip0_2087_21746">
<rect width="260.87" height="79.6039" fill="white" transform="translate(115.349 69.6763)"/>
</clipPath>
</defs>
</svg>
