<svg width="41" height="40" viewBox="0 0 41 40" fill="none" xmlns="http://www.w3.org/2000/svg">
<path d="M21.8872 25.7577C23.2179 24.27 24.5486 22.7934 25.8794 21.3057C26.1145 21.0438 26.3797 20.9156 26.7098 21.0159C27.2802 21.1886 27.4903 21.952 27.1101 22.4535C27.075 22.5036 27.035 22.5426 26.995 22.5872C25.184 24.6043 23.378 26.6158 21.567 28.6328C21.1268 29.1232 20.6915 29.1232 20.2513 28.6272C18.4353 26.6046 16.6143 24.5764 14.7982 22.5538C14.5581 22.2863 14.438 21.991 14.5331 21.6121C14.6882 20.9881 15.3686 20.754 15.8138 21.1664C15.8688 21.2165 15.9139 21.2722 15.9639 21.3279C17.2846 22.799 18.6104 24.2755 19.9311 25.7465C19.9811 25.8023 20.0612 25.8691 20.1212 25.897C20.1212 25.819 20.1212 25.7465 20.1212 25.6685C20.1212 20.598 20.1212 19.1493 20.1212 14.0788C20.1212 13.9451 20.1162 13.8113 20.1412 13.6832C20.2213 13.2653 20.6015 12.9644 20.9767 13.0034C21.3719 13.048 21.6771 13.3879 21.6971 13.8336C21.7021 13.9228 21.7021 14.0119 21.7021 14.1067C21.7021 19.1549 21.7021 20.5869 21.7021 25.6351C21.7021 25.7187 21.7021 25.858 21.7021 25.9416C21.7321 25.9304 21.8371 25.8078 21.8872 25.7577Z" fill="#037EC0"/>
<circle cx="20.5" cy="20" r="19.25" transform="rotate(90 20.5 20)" stroke="#037EC0" stroke-width="1.5"/>
</svg>
