<svg width="111" height="53" viewBox="0 0 111 53" fill="none" xmlns="http://www.w3.org/2000/svg">
<path d="M109.86 13.5829C109.676 13.5829 109.489 13.6073 109.177 13.6439L99.9597 14.5766C99.6925 14.6011 99.5688 14.6825 99.4731 14.7884C99.3694 14.9065 99.3215 15.0613 99.3215 15.2731V15.884C99.3215 16.1202 99.3694 16.2261 99.4492 16.3198C99.5529 16.4379 99.7044 16.4949 99.9119 16.4949H109.86C110.103 16.4949 110.286 16.4257 110.426 16.3076C110.577 16.165 110.645 15.9777 110.645 15.6926V14.597C110.645 14.1734 110.566 13.9616 110.426 13.8069C110.298 13.6643 110.091 13.5829 109.86 13.5829Z" fill="white"/>
<path d="M97.1156 31.0555C97.2552 30.8803 97.3469 30.6563 97.3469 30.3468V14.9066C97.3469 14.6012 97.2552 14.3772 97.1156 14.198C96.9441 13.9862 96.7008 13.8558 96.3418 13.8558H94.9657C94.6067 13.8558 94.3634 13.9862 94.1919 14.198C94.0523 14.3731 93.9606 14.5971 93.9606 14.9066V30.3509C93.9606 30.6563 94.0523 30.8803 94.1919 31.0596C94.3634 31.2713 94.6067 31.4017 94.9657 31.4017H96.3418C96.7008 31.3976 96.9441 31.2673 97.1156 31.0555Z" fill="white"/>
<path d="M59.6266 31.0106C59.7861 30.8111 59.8818 30.5871 59.8818 30.1961V16.495H84.0171C84.2604 16.495 84.4439 16.4258 84.5835 16.3076C84.7351 16.1651 84.8029 15.9777 84.8029 15.6926V14.6541C84.8029 14.369 84.7351 14.1816 84.5835 14.0391C84.4439 13.921 84.2604 13.8517 84.0171 13.8517H57.6761C57.2374 13.8517 56.9621 14.0065 56.7627 14.2427C56.6032 14.4423 56.5074 14.6663 56.5074 15.0573V25.7689H56.4476C56.4476 25.7689 50.708 15.3179 50.4287 14.8333C50.2333 14.4912 50.0139 14.2549 49.7228 14.0798C49.4356 13.9128 49.1324 13.8069 48.5541 13.8069H46.6675C46.2287 13.8069 45.9495 13.9617 45.7541 14.1979C45.5945 14.3975 45.4988 14.6215 45.4988 15.0125V30.1961C45.4988 30.5871 45.5905 30.8111 45.7541 31.0106C45.9495 31.2469 46.2287 31.4016 46.6675 31.4016H47.7404C48.1791 31.4016 48.4584 31.2469 48.6538 31.0106C48.8173 30.8111 48.9091 30.5871 48.9091 30.1961V19.2238H48.9689C48.9689 19.2238 54.9319 30.0087 55.1712 30.4079C55.5063 30.974 56.0727 31.3976 56.8824 31.3976H58.7172C59.1559 31.3976 59.4311 31.2428 59.6266 31.0106Z" fill="white"/>
<path d="M73.2235 25.724C73.419 25.5367 73.5107 25.2638 73.5107 24.7547C73.5107 23.2111 73.036 21.6064 72.0429 20.3764C71.0258 19.1382 69.4782 18.2992 67.2964 18.2992C63.2878 18.2992 61.0342 21.4964 61.0342 24.8728C61.0342 28.4732 63.4473 31.6337 67.3203 31.6337C69.2508 31.6337 71.1454 30.8884 72.2303 29.581C72.705 29.0149 73.0839 28.2248 73.0839 27.7401C73.0839 27.5772 73.048 27.4346 72.9563 27.3287C72.8645 27.2106 72.7249 27.1414 72.4816 27.1414H70.6229C70.252 27.1414 70.0007 27.2839 69.8132 27.565C69.2708 28.3795 68.485 28.8031 67.3283 28.8031C65.5972 28.8031 64.4764 27.4591 64.3926 25.9847H72.4338C72.7967 25.9847 73.052 25.8992 73.2235 25.724ZM64.4205 23.4717C64.5721 22.0218 65.657 20.9344 67.3083 20.9344C68.9237 20.9344 70.0446 22.0177 70.1961 23.4717H64.4205Z" fill="white"/>
<path d="M110.425 27.3287C110.334 27.2106 110.194 27.1414 109.951 27.1414H108.092C107.721 27.1414 107.47 27.2839 107.282 27.565C106.74 28.3795 105.954 28.8031 104.797 28.8031C103.062 28.8031 101.945 27.4591 101.862 25.9847H109.927C110.286 25.9847 110.537 25.9032 110.713 25.724C110.908 25.5367 111 25.2638 111 24.7547C111 23.2111 110.525 21.6064 109.532 20.3764C108.515 19.1382 106.943 18.2992 104.761 18.2992C100.753 18.2992 98.4993 21.4964 98.4993 24.8728C98.4993 28.4691 100.912 31.6337 104.785 31.6337C106.716 31.6337 108.61 30.8884 109.695 29.581C110.17 29.0149 110.549 28.2248 110.549 27.7401C110.553 27.5772 110.517 27.4346 110.425 27.3287ZM104.773 20.9344C106.389 20.9344 107.51 22.0218 107.661 23.4717H101.886C102.037 22.0177 103.122 20.9344 104.773 20.9344Z" fill="white"/>
<path d="M81.9947 23.8588L79.3742 23.1746C78.2893 22.8895 77.7787 22.6899 77.7787 22.0057C77.7787 21.3459 78.3571 20.8123 79.6973 20.8123C80.483 20.8123 81.201 20.9915 81.6597 21.4843C82.0426 21.8957 81.9708 22.1115 82.27 22.2745C82.4534 22.3681 82.6648 22.3681 82.9879 22.3681H84.2922C84.4996 22.3681 84.6512 22.3315 84.7669 22.2012C84.8586 22.0953 84.9184 21.9283 84.9184 21.6595C84.9184 21.0445 84.5275 20.2543 83.8335 19.6515C82.9081 18.837 81.4523 18.2953 79.6973 18.2953C76.5303 18.2953 74.4522 19.8308 74.4522 22.2826C74.4522 23.1542 74.7633 23.8629 75.2739 24.4168C75.8642 25.0644 76.7058 25.5124 77.9303 25.8341L80.5748 26.5184C81.3047 26.7057 81.9509 26.9338 81.9509 27.5814C81.9509 28.5833 80.9098 28.9254 79.801 28.9254C79.2585 28.9254 78.6921 28.8195 78.2295 28.5833C77.9064 28.4163 77.6272 28.1842 77.4317 27.8624C77.2602 27.5895 77.2004 27.39 76.9371 27.2352C76.7776 27.1415 76.5782 27.1293 76.3149 27.1293H74.883C74.5719 27.1293 74.4203 27.223 74.3166 27.3533C74.2129 27.4836 74.177 27.671 74.177 27.8624C74.177 28.3349 74.3405 28.9254 74.7195 29.4549C75.597 30.6564 77.4357 31.6257 79.781 31.6257C82.0905 31.6257 85.2934 30.6482 85.2934 27.4836C85.2934 26.6691 85.062 25.9726 84.6352 25.4065C84.0848 24.6978 83.311 24.2009 81.9947 23.8588Z" fill="white"/>
<path d="M86.8927 27.0559C86.8927 28.567 87.2955 29.5078 88.0494 30.2653C88.7434 30.9618 89.6448 31.3976 91.2163 31.3976H92.1975C92.4408 31.3976 92.6243 31.3284 92.7639 31.2102C92.9155 31.0677 93.0072 30.8803 93.0072 30.5952V29.5689C93.0072 29.2838 92.9155 29.0964 92.7639 28.9539C92.6243 28.8358 92.4408 28.7665 92.1975 28.7665H92.0579C91.4357 28.7665 91.0049 28.5995 90.7178 28.3185C90.3707 27.9886 90.1992 27.4795 90.1992 26.8197V21.1707H92.3012C92.5446 21.1707 92.728 21.1014 92.8676 20.9833C93.0192 20.8408 93.087 20.6534 93.087 20.3683V19.5538C93.087 19.2687 93.0192 19.0813 92.8676 18.9388C92.728 18.8206 92.5446 18.7514 92.3012 18.7514H90.2112V14.9066C90.2112 14.6012 90.1195 14.3772 89.9799 14.198C89.8083 13.9862 89.565 13.8558 89.2061 13.8558H87.9018C87.5428 13.8558 87.2995 13.9862 87.128 14.198C86.9884 14.3731 86.8966 14.5971 86.8966 14.9066V18.7514H86.2505C86.0072 18.7514 85.8237 18.8206 85.6841 18.9388C85.5325 19.0813 85.4647 19.2687 85.4647 19.5538V20.3683C85.4647 20.6534 85.5325 20.8408 85.6841 20.9833C85.8237 21.1014 86.0072 21.1707 86.2505 21.1707H86.8966V27.0559H86.8927Z" fill="white"/>
<path d="M30.4888 25.3128C30.4888 27.7972 30.7161 29.8947 32.3156 31.642C31.5936 32.147 31.0233 32.3792 30.5287 32.3792C28.7816 32.3792 27.5651 29.2756 27.5651 23.761C27.5651 23.3334 27.5651 22.8691 27.605 22.4007C26.54 23.4107 23.1577 29.5037 22.8146 31.9108C22.0528 31.9108 20.1901 31.6786 20.1901 29.3897C20.1901 27.9927 20.912 24.1479 20.912 22.4007C20.912 21.8183 20.8363 21.468 20.6448 21.468C19.7314 21.468 15.9302 29.7359 15.5872 32.4158C13.4573 32.4158 13.0026 32.1063 13.0026 30.8641C13.0026 29.8173 13.3456 22.9057 13.7245 18.3238C15.4356 18.2464 16.2733 18.5559 16.349 19.4479C16.4607 20.3032 16.1217 22.9016 15.7787 26.0459C17.2624 22.5921 19.9229 17.7006 22.2403 17.7006C23.0021 17.7006 23.4967 18.2423 23.4967 20.8041C23.4967 22.2785 23.3052 24.1805 23.042 26.3921C25.5469 21.3906 27.258 19.0609 28.8933 19.0609C29.7309 19.0609 30.5287 19.7981 30.5287 22.0504C30.5287 23.2152 30.4888 24.3027 30.4888 25.3128ZM39.5749 29.4671C39.539 30.7093 38.0911 32.5706 36.5715 32.5706C34.8603 32.5706 33.6079 30.0861 33.6079 25.8178C33.6079 22.9057 34.1783 19.6067 35.0917 17.7821C35.5863 17.8961 37.07 18.3238 37.07 19.566C37.07 20.4579 36.0809 23.256 36.0809 26.555C36.0809 28.4977 36.4239 30.1635 37.3732 30.1635C37.9795 30.1635 38.5498 29.5037 39.2359 28.6118C39.4991 28.8073 39.5749 29.1168 39.5749 29.4671ZM35.4706 14.3242C35.4706 13.2775 36.3082 12.2674 37.3333 12.2674C38.3225 12.2674 38.7014 13.2001 38.7014 13.8966C38.7014 14.8659 37.9795 15.7579 36.9145 15.7579C36.0769 15.7619 35.4706 15.2202 35.4706 14.3242Z" fill="white"/>
<path d="M25.6475 42.7364C21.6628 42.7364 17.742 41.4698 14.4872 39.1035C13.8091 38.6107 13.6536 37.6535 14.1322 36.9652C14.6109 36.2769 15.5522 36.114 16.2263 36.6027C19.2616 38.8102 22.987 39.8855 26.7164 39.6329C29.9791 39.413 33.0584 38.2115 35.6231 36.1669C36.2772 35.6456 37.2225 35.7637 37.733 36.4317C38.2436 37.0996 38.1279 38.0649 37.4738 38.5862C34.4304 41.0136 30.7808 42.431 26.9158 42.6957C26.493 42.7202 26.0702 42.7364 25.6475 42.7364Z" fill="white"/>
<path d="M25.9541 53C11.6429 53 0 41.1154 0 26.502C0 11.8886 11.6429 0 25.9541 0C31.0077 0 35.9098 1.48659 40.1258 4.29686C41.7252 5.35987 43.209 6.61024 44.5412 8.00722C45.0478 8.53669 45.0358 9.38792 44.5173 9.90517C43.9987 10.4224 43.1651 10.4102 42.6586 9.88073C41.458 8.62222 40.1218 7.50219 38.6859 6.54507C34.9006 4.0199 30.4972 2.68401 25.9501 2.68401C13.0867 2.68401 2.62453 13.3671 2.62453 26.502C2.62453 39.637 13.0867 50.3201 25.9501 50.3201C34.1588 50.3201 41.8568 45.8318 46.0449 38.6065C46.4119 37.9671 47.2176 37.7553 47.8438 38.1341C48.47 38.5129 48.6734 39.3356 48.3065 39.971C46.0489 43.8646 42.8341 47.131 39.005 49.4077C35.0602 51.7619 30.545 53 25.9541 53Z" fill="white"/>
</svg>
