<svg width="137" height="72" viewBox="0 0 137 72" fill="none" xmlns="http://www.w3.org/2000/svg">
<path d="M134.427 22.9999C133.764 22.432 132.802 22.0836 131.488 21.9417C129.343 21.7223 127.405 22.1352 125.74 23.1676C124.492 23.9419 123.816 24.7033 122.97 26.2519L122.918 26.368C122.645 27.0778 117.99 33.2205 116.182 35.2466C114.179 37.5049 113.386 37.6985 113.178 37.6985H113.152C113.139 37.6985 113.126 37.6985 113.074 37.634C113.022 37.5566 113.009 37.5049 113.009 37.4533C113.022 37.221 113.087 36.7565 113.295 35.9176C113.295 35.9047 113.295 35.9047 113.295 35.9047L113.308 35.866L115.935 27.5811C116.065 27.1939 116.234 26.6519 116.481 25.9422C116.988 24.5097 117.235 23.5935 117.262 23.0773V22.9999C117.288 22.6643 117.17 22.1869 116.741 21.8255C116.442 21.5803 115.051 20.9996 114.427 20.7931C113.672 20.5608 112.892 20.4189 112.086 20.3673C110.72 20.2898 109.342 20.5092 108.002 21.0254C106.676 21.5416 105.402 22.3288 104.218 23.387C102.476 24.9485 101.396 26.4455 100.226 28.3425C100.187 28.407 100.109 28.5231 100.018 28.6909C99.3935 29.7362 97.729 32.5237 96.3895 33.9948C95.2191 35.2853 93.5545 37.0016 92.6312 37.0016C92.5012 37.0016 92.4232 36.9629 92.3451 36.8726C92.2931 36.8081 92.2281 36.7048 92.2281 36.4855C92.2281 36.2145 92.2671 35.9047 92.3321 35.5563C92.3972 35.2079 92.5012 34.8078 92.6442 34.3691L95.5702 23.929L97.729 23.9677L97.807 23.9548C98.0801 23.8903 98.4572 23.6451 98.5872 23.1547C98.6393 22.9741 98.7433 22.4837 98.7823 22.2643C98.8343 21.9288 98.7563 21.5932 98.5612 21.3351C98.3792 21.0899 98.1061 20.948 97.82 20.9351H97.794C97.6899 20.9351 97.1177 20.9222 96.4545 20.8964L98.3141 14.1342C98.3401 14.031 98.3662 13.9277 98.3922 13.8116C98.4052 13.7083 98.4182 13.5922 98.4182 13.4503C98.4312 13.0502 98.2751 12.7792 98.2231 12.7018C98.1191 12.5082 97.846 12.1985 97.2868 12.1856H97.2478C97.1047 12.1856 96.9877 12.2114 96.9747 12.2114L95.2321 12.5856C94.816 12.6631 94.4779 12.8695 94.2308 13.1922C94.0227 13.4503 93.8406 13.8374 93.6716 14.4052L91.7209 20.7673L89.4712 20.7157H89.4322C89.081 20.7286 88.6519 20.9996 88.4958 21.5803C88.4438 21.7997 88.3658 22.0449 88.2748 22.303C88.0667 22.9353 88.3788 23.5032 88.7949 23.6967L88.925 23.7483L90.5505 23.7871C89.4452 26.1099 86.8443 31.1041 83.9183 33.7109L83.8923 33.7367C81.5645 36.0596 79.4578 37.2468 77.6242 37.2468H77.5722C76.6749 37.2468 76.0117 36.95 75.5045 36.3177C75.0753 35.7757 74.8153 35.0401 74.7242 34.111C77.8063 32.9882 80.3421 31.5429 82.2538 29.8007C84.3865 27.8521 85.4658 25.8389 85.4658 23.8387C85.4658 22.5095 84.9847 21.3868 84.0484 20.5092C83.1641 19.6833 82.0587 19.2574 80.7452 19.2574H80.6802C79.4318 19.2574 78.1314 19.6704 76.8049 20.4705C75.5175 21.2448 74.3471 22.3288 73.3198 23.6838C72.4094 24.884 71.8112 26.1228 71.213 27.3359L71.2 27.3617C71.07 27.6327 70.94 27.8908 70.8099 28.1489C70.5238 28.7296 67.9359 32.7301 66.7265 33.9948C64.5028 36.3435 62.4741 37.5566 60.6925 37.634C59.6782 37.6727 58.8849 37.3888 58.3517 36.7823C57.8055 36.1499 57.5064 35.1821 57.4674 33.8787C57.4284 32.4978 57.6625 30.9364 58.1827 29.2071C58.7029 27.4779 59.3921 25.968 60.2504 24.7291C60.7445 23.9806 61.2517 23.3999 61.7589 23.0257C62.214 22.6772 62.6692 22.4966 63.0853 22.4837H63.1503C63.4754 22.4837 63.6055 22.5998 63.6835 22.6901C63.8396 22.8708 63.9306 23.1934 63.9436 23.6193C63.9566 23.9548 63.8396 24.3291 63.6055 24.7291C63.3584 25.1679 63.0073 25.5421 62.5781 25.826L61.8369 26.3164L62.3701 27.0649C62.6302 27.4391 62.9553 27.7101 63.3064 27.865C63.5925 27.994 63.9436 28.0715 64.3337 28.0715C64.3727 28.0715 64.3988 28.0715 64.4378 28.0715H64.4898C65.5301 28.0328 66.4274 27.594 67.1427 26.781C67.8709 25.9551 68.2351 24.9614 68.196 23.8387C68.157 22.4966 67.6499 21.4255 66.7135 20.6254C65.8162 19.8769 64.6719 19.5155 63.3324 19.5672C61.9539 19.6188 60.5625 20.1092 59.197 21.0125C58.1567 21.6965 57.1553 22.6256 56.193 23.7483L55.9069 24.0968C55.7379 24.3033 55.5688 24.5097 55.4127 24.7291C54.2163 26.3551 53.5141 27.6972 53.124 29.0781C52.8509 30.0588 50.6141 33.298 49.3137 34.7562C47.116 37.221 45.0743 38.5373 43.2407 38.6664C42.3434 38.7309 41.6281 38.4728 41.0819 37.8663C40.6528 37.3888 40.3667 36.7436 40.2236 35.9176C40.2497 35.9047 40.2627 35.8918 40.2887 35.8789C41.6541 35.2079 42.7725 34.5626 43.6178 33.9561L43.7088 33.8916C45.1653 33.0011 46.4267 31.9946 47.4801 30.9235C49.5088 28.8329 50.4841 26.7681 50.367 24.7549C50.289 23.4257 49.7558 22.3417 48.7805 21.5287C47.8442 20.7544 46.6738 20.3931 45.3344 20.4963C44.0859 20.5866 42.7985 21.077 41.5371 21.9546C40.2887 22.8192 39.1833 23.9677 38.234 25.3873C37.2066 26.9229 36.4394 28.4973 35.9452 30.0846C35.4771 31.6074 35.256 33.1044 35.308 34.5497C35.243 34.5755 35.1649 34.6013 35.0999 34.6272C33.4484 35.2466 32.2 35.5434 31.1986 35.5563C30.8735 35.5692 30.5614 35.5434 30.2493 35.4918C29.9892 35.4531 28.5067 35.1563 27.7004 34.8723C27.2193 34.24 26.7251 33.5948 26.244 32.9624C25.1516 31.5171 24.0072 30.0975 22.8628 28.7296C25.3206 28.4328 27.7655 27.8521 30.1583 27.0262C33.0712 26.0067 35.7111 24.613 37.9869 22.8579C40.2887 21.0899 42.1613 18.9606 43.5528 16.4958C44.9702 13.9923 45.6595 11.1145 45.5944 7.95277C45.5554 5.70732 44.7622 3.83612 43.2537 2.36496C41.6411 0.803472 39.0533 -0.0611539 36.1793 0.00337044C33.8255 0.0549899 31.0556 0.867997 28.7668 2.17139C26.6211 3.38445 24.9825 4.93303 23.2009 6.85586C21.4974 8.68835 20.1839 10.8693 18.8055 13.1792L18.5194 13.6567C17.1799 15.8764 15.8925 18.2122 14.7221 20.5996C13.3046 19.5414 11.8221 18.6638 10.3266 17.967C8.55802 17.141 6.64638 16.6248 4.65671 16.4442H4.53967C4.43564 16.4442 4.34461 16.4442 4.25357 16.4442C2.92713 16.47 2.04283 16.8055 1.21055 17.5669C0.39128 18.3283 -0.0248603 19.3736 0.00114844 20.677C0.0141528 21.5029 0.287244 22.3546 0.794414 23.2063C1.28858 24.0193 2.02983 24.7936 3.03117 25.5163C3.99349 26.2132 5.24191 26.8455 6.73741 27.4004C7.71274 27.7618 9.24725 28.2392 11.2109 28.5748C10.0015 31.6332 7.25758 36.7823 5.20289 40.615C2.81009 45.0801 2.68005 45.4027 2.69305 45.8286C2.71906 46.3706 3.1222 46.9384 3.77241 46.9384H3.79842C3.94147 46.9384 4.08452 46.8997 4.22757 46.8352C6.15221 46.0093 8.14188 43.9574 10.1446 40.7312C11.7181 38.2018 12.8755 35.6595 13.4217 34.4465L13.5517 34.1497C14.319 32.4591 15.0862 30.7041 15.8275 28.9361C15.9185 28.9361 16.0095 28.949 16.0875 28.949L16.1916 28.9619C17.1279 29.0264 18.1943 29.1039 19.2346 29.1039C22.2646 33.4786 24.3323 36.4725 25.8538 38.6793L25.8668 38.7051C29.3 43.6864 29.5861 44.0864 30.7175 45.5705C32.1479 47.4288 33.6434 49.0806 35.1649 50.5002C36.7125 51.9326 38.338 53.094 39.9896 53.9328C40.6528 54.2684 42.6034 55.0427 43.2927 55.2491C43.4227 55.2879 43.5528 55.3008 43.6958 55.3008H43.7478C44.9832 55.275 47.194 53.7135 47.285 52.5778C47.324 52.1004 47.0769 51.5713 46.4397 51.4422C45.6855 51.2873 44.9442 51.068 44.242 50.7712C42.5774 50.1001 40.9519 49.1451 39.4174 47.9579C37.8568 46.7448 36.3353 45.3253 34.8919 43.7251C33.4744 42.1636 32.0569 40.486 30.6914 38.7438C31.3027 38.7051 31.9269 38.6277 32.5381 38.5373L32.9542 38.4728C33.8385 38.3567 34.8268 38.1115 35.8932 37.7501C36.2443 38.6922 36.7385 39.5052 37.3757 40.1763C38.6241 41.4925 40.2497 42.0862 42.2133 41.9442C44.5021 41.7765 46.8429 40.6795 49.1446 38.6664C50.315 37.6469 51.4594 36.4209 52.5518 34.9885C52.8249 36.55 53.4751 37.8792 54.4894 38.9374C55.7248 40.2408 57.2724 40.8989 59.093 40.9118C59.21 40.9118 59.3141 40.9118 59.4311 40.9118C61.8369 40.8215 64.3077 39.7246 66.7395 37.6598C67.8319 36.7306 68.9113 35.6208 69.9516 34.3303C70.1597 35.9434 70.7189 37.2985 71.6292 38.3696C72.7866 39.7375 74.3471 40.4473 76.2717 40.4602H76.3628C78.6646 40.4473 81.0443 39.5052 83.4632 37.6469C85.0757 36.408 86.6622 34.782 88.1967 32.8205C88.1057 33.1947 88.0147 33.5431 87.9497 33.8658C87.7286 34.8465 87.6246 35.5563 87.6116 36.0467C87.5855 37.3759 87.9237 38.447 88.6389 39.2213C89.3281 39.9827 90.3035 40.3827 91.5129 40.4085H91.5779C92.9954 40.4214 94.5559 39.6213 96.2204 38.0599C96.9227 37.4017 97.7029 36.5242 98.5612 35.466C98.6783 36.6919 99.0034 37.7372 99.5366 38.5889C100.343 39.8665 101.5 40.5634 102.983 40.6537C104.309 40.7312 105.701 40.0343 107.118 38.5889C107.625 38.0728 108.171 37.4275 108.757 36.6403C108.692 36.9758 108.653 37.2468 108.653 37.492C108.601 38.5889 108.848 39.4794 109.394 40.1246C109.927 40.757 110.694 41.1183 111.683 41.1828C111.722 41.1828 111.761 41.1828 111.8 41.1828C113.984 41.1957 117.405 38.034 122.541 31.2203L122.866 30.7944L123.113 30.446C123.217 30.304 123.322 30.1621 123.413 30.0201C123.842 30.7815 124.752 31.8784 126.222 33.3496C127.626 34.7433 128.133 35.466 128.302 35.8144C128.523 36.2661 128.614 36.7177 128.575 37.2081C128.51 37.9308 128.185 38.4728 127.548 38.9116C126.859 39.389 125.987 39.5697 124.973 39.4665C124.362 39.402 123.894 39.2213 123.556 38.9245C123.23 38.6406 123.217 38.4083 123.23 38.2405C123.244 38.0211 123.322 37.8276 123.439 37.6469C123.543 37.492 123.816 37.2597 123.894 37.1952L123.92 37.1823C124.245 37.0146 124.44 36.679 124.44 36.2919C124.44 35.9176 124.232 35.5821 123.92 35.4273C123.842 35.3885 123.465 35.2079 123.178 35.1175C122.905 35.0401 122.632 34.9756 122.359 34.9498C121.384 34.8465 120.526 35.053 119.823 35.5434C119.069 36.0725 118.627 36.8597 118.536 37.8018C118.471 38.6277 118.666 39.8278 119.992 40.8731C120.929 41.6087 122.19 42.0733 123.751 42.241C124.115 42.2797 124.479 42.2926 124.856 42.2797C125.272 42.2668 125.714 42.2281 126.156 42.1636C127.028 42.0216 127.977 41.7506 128.744 41.428C129.824 40.9634 130.799 40.344 131.28 39.8149L131.371 39.7117C131.813 39.2213 132.321 38.6664 132.594 38.0469C132.854 37.492 133.01 36.6403 133.062 36.0596C133.14 35.1433 132.971 34.2271 132.568 33.3367C132.191 32.5108 131.566 31.6332 130.708 30.7041C130.396 30.3944 129.967 29.9556 129.382 29.3749C127.47 27.5295 127.327 26.6003 127.353 26.2777C127.392 25.7873 127.626 25.4131 128.068 25.1034C128.562 24.7549 129.213 24.6259 129.967 24.7033C130.422 24.7549 130.76 24.884 130.981 25.1034C131.176 25.2969 131.202 25.4518 131.189 25.5808C131.163 25.8389 131.098 26.0841 130.968 26.3164C130.864 26.51 130.63 26.7681 130.539 26.8455C130.175 27.0133 129.941 27.452 130.006 27.8908C130.058 28.265 130.331 28.7167 130.942 28.7425C131.046 28.7554 131.163 28.7554 131.28 28.7425C132.178 28.7167 133.166 28.4199 133.868 27.9553C134.791 27.3488 135.299 26.5616 135.377 25.6325C135.52 24.5613 135.169 23.6451 134.427 22.9999ZM113.009 23.6451C111.162 27.8908 109.368 31.2848 107.651 33.7367C105.506 36.7952 104.361 37.2468 103.867 37.2468C103.854 37.2468 103.841 37.2468 103.815 37.2468C103.594 37.2339 103.477 37.1436 103.36 36.9371C103.191 36.6403 103.126 36.2145 103.152 35.6724C103.204 34.5368 103.568 33.2205 104.218 31.7623C104.894 30.2524 105.87 28.6006 107.105 26.8584C108.028 25.5937 108.913 24.6388 109.732 24.0452C110.421 23.5419 111.045 23.2838 111.605 23.2709H111.657C111.696 23.2709 111.722 23.2709 111.761 23.2709C112.099 23.2967 112.424 23.3741 112.736 23.5032C112.84 23.5419 112.931 23.5935 113.009 23.6451ZM74.9063 31.0783C75.3484 28.678 76.0637 26.6261 77.065 24.9614C78.1314 23.1676 79.1847 22.2514 80.1861 22.2256H80.2381C80.6152 22.2256 80.7713 22.3675 80.8493 22.4708C81.0053 22.6772 81.0834 23.0128 81.0964 23.4515C81.1094 25.1421 80.4331 26.7552 79.1197 28.2521C77.9883 29.5297 76.5839 30.4718 74.9063 31.0783ZM44.294 29.5943C43.2407 30.9364 41.8882 31.9688 40.2497 32.6914C40.5618 30.2653 41.173 28.1747 42.0703 26.4455C43.0456 24.5743 44.0599 23.5806 45.0743 23.5161C45.1003 23.5161 45.1263 23.5161 45.1393 23.5161H45.1783C45.4904 23.5161 45.6335 23.6322 45.7115 23.7225C45.8805 23.9161 45.9846 24.2387 45.9976 24.6775C46.1146 26.3551 45.5294 28.007 44.294 29.5943ZM17.1409 26.5229C17.0629 26.5229 16.9848 26.5229 16.9068 26.51L16.9718 26.3422C17.0239 26.3938 17.0759 26.4584 17.1409 26.5229ZM34.3977 21.3997C32.5121 22.8708 30.3403 24.0581 27.9475 24.9227C25.6588 25.7486 23.279 26.2648 20.8992 26.4584C20.431 25.9293 19.9368 25.4002 19.4297 24.884C18.9875 24.4323 18.5454 23.9806 18.1032 23.529C19.1046 21.1674 20.1449 18.8187 21.2243 16.5474C22.3556 14.1471 23.6041 11.992 24.9305 10.1337C26.244 8.30121 27.7134 6.81715 29.3 5.69442C30.8345 4.61041 32.6031 4.0426 34.5277 3.99098C36.5824 3.93936 38.1039 4.42974 39.0402 5.42342C39.9766 6.41709 40.4707 7.73339 40.4967 9.30779C40.5488 11.8371 40.0156 14.1342 38.9102 16.1345C37.7788 18.1734 36.2703 19.9414 34.3977 21.3997ZM13.4217 23.3354L12.2383 25.9809C10.8988 25.7357 9.6894 25.426 8.64905 25.0388C7.47866 24.613 6.47732 24.1355 5.69706 23.6451C4.94281 23.1805 4.37062 22.703 4.00649 22.2385C3.61636 21.7481 3.55134 21.4513 3.55134 21.3222C3.55134 21.219 3.55134 21.0512 3.88945 20.8318C4.14954 20.6641 4.70873 20.4705 5.84011 20.4447C5.93114 20.4447 6.02217 20.4447 6.1132 20.4447C7.34861 20.4576 8.57102 20.7157 10.0795 21.2964C11.2499 21.761 12.3683 22.5353 13.4217 23.3354Z" fill="#3B3B3B"/>
<path d="M130.916 50.2288C131.215 50.2288 131.449 50.1385 131.631 49.9707C131.826 49.7772 131.904 49.5191 131.918 49.1319L131.931 47.6349C131.931 47.0542 131.839 46.7574 131.657 46.5509C131.501 46.3574 131.241 46.2412 130.942 46.2412C130.708 46.2412 130.474 46.267 130.084 46.3186L118.484 47.5188C118.146 47.5446 117.99 47.6608 117.873 47.8027C117.743 47.9576 117.678 48.1769 117.678 48.4609V49.2997C117.678 49.6223 117.73 49.7643 117.834 49.8933C117.964 50.0611 118.146 50.1385 118.419 50.1385L130.916 50.2288Z" fill="#3B3B3B"/>
<path d="M110.824 69.0449C110.824 69.4707 110.941 69.7675 111.11 70.0127C111.331 70.3095 111.63 70.4902 112.086 70.4902L113.815 70.5031C114.27 70.5031 114.569 70.3353 114.791 70.0385C114.973 69.7933 115.09 69.4965 115.09 69.0707L115.194 47.9583C115.194 47.5324 115.077 47.2356 114.908 46.9904C114.687 46.6936 114.387 46.5129 113.932 46.5129L112.203 46.5C111.748 46.5 111.448 46.6678 111.227 46.9646C111.045 47.2098 110.928 47.5066 110.928 47.9324L110.824 69.0449Z" fill="#3B3B3B"/>
<path d="M102.007 53.1328H101.188C100.889 53.1328 100.655 53.2231 100.473 53.3909C100.278 53.5844 100.2 53.8425 100.187 54.2297V55.3395C100.187 55.7266 100.265 55.9847 100.46 56.1783C100.629 56.3461 100.863 56.4364 101.175 56.4364H101.994L101.955 64.4891C101.942 66.5538 102.45 67.8443 103.386 68.8896C104.257 69.8446 105.389 70.4511 107.365 70.464L108.601 70.4769C108.9 70.4769 109.134 70.3866 109.316 70.2188C109.511 70.0253 109.628 69.7672 109.628 69.38L109.641 67.9734C109.641 67.5862 109.524 67.3281 109.342 67.1346C109.173 66.9668 108.939 66.8765 108.627 66.8765H108.458C107.677 66.8765 107.131 66.6442 106.78 66.257C106.351 65.8054 106.13 65.1085 106.13 64.2052L106.169 56.4751L108.809 56.488C109.108 56.488 109.342 56.3977 109.524 56.2299C109.719 56.0364 109.797 55.7783 109.81 55.3911V54.2813C109.81 53.8942 109.732 53.6361 109.537 53.4425C109.368 53.2747 109.134 53.1844 108.822 53.1844L106.195 53.1715L106.221 47.9192C106.221 47.4933 106.104 47.1965 105.935 46.9513C105.714 46.6545 105.415 46.4738 104.959 46.4738L103.321 46.4609C102.866 46.4609 102.567 46.6287 102.345 46.9255C102.176 47.1707 102.046 47.4675 102.046 47.8934L102.007 53.1328Z" fill="#3B3B3B"/>
<path d="M92.9563 52.4622C88.9769 52.4363 86.35 54.514 86.337 57.8693C86.337 59.0566 86.7142 60.0373 87.3514 60.7987C88.0926 61.6892 89.146 62.3086 90.6805 62.7603L94.0096 63.7152C94.9199 63.9733 95.7392 64.2959 95.7262 65.1735C95.7132 66.5414 94.4128 67.006 93.0083 66.9931C92.3321 66.9931 91.6168 66.8382 91.0316 66.5156C90.6285 66.2833 90.2774 65.9607 90.0303 65.5219C89.8092 65.1477 89.7442 64.8767 89.4061 64.6573C89.198 64.5282 88.9509 64.5153 88.6258 64.5024L86.8182 64.4895C86.4281 64.4895 86.233 64.6186 86.103 64.7863C85.9729 64.967 85.9209 65.2251 85.9209 65.4832C85.9209 66.1284 86.116 66.9414 86.5971 67.6641C87.6895 69.316 90.0043 70.6581 92.9433 70.671C95.8562 70.6839 99.8876 69.3805 99.9006 65.0573C99.9006 63.9475 99.6145 62.9926 99.0813 62.2183C98.4051 61.2246 97.4298 60.5406 95.7782 60.0631L92.4881 59.1082C91.1226 58.7081 90.4854 58.4371 90.4854 57.4951C90.4854 56.5917 91.2267 55.869 92.9042 55.882C93.8926 55.882 94.7899 56.14 95.3751 56.8111C95.8562 57.3789 95.7652 57.6628 96.1423 57.8951C96.3764 58.0242 96.6365 58.0242 97.0396 58.0242L98.6782 58.0371C98.9383 58.0371 99.1333 57.9854 99.2764 57.8177C99.3934 57.6757 99.4715 57.4434 99.4715 57.0821C99.4715 56.2433 98.9903 55.1593 98.119 54.3334C97.0006 53.2364 95.167 52.4751 92.9563 52.4622Z" fill="#3B3B3B"/>
<path d="M84.7766 62.5661C85.0237 62.308 85.1408 61.9337 85.1408 61.2498C85.1538 59.1334 84.5686 56.9395 83.3202 55.249C82.0457 53.5456 80.1081 52.3841 77.3642 52.3712C72.3185 52.3454 69.4705 56.6943 69.4445 61.3014C69.4185 66.2182 72.4355 70.5671 77.2991 70.5929C79.731 70.6058 82.1107 69.6121 83.4892 67.8184C84.0874 67.0441 84.5686 65.973 84.5816 65.3019C84.5816 65.0825 84.5426 64.8761 84.4255 64.7341C84.3085 64.5663 84.1394 64.476 83.8273 64.476L81.4865 64.4631C81.0184 64.4631 80.7063 64.6567 80.4722 65.0438C79.783 66.1536 78.7946 66.7214 77.3381 66.7214C75.1534 66.7085 73.7619 64.8631 73.6709 62.8371L83.7883 62.9016C84.2305 62.9145 84.5556 62.7984 84.7766 62.5661ZM73.7099 59.4173C73.905 57.4299 75.2835 55.9588 77.3642 55.9717C79.3928 55.9846 80.7973 57.4815 80.9794 59.456L73.7099 59.4173Z" fill="#3B3B3B"/>
<path d="M132.269 62.5661C132.516 62.308 132.633 61.9337 132.633 61.2498C132.646 59.1334 132.061 56.9395 130.812 55.249C129.538 53.5456 127.6 52.3841 124.856 52.3712C119.81 52.3454 116.962 56.6943 116.936 61.3014C116.91 66.2182 119.927 70.5671 124.791 70.5929C127.223 70.6058 129.603 69.6121 130.981 67.8184C131.579 67.0441 132.061 65.973 132.074 65.3019C132.074 65.0825 132.035 64.8761 131.917 64.7341C131.8 64.5663 131.631 64.476 131.319 64.476L128.978 64.4631C128.51 64.4631 128.198 64.6567 127.964 65.0438C127.275 66.1536 126.287 66.7214 124.83 66.7214C122.645 66.7085 121.254 64.8631 121.163 62.8371L131.28 62.9016C131.735 62.9145 132.061 62.7984 132.269 62.5661ZM121.215 59.4173C121.41 57.4299 122.788 55.9588 124.869 55.9717C126.898 55.9846 128.302 57.4815 128.484 59.456L121.215 59.4173Z" fill="#3B3B3B"/>
<path d="M64.1387 46.7451C63.9307 47.0161 63.8136 47.3258 63.8136 47.8549L63.7356 62.5019H63.6576C63.6576 62.5019 56.5052 48.1646 56.154 47.5065C55.907 47.0419 55.6339 46.7063 55.2697 46.4741C54.9056 46.2418 54.5285 46.0998 53.8003 46.0998L51.4205 46.0869C50.8743 46.0869 50.5232 46.2934 50.2761 46.616C50.068 46.887 49.951 47.1967 49.951 47.7258L49.8469 68.4898C49.8469 69.0189 49.964 69.3286 50.159 69.5996C50.4061 69.9222 50.7572 70.1416 51.3034 70.1416L52.6559 70.1545C53.2021 70.1545 53.5532 69.948 53.8003 69.6254C54.0083 69.3544 54.1254 69.0447 54.1254 68.5156L54.2034 53.5072H54.2814C54.2814 53.5072 61.7069 68.2962 62.006 68.8511C62.4221 69.6254 63.1374 70.219 64.1517 70.219L66.4665 70.2319C67.0257 70.2319 67.3638 70.0255 67.6109 69.7028C67.819 69.4318 67.936 69.1221 67.936 68.593L68.027 49.868L98.3922 50.0487C98.6913 50.0487 98.9254 49.9584 99.1074 49.7906C99.3025 49.597 99.3805 49.3389 99.3935 48.9518L99.4066 47.5323C99.4066 47.1451 99.3285 46.887 99.1335 46.6934C98.9644 46.5257 98.7303 46.4353 98.4182 46.4353L65.2831 46.2289C64.7369 46.216 64.3858 46.4224 64.1387 46.7451Z" fill="#3B3B3B"/>
<path d="M135.533 71.3812C135.143 71.7941 134.675 72.0006 134.128 72.0006C133.569 72.0006 133.101 71.7812 132.711 71.3554C132.334 70.9295 132.139 70.4004 132.139 69.781C132.139 69.1357 132.347 68.5937 132.776 68.1678C133.166 67.7678 133.621 67.5742 134.154 67.5742C134.701 67.5742 135.169 67.7936 135.559 68.2324C135.949 68.6711 136.144 69.1873 136.131 69.8068C136.131 70.4262 135.936 70.9553 135.533 71.3812ZM132.971 68.4905C132.646 68.8518 132.49 69.2777 132.49 69.7681C132.49 70.2842 132.646 70.723 132.971 71.0843C133.296 71.4457 133.673 71.6264 134.128 71.6264C134.584 71.6264 134.974 71.4457 135.299 71.0973C135.624 70.7359 135.78 70.2971 135.793 69.7939C135.793 69.3035 135.637 68.8776 135.325 68.5034C135 68.1291 134.623 67.9485 134.167 67.9485C133.686 67.9485 133.296 68.1291 132.971 68.4905ZM133.257 71.0198L133.27 68.5679C133.413 68.5679 133.608 68.5679 133.881 68.5679C134.154 68.5679 134.31 68.5679 134.336 68.5808C134.505 68.5937 134.662 68.6324 134.779 68.7098C134.974 68.826 135.078 69.0325 135.065 69.3035C135.065 69.5099 135.013 69.6648 134.909 69.7551C134.805 69.8455 134.675 69.8971 134.518 69.9229C134.662 69.9616 134.766 70.0003 134.831 70.0649C134.961 70.181 135.026 70.3617 135.026 70.6198V70.8392C135.026 70.865 135.026 70.8908 135.026 70.9166C135.026 70.9424 135.039 70.9682 135.039 70.994L135.065 71.0585H134.505C134.492 70.9811 134.479 70.865 134.466 70.723C134.466 70.5811 134.453 70.4778 134.427 70.4262C134.401 70.3359 134.349 70.2842 134.271 70.2455C134.232 70.2197 134.167 70.2068 134.076 70.2068L133.946 70.1939H133.829V71.0585L133.257 71.0198ZM134.323 69.0454C134.245 69.0067 134.128 68.9938 133.985 68.9938H133.842V69.7035H134.063C134.193 69.7035 134.31 69.6777 134.375 69.6132C134.453 69.5487 134.492 69.4583 134.492 69.3164C134.505 69.2002 134.44 69.097 134.323 69.0454Z" fill="#3B3B3B"/>
</svg>
