<svg width="40" height="41" viewBox="0 0 40 41" fill="none" xmlns="http://www.w3.org/2000/svg">
<circle cx="20" cy="20.5835" r="20" fill="#C34D31"/>
<path fill-rule="evenodd" clip-rule="evenodd" d="M31.9999 12.8921C31.1175 13.2841 30.168 13.5481 29.1721 13.6673C30.1888 13.0577 30.9695 12.093 31.3367 10.9435C30.3864 11.5082 29.3313 11.917 28.2105 12.1386C27.3122 11.1819 26.0315 10.5835 24.6164 10.5835C21.8973 10.5835 19.6927 12.7881 19.6927 15.5072C19.6927 15.8927 19.7367 16.2687 19.8207 16.6295C15.7282 16.4247 12.1004 14.464 9.67177 11.485C9.24779 12.2122 9.00541 13.0577 9.00541 13.9601C9.00541 15.668 9.87335 17.1751 11.1957 18.0582C10.3877 18.0326 9.62937 17.811 8.96461 17.4422V17.5038C8.96461 19.8901 10.6629 21.8795 12.9139 22.3331C12.5012 22.4451 12.066 22.5059 11.6172 22.5059C11.2997 22.5059 10.9909 22.4747 10.6901 22.4171C11.3165 24.373 13.1355 25.7969 15.2898 25.8369C13.6051 27.1568 11.482 27.9447 9.175 27.9447C8.77662 27.9447 8.38465 27.9215 7.99988 27.8751C10.1789 29.2718 12.7668 30.0878 15.5474 30.0878C24.6036 30.0878 29.556 22.5851 29.556 16.0791C29.556 15.8655 29.552 15.6528 29.5416 15.4424C30.5048 14.7464 31.3399 13.8793 31.9999 12.8921Z" fill="white"/>
</svg>
