<svg width="210" height="111" viewBox="0 0 210 111" fill="none" xmlns="http://www.w3.org/2000/svg">
<path d="M207.243 35.4583C206.22 34.5829 204.737 34.0457 202.712 33.8269C199.404 33.4886 196.417 34.1253 193.85 35.7169C191.926 36.9106 190.883 38.0844 189.58 40.4718L189.5 40.6509C189.079 41.7451 181.902 51.2152 179.115 54.3387C176.027 57.8203 174.804 58.1188 174.484 58.1188H174.444C174.423 58.1188 174.403 58.1188 174.323 58.0193C174.243 57.8999 174.223 57.8203 174.223 57.7408C174.243 57.3826 174.343 56.6664 174.664 55.3732C174.664 55.3533 174.664 55.3533 174.664 55.3533L174.684 55.2937L178.734 42.521C178.934 41.9242 179.195 41.0886 179.576 39.9943C180.358 37.786 180.739 36.3734 180.779 35.5776V35.4583C180.819 34.941 180.639 34.2049 179.977 33.6478C179.516 33.2698 177.371 32.3745 176.408 32.0562C175.245 31.6981 174.043 31.4792 172.8 31.3997C170.694 31.2803 168.569 31.6185 166.504 32.4143C164.459 33.2101 162.495 34.4237 160.67 36.0551C157.984 38.4624 156.32 40.7702 154.515 43.6948C154.455 43.7943 154.335 43.9734 154.195 44.232C153.232 45.8435 150.666 50.1408 148.601 52.4089C146.797 54.3984 144.23 57.0444 142.807 57.0444C142.607 57.0444 142.486 56.9847 142.366 56.8455C142.286 56.746 142.186 56.5868 142.186 56.2486C142.186 55.8308 142.246 55.3533 142.346 54.8162C142.446 54.279 142.607 53.6623 142.827 52.9858L147.338 36.8907L150.666 36.9504L150.786 36.9305C151.207 36.831 151.789 36.453 151.989 35.697C152.069 35.4185 152.23 34.6625 152.29 34.3242C152.37 33.807 152.25 33.2897 151.949 32.8918C151.668 32.5138 151.247 32.2949 150.806 32.275H150.766C150.606 32.275 149.724 32.2551 148.701 32.2154L151.568 21.7903C151.608 21.6312 151.648 21.472 151.689 21.2929C151.709 21.1338 151.729 20.9547 151.729 20.7359C151.749 20.1191 151.508 19.7013 151.428 19.582C151.268 19.2835 150.846 18.8061 149.984 18.7862H149.924C149.704 18.7862 149.523 18.826 149.503 18.826L146.817 19.4029C146.175 19.5223 145.654 19.8406 145.273 20.338C144.952 20.7359 144.672 21.3327 144.411 22.2081L141.404 32.0164L137.935 31.9368H137.875C137.334 31.9567 136.672 32.3745 136.432 33.2698C136.351 33.608 136.231 33.986 136.091 34.3839C135.77 35.3588 136.251 36.2342 136.893 36.5326L137.093 36.6122L139.599 36.6719C137.895 40.253 133.885 47.9524 129.375 51.9712L129.334 52.011C125.746 55.5921 122.498 57.4224 119.671 57.4224H119.591C118.208 57.4224 117.185 56.9649 116.403 55.99C115.742 55.1544 115.341 54.0204 115.2 52.5879C119.952 50.8571 123.861 48.6288 126.808 45.943C130.096 42.9388 131.76 39.8352 131.76 36.7514C131.76 34.7022 131.019 32.9714 129.575 31.6185C128.212 30.3452 126.508 29.6887 124.483 29.6887H124.382C122.458 29.6887 120.453 30.3253 118.408 31.5588C116.423 32.7525 114.619 34.4237 113.035 36.5127C111.632 38.3629 110.709 40.2729 109.787 42.143L109.767 42.1828C109.567 42.6006 109.366 42.9985 109.166 43.3964C108.725 44.2917 104.735 50.4592 102.87 52.4089C99.4422 56.0298 96.3146 57.8999 93.568 58.0193C92.0042 58.079 90.7812 57.6413 89.9593 56.7062C89.1172 55.7313 88.6561 54.2392 88.596 52.2298C88.5358 50.101 88.8967 47.6937 89.6986 45.0278C90.5006 42.3619 91.5631 40.0341 92.8863 38.1242C93.6482 36.9703 94.4301 36.075 95.212 35.498C95.9137 34.9609 96.6153 34.6823 97.2569 34.6625H97.3571C97.8584 34.6625 98.0588 34.8415 98.1791 34.9808C98.4197 35.2593 98.5601 35.7567 98.5801 36.4132C98.6002 36.9305 98.4197 37.5075 98.0588 38.1242C97.6779 38.8006 97.1366 39.3776 96.475 39.8153L95.3323 40.5713L96.1542 41.7252C96.5552 42.3022 97.0564 42.72 97.5977 42.9587C98.0388 43.1577 98.5801 43.277 99.1816 43.277C99.2417 43.277 99.2818 43.277 99.3419 43.277H99.4221C101.026 43.2173 102.409 42.5409 103.512 41.2875C104.635 40.0142 105.196 38.4823 105.136 36.7514C105.076 34.6823 104.294 33.0311 102.85 31.7976C101.467 30.6436 99.7028 30.0866 97.6378 30.1662C95.5127 30.2457 93.3675 31.0018 91.2624 32.3944C89.6585 33.4489 88.1148 34.8813 86.6312 36.6122L86.1901 37.1493C85.9295 37.4677 85.6689 37.786 85.4283 38.1242C83.5838 40.631 82.5012 42.7001 81.8998 44.8288C81.4788 46.3409 78.0304 51.3345 76.0256 53.5827C72.6374 57.3826 69.4898 59.4119 66.6629 59.6109C65.2796 59.7104 64.1769 59.3125 63.3349 58.3774C62.6733 57.6413 62.2322 56.6465 62.0117 55.3732C62.0518 55.3533 62.0718 55.3335 62.1119 55.3136C64.217 54.279 65.9412 53.2843 67.2443 52.3492L67.3847 52.2497C69.6301 50.8769 71.5748 49.3251 73.1987 47.6738C76.3263 44.4508 77.8299 41.2676 77.6495 38.164C77.5292 36.1148 76.7072 34.4436 75.2036 33.1902C73.7601 31.9965 71.9557 31.4394 69.8907 31.5986C67.9661 31.7379 65.9813 32.4939 64.0366 33.8468C62.1119 35.1797 60.4078 36.9504 58.9443 39.1388C57.3604 41.5064 56.1776 43.9336 55.4157 46.3807C54.694 48.7283 54.3532 51.0361 54.4334 53.2644C54.3331 53.3042 54.2128 53.3439 54.1126 53.3837C51.5664 54.3387 49.6418 54.7963 48.0981 54.8162C47.5968 54.8361 47.1157 54.7963 46.6345 54.7167C46.2336 54.657 43.948 54.1994 42.705 53.7617C41.9632 52.7869 41.2014 51.7921 40.4596 50.8173C38.7755 48.589 37.0113 46.4006 35.247 44.2917C39.0361 43.8341 42.8053 42.9388 46.4942 41.6655C50.985 40.0938 55.0549 37.9451 58.5634 35.2394C62.1119 32.5138 64.9989 29.2311 67.1441 25.4311C69.3294 21.5715 70.392 17.1349 70.2917 12.2606C70.2316 8.79883 69.0086 5.91404 66.683 3.646C64.197 1.23869 60.2073 -0.0942794 55.7766 0.00519611C52.1478 0.0847765 47.8775 1.33817 44.349 3.34757C41.041 5.21771 38.5149 7.60512 35.7682 10.5695C33.1419 13.3946 31.117 16.7569 28.9919 20.3181L28.5508 21.0542C26.4858 24.4762 24.501 28.0772 22.6966 31.7578C20.5114 30.1264 18.2258 28.7735 15.9203 27.6992C13.1937 26.4259 10.2465 25.6301 7.17912 25.3515H6.99869C6.8383 25.3515 6.69796 25.3515 6.55762 25.3515C4.51268 25.3913 3.14938 25.9086 1.86628 27.0824C0.603225 28.2562 -0.0383264 29.8677 0.00177051 31.8771C0.021819 33.1504 0.442837 34.4635 1.22473 35.7766C1.98657 37.03 3.12933 38.2237 4.67307 39.3378C6.15665 40.4121 8.08131 41.387 10.3869 42.2425C11.8905 42.7995 14.2562 43.5357 17.2836 44.0529C15.419 48.7681 11.1888 56.7062 8.02116 62.6151C4.33224 69.4988 4.13176 69.9961 4.1518 70.6527C4.1919 71.4883 4.8134 72.3637 5.81583 72.3637H5.85592C6.07646 72.3637 6.29699 72.304 6.51752 72.2045C9.4847 70.9312 12.5521 67.7679 15.6396 62.7941C18.0654 58.8947 19.8498 54.9753 20.6918 53.1052L20.8923 52.6476C22.0751 50.0414 23.258 47.3356 24.4008 44.61C24.5411 44.61 24.6814 44.6299 24.8017 44.6299L24.9621 44.6498C26.4056 44.7493 28.0496 44.8686 29.6535 44.8686C34.3248 51.6131 37.5125 56.2287 39.8581 59.6308L39.8782 59.6706C45.171 67.3501 45.612 67.9668 47.3563 70.2548C49.5616 73.1197 51.8672 75.6662 54.2128 77.8547C56.5986 80.0631 59.1047 81.8536 61.6508 83.1468C62.6733 83.6641 65.6806 84.8578 66.7431 85.1761C66.9436 85.2358 67.1441 85.2557 67.3646 85.2557H67.4448C69.3494 85.2159 72.7577 82.8086 72.898 81.0578C72.9582 80.3217 72.5772 79.506 71.5949 79.307C70.4321 79.0683 69.2893 78.7301 68.2067 78.2725C65.6405 77.238 63.1344 75.7657 60.7687 73.9354C58.3629 72.0652 56.0172 69.8768 53.7918 67.4098C51.6065 65.0025 49.4213 62.4161 47.3162 59.7303C48.2584 59.6706 49.2208 59.5512 50.1631 59.4119L50.8046 59.3125C52.1679 59.1334 53.6916 58.7554 55.3356 58.1983C55.8769 59.6507 56.6387 60.9041 57.6211 61.9386C59.5457 63.9679 62.0518 64.8831 65.0791 64.6642C68.6076 64.4056 72.2164 62.7145 75.7649 59.6109C77.5693 58.0392 79.3336 56.1492 81.0176 53.9408C81.4387 56.3481 82.4411 58.3973 84.0049 60.0287C85.9095 62.0381 88.2952 63.0527 91.102 63.0726C91.2825 63.0726 91.4428 63.0726 91.6233 63.0726C95.3323 62.9334 99.1415 61.2423 102.891 58.0591C104.575 56.6266 106.239 54.9157 107.843 52.9261C108.163 55.413 109.025 57.502 110.429 59.1533C112.213 61.2622 114.619 62.3564 117.586 62.3763H117.726C121.275 62.3564 124.944 60.9041 128.673 58.0392C131.159 56.1293 133.605 53.6225 135.971 50.5984C135.83 51.1754 135.69 51.7125 135.59 52.2099C135.249 53.722 135.088 54.8162 135.068 55.5722C135.028 57.6214 135.549 59.2727 136.652 60.4664C137.715 61.6402 139.218 62.2569 141.083 62.2967H141.183C143.368 62.3166 145.774 61.0831 148.34 58.6758C149.423 57.6612 150.626 56.3083 151.949 54.6769C152.13 56.5669 152.631 58.1784 153.453 59.4915C154.696 61.4611 156.48 62.5355 158.766 62.6747C160.811 62.7941 162.956 61.7198 165.141 59.4915C165.923 58.6957 166.765 57.701 167.667 56.4874C167.567 57.0046 167.507 57.4224 167.507 57.8004C167.427 59.4915 167.807 60.8643 168.65 61.859C169.472 62.8339 170.654 63.391 172.178 63.4904C172.238 63.4904 172.298 63.4904 172.358 63.4904C175.727 63.5103 180.999 58.636 188.919 48.1314L189.42 47.4749L189.801 46.9377C189.961 46.7189 190.121 46.5 190.262 46.2812C190.923 47.455 192.327 49.1461 194.592 51.4141C196.757 53.5628 197.539 54.6769 197.8 55.2141C198.141 55.9104 198.281 56.6067 198.221 57.3628C198.121 58.4769 197.62 59.3125 196.637 59.9889C195.575 60.725 194.231 61.0036 192.668 60.8444C191.725 60.7449 191.004 60.4664 190.482 60.0088C189.981 59.5711 189.961 59.213 189.981 58.9544C190.001 58.6161 190.121 58.3177 190.302 58.0392C190.462 57.8004 190.883 57.4423 191.004 57.3429L191.044 57.323C191.545 57.0643 191.846 56.5471 191.846 55.9502C191.846 55.3732 191.525 54.856 191.044 54.6172C190.923 54.5575 190.342 54.279 189.901 54.1397C189.48 54.0204 189.059 53.9209 188.638 53.8811C187.134 53.722 185.811 54.0403 184.728 54.7963C183.566 55.612 182.884 56.8256 182.744 58.2779C182.643 59.5512 182.944 61.4015 184.989 63.013C186.433 64.147 188.377 64.8632 190.783 65.1218C191.344 65.1815 191.906 65.2014 192.487 65.1815C193.129 65.1616 193.81 65.1019 194.492 65.0025C195.835 64.7836 197.299 64.3658 198.482 63.8684C200.146 63.1522 201.649 62.1973 202.391 61.3816L202.531 61.2224C203.213 60.4664 203.995 59.6109 204.416 58.6559C204.817 57.8004 205.058 56.4874 205.138 55.5921C205.258 54.1795 204.997 52.767 204.376 51.3942C203.794 50.1209 202.832 48.7681 201.509 47.3356C201.028 46.8581 200.366 46.1817 199.464 45.2864C196.517 42.4414 196.296 41.009 196.336 40.5116C196.397 39.7556 196.757 39.1786 197.439 38.7012C198.201 38.164 199.203 37.965 200.366 38.0844C201.068 38.164 201.589 38.3629 201.93 38.7012C202.231 38.9996 202.271 39.2383 202.251 39.4373C202.211 39.8352 202.11 40.2132 201.91 40.5713C201.75 40.8697 201.389 41.2676 201.248 41.387C200.687 41.6456 200.326 42.3221 200.426 42.9985C200.507 43.5755 200.928 44.2718 201.87 44.3116C202.03 44.3315 202.211 44.3315 202.391 44.3116C203.774 44.2718 205.298 43.8142 206.381 43.098C207.804 42.1629 208.586 40.9493 208.706 39.5169C208.927 37.8656 208.386 36.453 207.243 35.4583ZM174.223 36.453C171.376 42.9985 168.609 48.2309 165.963 52.011C162.655 56.7261 160.891 57.4224 160.129 57.4224C160.109 57.4224 160.089 57.4224 160.049 57.4224C159.708 57.4025 159.527 57.2633 159.347 56.945C159.086 56.4874 158.986 55.8308 159.026 54.9952C159.106 53.2445 159.668 51.2152 160.67 48.967C161.713 46.6393 163.216 44.0927 165.121 41.4069C166.544 39.4572 167.908 37.9849 169.171 37.0698C170.233 36.2938 171.196 35.896 172.058 35.8761H172.138C172.198 35.8761 172.238 35.8761 172.298 35.8761C172.82 35.9158 173.321 36.0352 173.802 36.2342C173.962 36.2938 174.103 36.3734 174.223 36.453ZM115.481 47.9126C116.163 44.2121 117.265 41.0488 118.809 38.4823C120.453 35.7169 122.077 34.3043 123.621 34.2645H123.701C124.282 34.2645 124.523 34.4834 124.643 34.6426C124.884 34.9609 125.004 35.4781 125.024 36.1546C125.044 38.7608 124.002 41.2477 121.977 43.5556C120.232 45.5252 118.067 46.9775 115.481 47.9126ZM68.2869 45.6246C66.6629 47.6937 64.5779 49.2853 62.0518 50.3995C62.533 46.6592 63.4752 43.4362 64.8586 40.7702C66.3622 37.8855 67.926 36.3535 69.4898 36.2541C69.5299 36.2541 69.57 36.2541 69.59 36.2541H69.6502C70.1313 36.2541 70.3519 36.4331 70.4721 36.5724C70.7328 36.8708 70.8932 37.3682 70.9132 38.0446C71.0937 40.631 70.1915 43.1776 68.2869 45.6246ZM26.4257 40.8896C26.3054 40.8896 26.1851 40.8896 26.0648 40.8697L26.165 40.6111C26.2452 40.6907 26.3254 40.7901 26.4257 40.8896ZM53.03 32.9913C50.1229 35.2593 46.7749 37.0897 43.0859 38.4226C39.5574 39.6959 35.8885 40.4917 32.2197 40.7901C31.4979 39.9744 30.7361 39.1587 29.9542 38.3629C29.2725 37.6666 28.5909 36.9703 27.9092 36.274C29.453 32.6332 31.0569 29.0122 32.7209 25.5107C34.4651 21.8102 36.3898 18.4877 38.4347 15.6228C40.4596 12.7977 42.7251 10.5098 45.171 8.77893C47.5367 7.10775 50.2633 6.23236 53.2305 6.15278C56.3981 6.0732 58.7438 6.82921 60.1873 8.36114C61.6308 9.89306 62.3926 11.9224 62.4327 14.3496C62.5129 18.249 61.6909 21.7903 59.9868 24.8741C58.2426 28.0175 55.917 30.7431 53.03 32.9913ZM20.6918 35.9755L18.8674 40.054C16.8024 39.676 14.9379 39.1985 13.334 38.6017C11.5296 37.9451 9.98591 37.209 8.783 36.453C7.62019 35.7368 6.73806 35.0007 6.1767 34.2844C5.57525 33.5284 5.475 33.0708 5.475 32.8719C5.475 32.7127 5.475 32.4541 5.99626 32.1159C6.39723 31.8572 7.25932 31.5588 9.00354 31.519C9.14387 31.519 9.28421 31.519 9.42455 31.519C11.3292 31.5389 13.2137 31.9368 15.5393 32.8321C17.3437 33.5483 19.0679 34.742 20.6918 35.9755Z" fill="white"/>
<path d="M201.829 77.4368C202.29 77.4368 202.651 77.2976 202.932 77.0389C203.233 76.7405 203.353 76.3426 203.373 75.7458L203.393 73.4379C203.393 72.5426 203.253 72.0851 202.972 71.7667C202.731 71.4683 202.33 71.2892 201.869 71.2892C201.508 71.2892 201.148 71.329 200.546 71.4086L182.663 73.2589C182.142 73.2987 181.901 73.4777 181.721 73.6966C181.52 73.9353 181.42 74.2735 181.42 74.7112V76.0044C181.42 76.5018 181.5 76.7206 181.66 76.9196C181.861 77.1782 182.142 77.2976 182.563 77.2976L201.829 77.4368Z" fill="white"/>
<path d="M170.855 106.444C170.855 107.101 171.036 107.558 171.297 107.936C171.637 108.394 172.098 108.672 172.8 108.672L175.467 108.692C176.168 108.692 176.629 108.434 176.97 107.976C177.251 107.598 177.431 107.14 177.431 106.484L177.592 73.9354C177.592 73.2789 177.411 72.8213 177.151 72.4433C176.81 71.9857 176.349 71.7072 175.647 71.7072L172.981 71.6873C172.279 71.6873 171.818 71.9459 171.477 72.4035C171.196 72.7815 171.016 73.2391 171.016 73.8956L170.855 106.444Z" fill="white"/>
<path d="M157.262 81.9133H155.999C155.538 81.9133 155.177 82.0526 154.896 82.3112C154.595 82.6097 154.475 83.0076 154.455 83.6044V85.3154C154.455 85.9123 154.575 86.3102 154.876 86.6086C155.137 86.8672 155.498 87.0065 155.979 87.0065H157.242L157.182 99.421C157.162 102.604 157.944 104.594 159.387 106.205C160.73 107.677 162.474 108.613 165.522 108.632L167.426 108.652C167.888 108.652 168.248 108.513 168.529 108.254C168.83 107.956 169.01 107.558 169.01 106.961L169.03 104.793C169.03 104.196 168.85 103.798 168.569 103.5C168.309 103.241 167.948 103.102 167.467 103.102H167.206C166.003 103.102 165.161 102.744 164.62 102.147C163.958 101.45 163.617 100.376 163.617 98.9833L163.677 87.0662L167.747 87.0861C168.208 87.0861 168.569 86.9468 168.85 86.6882C169.151 86.3897 169.271 85.9918 169.291 85.395V83.684C169.291 83.0871 169.171 82.6892 168.87 82.3908C168.609 82.1322 168.248 81.9929 167.767 81.9929L163.717 81.973L163.758 73.8757C163.758 73.2192 163.577 72.7616 163.316 72.3836C162.976 71.926 162.515 71.6475 161.813 71.6475L159.287 71.6276C158.585 71.6276 158.124 71.8862 157.783 72.3438C157.522 72.7218 157.322 73.1794 157.322 73.8359L157.262 81.9133Z" fill="white"/>
<path d="M143.307 80.8788C137.172 80.8391 133.123 84.0422 133.102 89.2149C133.102 91.0453 133.684 92.5573 134.666 93.7311C135.809 95.1039 137.433 96.0588 139.799 96.7552L144.931 98.2274C146.334 98.6253 147.598 99.1227 147.577 100.476C147.557 102.584 145.553 103.301 143.387 103.281C142.345 103.281 141.242 103.042 140.34 102.545C139.718 102.187 139.177 101.689 138.796 101.013C138.455 100.436 138.355 100.018 137.834 99.6797C137.513 99.4808 137.132 99.4609 136.631 99.441L133.844 99.4211C133.243 99.4211 132.942 99.6201 132.742 99.8787C132.541 100.157 132.461 100.555 132.461 100.953C132.461 101.948 132.762 103.201 133.503 104.315C135.188 106.862 138.756 108.931 143.287 108.951C147.778 108.971 153.993 106.961 154.013 100.297C154.013 98.5855 153.572 97.1133 152.75 95.9196C151.707 94.3876 150.204 93.3332 147.658 92.5971L142.585 91.1248C140.48 90.5081 139.498 90.0903 139.498 88.6379C139.498 87.2453 140.641 86.1312 143.227 86.1511C144.751 86.1511 146.134 86.549 147.036 87.5835C147.778 88.4589 147.638 88.8966 148.219 89.2547C148.58 89.4537 148.981 89.4537 149.602 89.4537L152.128 89.4735C152.529 89.4735 152.83 89.394 153.051 89.1353C153.231 88.9165 153.351 88.5584 153.351 88.0013C153.351 86.7081 152.61 85.0369 151.266 83.7636C149.542 82.0726 146.715 80.8987 143.307 80.8788Z" fill="white"/>
<path d="M130.698 96.4566C131.079 96.0587 131.259 95.4817 131.259 94.4273C131.279 91.1645 130.377 87.7823 128.453 85.176C126.488 82.5499 123.501 80.7593 119.27 80.7394C111.492 80.6996 107.101 87.4043 107.061 94.5069C107.021 102.087 111.672 108.792 119.17 108.831C122.919 108.851 126.588 107.319 128.713 104.554C129.635 103.36 130.377 101.709 130.397 100.674C130.397 100.336 130.337 100.018 130.157 99.799C129.976 99.5403 129.716 99.4011 129.234 99.4011L125.626 99.3812C124.904 99.3812 124.423 99.6796 124.062 100.276C122.999 101.987 121.476 102.863 119.23 102.863C115.862 102.843 113.717 99.9979 113.577 96.8744L129.174 96.9739C129.856 96.9937 130.357 96.8147 130.698 96.4566ZM113.637 91.6022C113.937 88.5383 116.063 86.2703 119.27 86.2902C122.398 86.3101 124.563 88.6179 124.844 91.6619L113.637 91.6022Z" fill="white"/>
<path d="M203.916 96.4566C204.297 96.0587 204.477 95.4817 204.477 94.4273C204.497 91.1645 203.595 87.7823 201.67 85.176C199.706 82.5499 196.718 80.7593 192.488 80.7394C184.709 80.6996 180.319 87.4043 180.279 94.5069C180.238 102.087 184.89 108.792 192.388 108.831C196.137 108.851 199.806 107.319 201.931 104.554C202.853 103.36 203.595 101.709 203.615 100.674C203.615 100.336 203.555 100.018 203.374 99.799C203.194 99.5403 202.933 99.4011 202.452 99.4011L198.843 99.3812C198.122 99.3812 197.641 99.6796 197.28 100.276C196.217 101.987 194.693 102.863 192.448 102.863C189.08 102.843 186.935 99.9979 186.794 96.8744L202.392 96.9739C203.094 96.9937 203.595 96.8147 203.916 96.4566ZM186.875 91.6022C187.175 88.5383 189.3 86.2703 192.508 86.2902C195.636 86.3101 197.801 88.6179 198.082 91.6619L186.875 91.6022Z" fill="white"/>
<path d="M98.8809 72.0653C98.5602 72.4831 98.3797 72.9606 98.3797 73.7763L98.2594 96.3572H98.1391C98.1391 96.3572 87.1125 74.2538 86.5712 73.2391C86.1902 72.5229 85.7692 72.0056 85.2079 71.6475C84.6465 71.2894 84.0651 71.0706 82.9424 71.0706L79.2735 71.0507C78.4315 71.0507 77.8902 71.369 77.5093 71.8664C77.1885 72.2842 77.008 72.7616 77.008 73.5773L76.8477 105.589C76.8477 106.404 77.0281 106.882 77.3288 107.3C77.7097 107.797 78.2511 108.135 79.0931 108.135L81.1781 108.155C82.0202 108.155 82.5615 107.837 82.9424 107.339C83.2632 106.922 83.4436 106.444 83.4436 105.628L83.5639 82.4903H83.6842C83.6842 82.4903 95.1319 105.29 95.593 106.146C96.2345 107.339 97.3372 108.255 98.901 108.255L102.47 108.274C103.332 108.274 103.853 107.956 104.234 107.459C104.555 107.041 104.735 106.563 104.735 105.748L104.875 76.8799L151.689 77.1585C152.15 77.1585 152.511 77.0192 152.791 76.7606C153.092 76.4621 153.212 76.0642 153.232 75.4674L153.252 73.2789C153.252 72.6821 153.132 72.2842 152.831 71.9857C152.571 71.7271 152.21 71.5878 151.729 71.5878L100.645 71.2695C99.8032 71.2496 99.2619 71.5679 98.8809 72.0653Z" fill="white"/>
<path d="M208.947 110.045C208.346 110.682 207.624 111 206.782 111C205.92 111 205.198 110.662 204.597 110.005C204.016 109.349 203.715 108.533 203.715 107.578C203.715 106.583 204.036 105.748 204.697 105.091C205.299 104.474 206 104.176 206.822 104.176C207.664 104.176 208.386 104.514 208.988 105.191C209.589 105.867 209.89 106.663 209.87 107.618C209.87 108.573 209.569 109.388 208.947 110.045ZM204.998 105.589C204.497 106.146 204.256 106.802 204.256 107.558C204.256 108.354 204.497 109.03 204.998 109.587C205.499 110.144 206.081 110.423 206.782 110.423C207.484 110.423 208.085 110.145 208.587 109.607C209.088 109.05 209.328 108.374 209.348 107.598C209.348 106.842 209.108 106.185 208.627 105.608C208.126 105.031 207.544 104.753 206.842 104.753C206.101 104.753 205.499 105.031 204.998 105.589ZM205.439 109.488L205.459 105.708C205.68 105.708 205.98 105.708 206.401 105.708C206.822 105.708 207.063 105.708 207.103 105.728C207.364 105.748 207.604 105.807 207.785 105.927C208.085 106.106 208.246 106.424 208.226 106.842C208.226 107.16 208.146 107.399 207.985 107.538C207.825 107.678 207.624 107.757 207.384 107.797C207.604 107.857 207.765 107.916 207.865 108.016C208.065 108.195 208.166 108.473 208.166 108.871V109.209C208.166 109.249 208.166 109.289 208.166 109.329C208.166 109.369 208.186 109.408 208.186 109.448L208.226 109.548H207.364C207.344 109.428 207.324 109.249 207.304 109.03C207.304 108.812 207.283 108.652 207.243 108.573C207.203 108.434 207.123 108.354 207.003 108.294C206.943 108.254 206.842 108.235 206.702 108.235L206.502 108.215H206.321V109.548L205.439 109.488ZM207.083 106.444C206.963 106.384 206.782 106.364 206.562 106.364H206.341V107.459H206.682C206.883 107.459 207.063 107.419 207.163 107.319C207.283 107.22 207.344 107.081 207.344 106.862C207.364 106.683 207.263 106.524 207.083 106.444Z" fill="white"/>
</svg>
