<svg width="13" height="13" viewBox="0 0 13 13" fill="none" xmlns="http://www.w3.org/2000/svg">
<path d="M9.32763 2.68884C7.27079 2.71151 5.22174 2.72639 3.16491 2.74906C2.80217 2.75238 2.50995 2.63929 2.32769 2.31684C2.01252 1.76022 2.38543 1.06612 3.0265 1.00624C3.08832 0.997959 3.14617 1.00129 3.20791 1.00072C6.00176 0.975172 8.7879 0.949691 11.5817 0.924139C12.2609 0.917927 12.5936 1.25058 12.5835 1.93365C12.5578 4.73522 12.5322 7.5445 12.5065 10.3461C12.5031 10.7165 12.3885 11.0147 12.0511 11.2068C11.4964 11.5245 10.8128 11.168 10.7607 10.5395C10.7537 10.4624 10.7582 10.3891 10.7589 10.3119C10.7775 8.27439 10.7962 6.22917 10.8149 4.19166C10.8156 4.11448 10.8011 4.00657 10.7747 3.94122C10.7202 3.99574 10.6696 4.04636 10.6151 4.10088C7.07133 7.64461 6.05884 8.6571 2.51511 12.2008C2.42165 12.2943 2.33201 12.3916 2.22333 12.462C1.87008 12.6929 1.3692 12.6126 1.10969 12.2986C0.838778 11.9654 0.843083 11.4946 1.13933 11.1677C1.19781 11.1016 1.26012 11.0393 1.32632 10.9731C4.85447 7.44494 5.85528 6.44413 9.38343 2.91598C9.44184 2.85757 9.5392 2.76022 9.59761 2.7018C9.56688 2.68665 9.40091 2.69203 9.32763 2.68884Z" fill="#497D33"/>
</svg>
