<svg width="327" height="326" viewBox="0 0 327 326" fill="none" xmlns="http://www.w3.org/2000/svg">
<path d="M253 325C254.929 325 256.841 324.925 258.732 324.778L258.655 323.781C262.466 323.485 266.194 322.892 269.815 322.026L270.048 322.998C273.801 322.1 277.441 320.913 280.944 319.46L280.561 318.537C284.063 317.084 287.426 315.363 290.624 313.399L291.148 314.252C294.414 312.246 297.511 309.99 300.411 307.511L299.761 306.751C302.628 304.3 305.3 301.628 307.751 298.761L308.511 299.411C310.99 296.511 313.246 293.414 315.252 290.148L314.399 289.624C316.363 286.426 318.084 283.063 319.537 279.561L320.46 279.944C321.913 276.441 323.1 272.801 323.998 269.048L323.026 268.815C323.892 265.194 324.485 261.466 324.781 257.655L325.778 257.732C325.925 255.841 326 253.929 326 252V245.75H325V233.25H326V220.75H325V208.25H326V195.75H325V183.25H326V170.75H325V158.25H326V145.75H325V133.25H326V120.75H325V108.25H326V95.75H325V83.25H326V70.75H325V58.25H326V45.75H325V33.25H326V20.75H325V8.24999H326V2V1H325H318.788V2H306.365V1H293.942V2H281.519V1H269.096V2H256.673V1H244.25V2H231.827V1H219.404V2H206.981V1H194.558V2H182.135V1H169.712V2H157.288V1H144.865V2H132.442V1H120.019V2H107.596V1H95.173V2H82.75V1H70.3269V2H57.9038V1H45.4807V2H33.0577V1H20.6346V2H8.21154V1H2H1V2V8.19231H2V20.5769H1V32.9615H2V45.3461H1V57.7308H2V70.1154H1V82.5H2V94.8846H1V107.269H2V119.654H1V132.038H2V144.423H1V156.808H2V169.192H1V181.577H2V193.962H1V206.346H2V218.731H1V231.115H2V243.5H1V255.885H2V268.269H1V280.654H2V293.038H1V305.423H2V317.808H1V324V325H2H8.275V324H20.825V325H33.375V324H45.925V325H58.475V324H71.025V325H83.575V324H96.125V325H108.675V324H121.225V325H133.775V324H146.325V325H158.875V324H171.425V325H183.975V324H196.525V325H209.075V324H221.625V325H234.175V324H246.725V325H253Z" stroke="#72A032" stroke-width="2" stroke-dasharray="12 12"/>
</svg>
