<svg width="1004" height="156" viewBox="0 0 1004 156" fill="none" xmlns="http://www.w3.org/2000/svg">
<path d="M930 155C931.929 155 933.841 154.925 935.732 154.778L935.655 153.781C939.466 153.485 943.194 152.892 946.815 152.026L947.048 152.998C950.801 152.101 954.441 150.913 957.944 149.46L957.561 148.537C961.063 147.084 964.426 145.363 967.624 143.399L968.148 144.252C971.414 142.246 974.511 139.99 977.411 137.511L976.761 136.751C979.628 134.3 982.3 131.628 984.751 128.761L985.511 129.411C987.99 126.511 990.246 123.414 992.252 120.148L991.399 119.624C993.363 116.426 995.084 113.063 996.537 109.561L997.46 109.944C998.913 106.441 1000.1 102.801 1001 99.048L1000.03 98.8153C1000.89 95.1937 1001.49 91.4658 1001.78 87.6546L1002.78 87.7321C1002.93 85.8405 1003 83.9289 1003 82V75.3333H1002V62H1003V48.6667H1002V35.3333H1003V22H1002V8.66667H1003V2V1H1002H996.048V2H984.143V1H972.238V2H960.333V1H948.429V2H936.524V1H924.619V2H912.714V1H900.81V2H888.905V1H877V2H865.095V1H853.19V2H841.286V1H829.381V2H817.476V1H805.571V2H793.667V1H781.762V2H769.857V1H757.952V2H746.048V1H734.143V2H722.238V1H710.333V2H698.429V1H686.524V2H674.619V1H662.714V2H650.81V1H638.905V2H627V1H615.095V2H603.191V1H591.286V2H579.381V1H567.476V2H555.572V1H543.667V2H531.762V1H519.857V2H507.953V1H496.048V2H484.143V1H472.238V2H460.333V1H448.429V2H436.524V1H424.619V2H412.714V1H400.81V2H388.905V1H377V2H365.095V1H353.19V2H341.286V1H329.381V2H317.476V1H305.571V2H293.667V1H281.762V2H269.857V1H257.952V2H246.047V1H234.143V2H222.238V1H210.333V2H198.428V1H186.523V2H174.619V1H162.714V2H150.809V1H138.904V2H127V1H115.095V2H103.19V1H91.2851V2H79.3804V1H67.4756V2H55.5708V1H43.666V2H31.7613V1H19.8564V2H7.95164V1H2H1V2V8.33333H2V21H1V33.6667H2V46.3333H1V59H2V71.6667H1V84.3333H2V97H1V109.667H2V122.333H1V135H2V147.667H1V154V155H2H7.94872V154H19.8462V155H31.7436V154H43.641V155H55.5385V154H67.4359V155H79.3333V154H91.2308V155H103.128V154H115.026V155H126.923V154H138.821V155H150.718V154H162.615V155H174.513V154H186.41V155H198.308V154H210.205V155H222.103V154H234V155H245.897V154H257.795V155H269.692V154H281.59V155H293.487V154H305.385V155H317.282V154H329.179V155H341.077V154H352.974V155H364.872V154H376.769V155H388.667V154H400.564V155H412.461V154H424.359V155H436.256V154H448.154V155H460.051V154H471.949V155H483.846V154H495.743V155H507.641V154H519.538V155H531.436V154H543.333V155H555.231V154H567.128V155H579.026V154H590.923V155H602.821V154H614.718V155H626.615V154H638.513V155H650.41V154H662.308V155H674.205V154H686.103V155H698V154H709.898V155H721.795V154H733.693V155H745.59V154H757.488V155H769.385V154H781.282V155H793.18V154H805.077V155H816.975V154H828.872V155H840.77V154H852.667V155H864.565V154H876.462V155H888.36V154H900.257V155H912.155V154H924.052V155H930Z" stroke="#72A032" stroke-width="2" stroke-dasharray="12 12"/>
</svg>
