<svg width="55" height="48" viewBox="0 0 55 48" fill="none" xmlns="http://www.w3.org/2000/svg">
<path fill-rule="evenodd" clip-rule="evenodd" d="M32.3285 8.07657C32.529 8.20246 32.6137 8.4517 32.5315 8.6737L28.1684 20.452L35.8911 24.0157C36.0405 24.0846 36.1464 24.2226 36.1744 24.3847C36.2023 24.5469 36.1488 24.7123 36.0311 24.8273L20.6502 39.8576C20.4858 40.0182 20.2332 40.0461 20.0377 39.9253C19.8423 39.8044 19.7544 39.566 19.8246 39.3472L23.741 27.1483L16.5356 24.9479C16.3693 24.8971 16.2414 24.7636 16.1977 24.5953C16.154 24.427 16.2009 24.2481 16.3215 24.1229L31.7025 8.15316C31.8667 7.98265 32.128 7.95068 32.3285 8.07657ZM17.6072 24.2295L24.5182 26.34C24.6462 26.3791 24.7532 26.4679 24.8152 26.5865C24.8772 26.7051 24.8891 26.8436 24.8482 26.971L21.3929 37.7336L34.813 24.6195L27.3293 21.1661C27.0922 21.0567 26.9792 20.7833 27.0699 20.5384L30.7623 10.5709L17.6072 24.2295Z" fill="white"/>
<path fill-rule="evenodd" clip-rule="evenodd" d="M3.20986 23.3208L0.853553 20.9645C0.658291 20.7692 0.341709 20.7692 0.146447 20.9645C-0.0488155 21.1597 -0.0488155 21.4763 0.146447 21.6716L3.32843 24.8536C3.52369 25.0488 3.84027 25.0488 4.03553 24.8536L7.21751 21.6716C7.41278 21.4763 7.41278 21.1597 7.21751 20.9645C7.02225 20.7692 6.70567 20.7692 6.51041 20.9645L4.21409 23.2608C4.85846 10.8581 15.119 1 27.682 1C34.1568 1 40.0192 3.6179 44.2701 7.85416L44.976 7.14584C40.5453 2.73041 34.432 0 27.682 0C14.5463 0 3.82513 10.3374 3.20986 23.3208Z" fill="white"/>
<path fill-rule="evenodd" clip-rule="evenodd" d="M51.0362 24.6792L53.3925 27.0355C53.5878 27.2308 53.9044 27.2308 54.0996 27.0355C54.2949 26.8403 54.2949 26.5237 54.0996 26.3284L50.9177 23.1464C50.7224 22.9512 50.4058 22.9512 50.2106 23.1464L47.0286 26.3284C46.8333 26.5237 46.8333 26.8403 47.0286 27.0355C47.2238 27.2308 47.5404 27.2308 47.7357 27.0355L50.032 24.7392C49.3876 37.1419 39.1271 47 26.5641 47C20.0893 47 14.2269 44.3821 9.97598 40.1458L9.2701 40.8542C13.7008 45.2696 19.8141 48 26.5641 48C39.6998 48 50.421 37.6626 51.0362 24.6792Z" fill="white"/>
</svg>
