<svg width="27" height="57" viewBox="0 0 27 57" fill="none" xmlns="http://www.w3.org/2000/svg">
<path d="M16.7556 10.2017C22.7525 10.2017 22.9288 14.6111 22.9288 16.8158C22.9288 23.43 16.7556 24.3119 16.7556 32.6898C16.7556 37.0508 19.6181 41.6483 22.5492 45.0975C25.1255 48.1291 28.094 52.4975 25.0019 55.001C23.9025 55.8912 22.2554 56.5009 19.8422 56.5009C11.4643 56.5009 6.17294 39.745 3.08632 27.8395C-0.000291586 15.9339 9.25955 10.2017 16.7556 10.2017Z" stroke="white" stroke-linejoin="round"/>
<path d="M22.4291 4.46948C22.4291 6.5093 21.1614 7.93798 19.8425 7.93798C18.5236 7.93798 17.2559 6.5093 17.2559 4.46948C17.2559 2.42966 18.5236 1.00098 19.8425 1.00098C21.1614 1.00098 22.4291 2.42966 22.4291 4.46948Z" stroke="white"/>
<path d="M15.3743 5.35126C15.3743 6.11141 15.1535 6.77872 14.8217 7.24321C14.4892 7.70866 14.075 7.93788 13.6696 7.93788C13.2641 7.93788 12.8499 7.70866 12.5175 7.24321C12.1857 6.77872 11.9648 6.11141 11.9648 5.35126C11.9648 4.59111 12.1857 3.9238 12.5175 3.45932C12.8499 2.99387 13.2641 2.76465 13.6696 2.76465C14.075 2.76465 14.4892 2.99387 14.8217 3.45932C15.1535 3.9238 15.3743 4.59111 15.3743 5.35126Z" stroke="white"/>
<path d="M10.0833 7.55607C10.0833 8.83032 9.23856 9.70174 8.37855 9.70174C7.51855 9.70174 6.67383 8.83032 6.67383 7.55607C6.67383 6.28182 7.51855 5.4104 8.37855 5.4104C9.23856 5.4104 10.0833 6.28182 10.0833 7.55607Z" stroke="white"/>
<path d="M5.64899 10.3239C5.81426 11.3096 5.27149 12.0584 4.64913 12.1627C4.02676 12.2671 3.26946 11.7363 3.10419 10.7505C2.93892 9.7648 3.48169 9.01605 4.10405 8.91171C4.72642 8.80736 5.48372 9.33813 5.64899 10.3239Z" stroke="white"/>
<path d="M2.62396 13.7473C2.75041 14.5015 2.33261 15.0363 1.90323 15.1083C1.47385 15.1802 0.904471 14.811 0.778027 14.0568C0.651582 13.3027 1.06939 12.7679 1.49876 12.6959C1.92814 12.6239 2.49752 12.9932 2.62396 13.7473Z" stroke="white"/>
</svg>
