<svg width="39" height="43" viewBox="0 0 39 43" fill="none" xmlns="http://www.w3.org/2000/svg">
<path fill-rule="evenodd" clip-rule="evenodd" d="M4.35897 0.726496H34.1453C35.9027 0.726496 37.3685 1.97444 37.7051 3.63248H0.799158C1.13572 1.97444 2.60161 0.726496 4.35897 0.726496ZM34.1453 0C36.3052 0 38.0981 1.57089 38.444 3.63248C38.4836 3.86874 38.5043 4.11145 38.5043 4.35897H36.6284L29.9968 41.0075C29.8404 41.8718 29.0879 42.5003 28.2095 42.5003H9.93175C9.05341 42.5003 8.30093 41.8718 8.14454 41.0075L5.12812 24.3378H5.08496V24.0993L1.5129 4.35897H0C0 4.11145 0.0206316 3.86874 0.060269 3.63248C0.406138 1.57089 2.19911 0 4.35897 0H34.1453ZM6.53809 28.0497L5.86641 24.3378L32.2749 24.3378L31.6177 27.9697L6.53809 27.9697V28.0497ZM6.65508 28.6962L8.85942 40.8781C8.95326 41.3967 9.40475 41.7738 9.93175 41.7738H28.2095C28.7365 41.7738 29.188 41.3967 29.2819 40.8781L31.4862 28.6962L6.65508 28.6962ZM33.0637 19.9785L32.4063 23.6113L5.73495 23.6113L5.07757 19.9784L33.0637 19.9785ZM4.94611 19.252L4.35456 15.9828H33.7867L33.1952 19.252L4.94611 19.252ZM33.9182 15.2563H4.2231L2.25125 4.35931H35.89L33.9182 15.2563Z" fill="white"/>
</svg>
