<svg width="101" height="67" viewBox="0 0 101 67" fill="none" xmlns="http://www.w3.org/2000/svg">
<g clip-path="url(#clip0_2087_26291)">
<path d="M0 6.90579C0.0286801 6.77182 0.0573603 6.63786 0.0917765 6.50389C0.338426 5.5103 1.21604 4.85722 2.32309 4.85722C6.32684 4.85722 10.3306 4.85163 14.3343 4.85722C15.3439 4.85722 16.3362 5.02467 17.2597 5.42657C20.099 6.66576 21.7166 8.78132 22.0034 11.8067C22.0837 12.6161 22.0378 13.4422 22.0436 14.2572C22.0493 15.9318 22.0436 17.6064 22.0436 19.2754C22.0436 19.3703 22.0436 19.4707 22.0436 19.5768C22.2615 19.3814 22.4623 19.214 22.6516 19.0353C24.6821 17.0872 26.7758 15.2229 29.2824 13.8441C32.6839 11.9742 36.3091 10.7127 40.1407 9.97027C42.6187 9.49023 45.1139 9.22229 47.6377 9.12182C49.7601 9.03809 51.8766 9.08274 53.9932 9.19997C54.0047 9.19997 54.0104 9.19997 54.0219 9.19997C54.1883 9.21113 54.3948 9.22229 54.389 9.01018C54.389 8.91529 54.2227 8.77016 54.108 8.73666C53.586 8.58595 53.0583 8.46315 52.5306 8.34035C50.5516 7.88263 48.5555 7.5198 46.5364 7.29094C44.0183 7.00626 41.4887 6.92812 38.9648 7.17372C36.4238 7.41933 33.9573 7.97194 31.6514 9.066C31.1983 9.28369 30.7623 9.53488 30.3264 9.78049C30.0683 9.92562 29.8216 9.95353 29.5807 9.76932C29.3398 9.5907 29.2882 9.3451 29.3799 9.07158C30.0281 7.08441 30.9401 5.24237 32.443 3.7185C33.7737 2.36767 35.3913 1.46898 37.2039 0.877294C39.1885 0.235371 41.2478 -0.0772171 43.3586 0.0176758C45.3089 0.106987 47.2247 0.453067 49.1119 0.916368C51.7447 1.56387 54.3661 2.26162 56.9989 2.9147C59.018 3.41708 61.0658 3.76316 63.1651 3.72967C64.1059 3.71292 65.0294 3.60686 65.9242 3.29427C66.2454 3.18264 66.5494 3.1938 66.7961 3.44499C67.0427 3.70176 67.0714 3.9976 66.928 4.32135C66.1192 6.20246 65.1498 7.99985 64.0026 9.70792C61.496 13.4422 58.3584 16.557 54.4062 18.8567C51.3891 20.6094 48.1368 21.7314 44.6779 22.3008C42.1254 22.7194 39.5557 22.8757 36.9744 22.7641C34.984 22.6748 32.9994 22.4906 31.0147 22.3008C28.0951 22.0217 25.8064 23.0655 24.3093 25.9346C23.5751 27.3357 23.1678 28.8428 22.881 30.3834C22.5082 32.3762 22.3705 34.3968 22.2328 36.4175C21.946 40.5593 22.0894 44.7067 22.0608 48.8485C22.0436 51.3771 22.0722 53.9057 22.0493 56.4343C22.0378 57.2493 22.5713 57.707 23.3514 57.6958C25.9498 57.6679 28.5482 57.6847 31.1466 57.6847C32.4717 57.6847 33.4181 58.6057 33.4181 59.8951C33.4181 61.4916 33.4181 63.0936 33.4181 64.69C33.4181 65.946 32.4717 66.867 31.1696 66.867C21.5503 66.867 11.9252 66.867 2.30588 66.867C1.10705 66.867 0.240913 66.1413 0.0573603 64.9859C0.0516243 64.9412 0.0229441 64.9077 0.00573603 64.8631C0.00573603 63.155 0.00573603 61.4413 0.00573603 59.7333C0.0229441 59.6886 0.0516243 59.6495 0.0573603 59.6049C0.269593 58.3713 1.10132 57.6791 2.38619 57.6791C4.45116 57.6791 6.51613 57.6791 8.57536 57.6791C9.33252 57.6791 9.76272 57.2605 9.76272 56.5181C9.76272 42.8423 9.76272 29.1721 9.76272 15.4964C9.76272 15.3792 9.75699 15.2508 9.72831 15.1391C9.5849 14.6033 9.16617 14.3298 8.48359 14.3298C6.38994 14.3298 4.29629 14.3298 2.20837 14.3298C1.2103 14.3298 0.39005 13.7046 0.126193 12.7668C0.0860404 12.6161 0.0458882 12.4654 0.0114721 12.3147C0 10.5117 0 8.70875 0 6.90579Z" fill="white"/>
<path d="M62.1156 49.4003C57.5784 49.4003 53.0412 49.4003 48.4983 49.4058C48.3033 49.4058 48.0853 49.4784 47.9247 49.5845C47.7354 49.7128 47.7469 49.9361 47.81 50.1427C48.5499 52.6545 49.9552 54.7031 52.198 56.1712C53.8098 57.2261 55.5995 57.829 57.4924 58.1695C58.8461 58.4151 60.217 58.51 61.5936 58.4932C64.324 58.4542 66.9912 58.0244 69.5725 57.1759C71.0753 56.6791 72.5437 56.0651 74.0121 55.479C75.0733 55.0548 76.2033 55.6855 76.2205 56.774C76.2263 57.254 76.1402 57.7341 76.0943 58.2141C75.9681 59.5538 75.8247 60.8935 75.7215 62.2387C75.6641 62.9588 75.3658 63.4667 74.689 63.8072C72.0734 65.1302 69.3086 65.9786 66.4119 66.4754C63.7389 66.9331 61.043 67.0838 58.3356 66.961C53.8844 66.7657 49.6799 65.7051 45.9113 63.316C41.4143 60.4692 38.6151 56.4558 37.3819 51.393C36.9861 49.7631 36.8083 48.1053 36.7853 46.4251C36.728 42.6908 37.4679 39.1239 39.2403 35.8082C42.2001 30.2542 46.8348 26.7878 53.1273 25.437C54.8309 25.0686 56.5631 24.9346 58.3012 24.957C61.4789 25.0072 64.5706 25.5151 67.4788 26.8102C72.1021 28.8699 75.2052 32.2805 76.9146 36.9135C77.6431 38.8839 78.0159 40.9213 78.1363 43.0089C78.2281 44.5049 78.1593 46.0009 77.9929 47.4857C77.8725 48.5741 76.8802 49.4003 75.7157 49.4003C71.19 49.4003 66.6528 49.4003 62.1156 49.4003ZM47.506 42.3559C47.6551 42.367 47.7411 42.3782 47.8214 42.3782C54.3892 42.3782 60.9627 42.3782 67.5304 42.3838C67.7656 42.3838 67.8631 42.3168 67.823 42.0823C67.7025 41.3511 67.6566 40.6031 67.4731 39.8886C66.7389 37.053 65.0238 34.9989 62.2189 33.8713C60.3776 33.1345 58.4503 32.9615 56.4886 33.1736C54.3031 33.408 52.393 34.2397 50.8099 35.7357C49.4046 37.0642 48.5155 38.6885 47.9763 40.5027C47.7928 41.0999 47.6666 41.7139 47.506 42.3559Z" fill="white"/>
<path d="M94.3406 45.9508C98.0289 45.9563 101.017 48.8534 101 52.437C100.989 55.9703 98.1207 58.9176 94.3292 58.912C90.4401 58.9064 87.5893 55.8252 87.6696 52.2863C87.7499 48.7361 90.7441 45.934 94.3406 45.9508Z" fill="white"/>
</g>
<defs>
<clipPath id="clip0_2087_26291">
<rect width="101" height="67" fill="white"/>
</clipPath>
</defs>
</svg>
