<svg width="60" height="40" viewBox="0 0 60 40" fill="none" xmlns="http://www.w3.org/2000/svg">
<path d="M0 4.12325C0.0170377 4.04327 0.0340754 3.96329 0.0545207 3.88331C0.201045 3.29013 0.722399 2.90022 1.38005 2.90022C3.75852 2.90022 6.13698 2.89689 8.51545 2.90022C9.11517 2.90022 9.70468 3.0002 10.2533 3.24014C11.94 3.97995 12.901 5.24297 13.0713 7.04919C13.119 7.5324 13.0918 8.02561 13.0952 8.51215C13.0986 9.5119 13.0952 10.5117 13.0952 11.5081C13.0952 11.5647 13.0952 11.6247 13.0952 11.688C13.2247 11.5714 13.3439 11.4714 13.4564 11.3648C14.6627 10.2017 15.9064 9.08868 17.3955 8.26555C19.4162 7.14916 21.5697 6.39602 23.846 5.95279C25.318 5.6662 26.8003 5.50624 28.2996 5.44625C29.5604 5.39627 30.8178 5.42293 32.0752 5.49291C32.082 5.49291 32.0854 5.49291 32.0922 5.49291C32.191 5.49957 32.3137 5.50624 32.3103 5.3796C32.3103 5.32295 32.2115 5.23631 32.1433 5.21631C31.8333 5.12633 31.5198 5.05302 31.2063 4.9797C30.0307 4.70644 28.8448 4.48983 27.6454 4.35319C26.1495 4.18324 24.6468 4.13658 23.1474 4.28321C21.6379 4.42984 20.1726 4.75976 18.8028 5.41293C18.5336 5.5429 18.2746 5.69286 18.0157 5.83949C17.8623 5.92613 17.7158 5.9428 17.5727 5.83282C17.4296 5.72618 17.3989 5.57955 17.4534 5.41626C17.8385 4.22989 18.3803 3.13017 19.2731 2.22039C20.0636 1.41393 21.0245 0.877396 22.1013 0.524151C23.2803 0.140914 24.5036 -0.0457062 25.7576 0.0109463C26.9162 0.0642663 28.0543 0.270881 29.1754 0.547479C30.7394 0.934049 32.2967 1.35061 33.8607 1.74051C35.0602 2.04044 36.2767 2.24705 37.5238 2.22706C38.0827 2.21706 38.6313 2.15374 39.1629 1.96712C39.3537 1.90047 39.5343 1.90714 39.6808 2.0571C39.8274 2.2104 39.8444 2.38702 39.7592 2.5803C39.2787 3.70336 38.7029 4.77642 38.0214 5.79617C36.5323 8.02561 34.6683 9.88515 32.3205 11.2581C30.5282 12.3045 28.5961 12.9744 26.5413 13.3143C25.025 13.5642 23.4984 13.6575 21.965 13.5909C20.7826 13.5376 19.6036 13.4276 18.4246 13.3143C16.6901 13.1477 15.3305 13.7708 14.4412 15.4837C14.005 16.3202 13.7631 17.22 13.5927 18.1397C13.3712 19.3295 13.2894 20.5358 13.2076 21.7422C13.0373 24.2149 13.1224 26.6909 13.1054 29.1637C13.0952 30.6733 13.1122 32.1829 13.0986 33.6925C13.0918 34.1791 13.4087 34.4523 13.8721 34.4457C15.4157 34.429 16.9593 34.439 18.503 34.439C19.2901 34.439 19.8523 34.9889 19.8523 35.7587C19.8523 36.7118 19.8523 37.6682 19.8523 38.6213C19.8523 39.3711 19.2901 39.921 18.5166 39.921C12.8021 39.921 7.08428 39.921 1.36983 39.921C0.657656 39.921 0.143117 39.4877 0.0340754 38.7979C0.0306679 38.7713 0.0136302 38.7513 0.00340754 38.7246C0.00340754 37.7049 0.00340754 36.6818 0.00340754 35.662C0.0136302 35.6354 0.0306679 35.612 0.0340754 35.5854C0.160154 34.8489 0.654248 34.4357 1.41754 34.4357C2.64425 34.4357 3.87097 34.4357 5.09428 34.4357C5.54407 34.4357 5.79964 34.1857 5.79964 33.7425C5.79964 25.5779 5.79964 17.4166 5.79964 9.25197C5.79964 9.18199 5.79623 9.10534 5.77919 9.03869C5.694 8.71877 5.44525 8.55548 5.03975 8.55548C3.796 8.55548 2.55225 8.55548 1.3119 8.55548C0.718991 8.55548 0.231713 8.18224 0.0749659 7.62238C0.0511131 7.5324 0.0272603 7.44242 0.00681508 7.35245C0 6.27605 0 5.19965 0 4.12325Z" fill="#2F673C"/>
<path d="M36.9001 29.4929C34.2048 29.4929 31.5094 29.4929 28.8106 29.4962C28.6948 29.4962 28.5653 29.5395 28.4699 29.6028C28.3574 29.6795 28.3642 29.8128 28.4017 29.9361C28.8413 31.4357 29.6761 32.6587 31.0085 33.5352C31.966 34.165 33.0292 34.5249 34.1536 34.7282C34.9578 34.8749 35.7722 34.9315 36.59 34.9215C38.212 34.8982 39.7965 34.6416 41.3299 34.135C42.2227 33.8385 43.095 33.4719 43.9674 33.122C44.5978 32.8687 45.2691 33.2453 45.2793 33.8951C45.2827 34.1817 45.2316 34.4683 45.2043 34.7549C45.1293 35.5547 45.0442 36.3545 44.9828 37.1576C44.9487 37.5875 44.7715 37.8908 44.3695 38.0941C42.8156 38.8839 41.1732 39.3904 39.4524 39.687C37.8645 39.9603 36.2629 40.0502 34.6546 39.9769C32.0103 39.8603 29.5126 39.2271 27.2738 37.8008C24.6023 36.1012 22.9394 33.7052 22.2068 30.6826C21.9717 29.7095 21.866 28.7197 21.8524 27.7166C21.8183 25.4872 22.2579 23.3577 23.3108 21.3782C25.0691 18.0624 27.8224 15.9929 31.5605 15.1864C32.5725 14.9665 33.6016 14.8865 34.6341 14.8998C36.5219 14.9298 38.3586 15.2331 40.0862 16.0062C42.8327 17.2359 44.6761 19.2721 45.6916 22.0381C46.1243 23.2144 46.3458 24.4308 46.4174 25.6772C46.4719 26.5703 46.431 27.4634 46.3322 28.3498C46.2606 28.9997 45.6711 29.4929 44.9794 29.4929C42.2909 29.4929 39.5955 29.4929 36.9001 29.4929ZM28.2211 25.2873C28.3097 25.2939 28.3608 25.3006 28.4085 25.3006C32.3102 25.3006 36.2152 25.3006 40.1168 25.3039C40.2566 25.3039 40.3145 25.2639 40.2906 25.124C40.2191 24.6874 40.1918 24.2408 40.0828 23.8143C39.6466 22.1214 38.6277 20.895 36.9615 20.2219C35.8676 19.782 34.7227 19.6787 33.5573 19.8053C32.2591 19.9453 31.1243 20.4418 30.1839 21.3349C29.349 22.128 28.8208 23.0978 28.5005 24.1809C28.3915 24.5374 28.3165 24.904 28.2211 25.2873Z" fill="#2F673C"/>
<path d="M56.044 27.4332C58.2351 27.4365 60.0104 29.1661 60.0002 31.3055C59.9934 33.415 58.2896 35.1746 56.0372 35.1712C53.7269 35.1679 52.0334 33.3283 52.0811 31.2155C52.1288 29.0961 53.9075 27.4232 56.044 27.4332Z" fill="#2F673C"/>
</svg>
