<svg width="40" height="50" viewBox="0 0 40 50" fill="none" xmlns="http://www.w3.org/2000/svg">
<path d="M28.6895 10.3443L26.2365 6.09754L23.7836 10.3443L18.7762 7.45079L22.3257 1.30254C22.5562 0.907285 22.8859 0.579138 23.2823 0.350654C23.6787 0.12217 24.1279 0.00128772 24.5854 0H27.8877C28.3452 0.00128772 28.7944 0.12217 29.1908 0.350654C29.5872 0.579138 29.9169 0.907285 30.1473 1.30254L33.7 7.45079L28.6895 10.3443ZM26.2365 4.83303L28.9209 9.47591L32.8285 7.21944L29.5959 1.61946C29.4223 1.32007 29.1732 1.07148 28.8734 0.89852C28.5737 0.725562 28.2338 0.634296 27.8877 0.63384H24.5854C24.2388 0.63406 23.8984 0.725198 23.5981 0.898152C23.2978 1.07111 23.0481 1.31982 22.874 1.61946L19.6446 7.21944L23.5586 9.47591L26.2365 4.83303Z" fill="white"/>
<path d="M26.2356 5.78083H26.204C26.1623 5.77687 26.1218 5.76469 26.0848 5.74498C26.0478 5.72527 26.0152 5.69843 25.9886 5.66602C25.9621 5.6336 25.9423 5.59624 25.9303 5.55612C25.9183 5.51599 25.9144 5.47387 25.9187 5.43222C25.9187 5.30862 26.2768 2.3581 29.7661 1.16331C29.8059 1.14798 29.8483 1.14083 29.8909 1.14227C29.9335 1.14372 29.9753 1.15373 30.0139 1.17171C30.0525 1.18969 30.0871 1.21527 30.1156 1.24693C30.1441 1.27858 30.166 1.31566 30.1798 1.35594C30.1937 1.39622 30.1993 1.43889 30.1963 1.48138C30.1933 1.52387 30.1817 1.56532 30.1623 1.60325C30.1429 1.64118 30.1161 1.67482 30.0834 1.70214C30.0508 1.72947 30.0129 1.74992 29.9721 1.76229C26.86 2.83031 26.5526 5.47025 26.5494 5.49877C26.5408 5.5761 26.5041 5.64758 26.4463 5.6996C26.3884 5.75161 26.3134 5.78052 26.2356 5.78083Z" fill="white"/>
<path d="M32.9551 11.4093L27.1523 10.3635L28.6641 9.62507L33.1009 7.06436L34.6855 5.99951L32.9551 11.4093ZM29.1521 10.0909L32.521 10.6899L33.5288 7.55242L33.421 7.62531L29.1521 10.0909Z" fill="white"/>
<path d="M35.6364 24.3551L28.5342 24.3361V18.5523H33.4369L30.9966 14.2993L36.0135 11.4248L39.5598 17.5921C39.7878 17.9889 39.9078 18.4385 39.9078 18.8962C39.9078 19.3538 39.7878 19.8035 39.5598 20.2003L37.9023 23.0526C37.6721 23.4494 37.3415 23.7787 36.9438 24.0073C36.546 24.236 36.0951 24.3559 35.6364 24.3551ZM29.168 23.7023L35.6332 23.7213C35.9789 23.7208 36.3185 23.6299 36.6181 23.4576C36.9178 23.2852 37.1671 23.0374 37.3414 22.7388L38.9989 19.8866C39.1716 19.5868 39.2625 19.2469 39.2625 18.9009C39.2625 18.555 39.1716 18.2151 38.9989 17.9153L35.7916 12.3027L31.8745 14.5465L34.543 19.202H29.1775L29.168 23.7023Z" fill="white"/>
<path d="M35.6303 24.3553H35.57C35.529 24.3473 35.4899 24.3313 35.455 24.3082C35.4202 24.285 35.3902 24.2552 35.367 24.2205C35.3437 24.1857 35.3275 24.1467 35.3194 24.1056C35.3113 24.0646 35.3114 24.0223 35.3197 23.9813C35.9535 20.7551 33.8301 19.161 33.8111 19.1451C33.7729 19.1228 33.7398 19.0927 33.714 19.0567C33.6881 19.0208 33.6701 18.9799 33.661 18.9366C33.652 18.8932 33.6521 18.8485 33.6613 18.8052C33.6706 18.762 33.6888 18.7211 33.7148 18.6853C33.7409 18.6495 33.7741 18.6195 33.8124 18.5974C33.8507 18.5752 33.8932 18.5613 33.9372 18.5565C33.9812 18.5518 34.0257 18.5563 34.0679 18.5698C34.11 18.5833 34.1489 18.6055 34.1819 18.6349C34.2833 18.7078 36.6602 20.4857 35.9408 24.1049C35.9256 24.1759 35.8864 24.2395 35.8299 24.2851C35.7733 24.3307 35.7029 24.3555 35.6303 24.3553Z" fill="white"/>
<path d="M29.2884 25.9238L25.4854 21.7151L29.2884 17.2148L29.1648 18.8945V24.0096L29.2884 25.9238ZM26.3347 21.7024L28.5531 24.1491V24.0191V19.091L26.3347 21.7024Z" fill="white"/>
<path d="M21.2097 14.3854L16.2119 11.4761L14.1982 14.9654L14.8127 15.1444L16.4401 12.3603L20.3414 14.6199L19.5702 15.7328L20.2011 16.1165L21.2097 14.3854Z" fill="white"/>
<path d="M21.99 15.7104L20.5987 14.7596L16.1777 12.1894L14.46 11.3337L20.0061 10.1611L21.99 15.7104ZM16.371 11.5904L16.4882 11.6475L20.7445 14.129L19.5941 10.8964L16.371 11.5904Z" fill="white"/>
<path fill-rule="evenodd" clip-rule="evenodd" d="M23.2127 22.4834C23.333 22.5515 23.4074 22.6791 23.4074 22.8173V46.4306C23.4074 46.549 23.3527 46.6608 23.2592 46.7335C22.6257 47.2262 21.1692 47.9141 19.2061 48.4782C17.2288 49.0464 14.6989 49.5004 11.8957 49.5004C6.2817 49.5004 2.78329 47.6797 1.3292 46.7543C1.21852 46.6839 1.15149 46.5618 1.15149 46.4306V22.8406C1.15149 22.7076 1.22035 22.5841 1.33348 22.5142C1.4466 22.4443 1.58787 22.4379 1.70682 22.4974C3.19292 23.2404 6.74149 24.5585 11.8957 24.5585C14.4732 24.5585 16.9075 24.223 18.8542 23.7929C20.8147 23.3596 22.2419 22.8389 22.8262 22.4883C22.9448 22.4172 23.0924 22.4153 23.2127 22.4834ZM19.0198 24.5422C17.027 24.9826 14.5368 25.3259 11.8957 25.3259C7.15704 25.3259 3.7198 24.2396 1.91893 23.4443V46.2179C3.38046 47.1139 6.68188 48.7329 11.8957 48.7329C14.6182 48.7329 17.0766 48.2916 18.9941 47.7406C20.7632 47.2322 22.0399 46.6399 22.6399 46.2345V23.4397C21.8264 23.7984 20.5599 24.2019 19.0198 24.5422Z" fill="white"/>
<path fill-rule="evenodd" clip-rule="evenodd" d="M23.1683 18.7402C23.7247 18.3703 23.7908 18.1167 23.7908 18.035C23.7908 17.9534 23.7247 17.6998 23.1683 17.3298C22.6412 16.9793 21.8279 16.6339 20.754 16.3318C18.6168 15.7308 15.6202 15.349 12.2791 15.349C8.93797 15.349 5.94139 15.7308 3.80425 16.3318C2.73036 16.6339 1.91701 16.9793 1.38989 17.3298C0.833548 17.6998 0.767444 17.9534 0.767444 18.035C0.767444 18.1167 0.833548 18.3703 1.38989 18.7402C1.91701 19.0907 2.73036 19.4362 3.80425 19.7383C5.94139 20.3393 8.93797 20.7211 12.2791 20.7211C15.6202 20.7211 18.6168 20.3393 20.754 19.7383C21.8279 19.4362 22.6412 19.0907 23.1683 18.7402ZM12.2791 21.4885C19.0607 21.4885 24.5582 19.9424 24.5582 18.035C24.5582 16.1277 19.0607 14.5815 12.2791 14.5815C5.49755 14.5815 0 16.1277 0 18.035C0 19.9424 5.49755 21.4885 12.2791 21.4885Z" fill="white"/>
<path fill-rule="evenodd" clip-rule="evenodd" d="M24.5586 22.4932L22.8116 23.3667L22.4684 22.6803L23.7911 22.0189L23.7911 17.6514L24.5586 17.6514L24.5586 22.4932Z" fill="white"/>
<path fill-rule="evenodd" clip-rule="evenodd" d="M2.11642e-07 22.4932L1.74701 23.3667L2.09022 22.6803L0.767445 22.0189L0.767445 17.6514L6.17534e-07 17.6514L2.11642e-07 22.4932Z" fill="white"/>
</svg>
