<svg width="872" height="214" viewBox="0 0 872 214" fill="none" xmlns="http://www.w3.org/2000/svg">
<path d="M798 212.243C799.929 212.243 801.841 212.168 803.732 212.021L803.655 211.024C807.466 210.728 811.194 210.135 814.815 209.269L815.048 210.242C818.801 209.344 822.441 208.156 825.944 206.703L825.561 205.78C829.063 204.327 832.426 202.606 835.624 200.643L836.148 201.495C839.414 199.489 842.511 197.233 845.411 194.754L844.761 193.994C847.628 191.543 850.3 188.871 852.751 186.004L853.511 186.654C855.99 183.754 858.246 180.657 860.252 177.391L859.399 176.867C861.363 173.67 863.084 170.306 864.537 166.804L865.46 167.187C866.913 163.684 868.101 160.044 868.998 156.291L868.026 156.059C868.892 152.437 869.485 148.709 869.781 144.898L870.778 144.975C870.925 143.084 871 141.172 871 139.243V133.535H870V122.118H871V110.701H870V99.2848H871V87.8682H870V76.4515H871V65.0348H870V53.6182H871V42.2015H870V30.7848H871V19.3682H870V7.95151H871V2.24316V1.24316H870H863.97V2.24316H851.909V1.24316H839.849V2.24316H827.788V1.24316H815.727V2.24316H803.667V1.24316H791.606V2.24316H779.546V1.24316H767.485V2.24316H755.424V1.24316H743.364V2.24316H731.303V1.24316H719.242V2.24316H707.182V1.24316H695.121V2.24316H683.061V1.24316H671V2.24316H658.939V1.24316H646.879V2.24316H634.818V1.24316H622.758V2.24316H610.697V1.24316H598.636V2.24316H586.576V1.24316H574.515V2.24316H562.455V1.24316H550.394V2.24316H538.333V1.24316H526.273V2.24316H514.212V1.24316H502.152V2.24316H490.091V1.24316H478.03V2.24316H465.97V1.24316H453.909V2.24316H441.848V1.24316H429.788V2.24316H417.727V1.24316H405.667V2.24316H393.606V1.24316H381.545V2.24316H369.485V1.24316H357.424V2.24316H345.364V1.24316H333.303V2.24316H321.242V1.24316H309.182V2.24316H297.121V1.24316H285.061V2.24316H273V1.24316H260.939V2.24316H248.879V1.24316H236.818V2.24316H224.758V1.24316H212.697V2.24316H200.636V1.24316H188.576V2.24316H176.515V1.24316H164.455V2.24316H152.394V1.24316H140.333V2.24316H128.273V1.24316H116.212V2.24316H104.151V1.24316H92.0909V2.24316H80.0303V1.24316H74C72.0711 1.24316 70.1595 1.318 68.2679 1.46495L68.3454 2.46195C64.5342 2.75803 60.8063 3.35085 57.1847 4.21733L56.952 3.24478C53.1991 4.14266 49.5589 5.33035 46.0562 6.78284L46.4393 7.70656C42.9367 9.15902 39.5736 10.88 36.3757 12.8438L35.8524 11.9916C32.5858 13.9976 29.4892 16.2535 26.5894 18.7325L27.2392 19.4926C24.3723 21.9434 21.7003 24.6155 19.2494 27.4824L18.4893 26.8326C16.0103 29.7324 13.7545 32.8289 11.7485 36.0956L12.6006 36.6189C10.6368 39.8168 8.91585 43.1799 7.4634 46.6824L6.53967 46.2994C5.08718 49.802 3.89949 53.4423 3.00161 57.1952L3.97416 57.4278C3.10768 61.0494 2.51486 64.7774 2.21878 68.5885L1.22179 68.5111C1.07483 70.4026 1 72.3143 1 74.2432V79.9515H2V91.3682H1V102.785H2V114.202H1V125.618H2V137.035H1V148.452H2V159.868H1V171.285H2V182.701H1V194.118H2V205.535H1V211.243V212.243H2H8.0303V211.243H20.0909V212.243H32.1515V211.243H44.2121V212.243H56.2727V211.243H68.3333V212.243H80.3939V211.243H92.4546V212.243H104.515V211.243H116.576V212.243H128.636V211.243H140.697V212.243H152.758V211.243H164.818V212.243H176.879V211.243H188.939V212.243H201V211.243H213.061V212.243H225.121V211.243H237.182V212.243H249.242V211.243H261.303V212.243H273.364V211.243H285.424V212.243H297.485V211.243H309.545V212.243H321.606V211.243H333.667V212.243H345.727V211.243H357.788V212.243H369.849V211.243H381.909V212.243H393.97V211.243H406.03V212.243H418.091V211.243H430.152V212.243H442.212V211.243H454.273V212.243H466.333V211.243H478.394V212.243H490.455V211.243H502.515V212.243H514.576V211.243H526.636V212.243H538.697V211.243H550.758V212.243H562.818V211.243H574.879V212.243H586.939V211.243H599V212.243H611.061V211.243H623.121V212.243H635.182V211.243H647.242V212.243H659.303V211.243H671.364V212.243H683.424V211.243H695.485V212.243H707.546V211.243H719.606V212.243H731.667V211.243H743.727V212.243H755.788V211.243H767.849V212.243H779.909V211.243H791.97V212.243H798Z" fill="#39763A" stroke="#39763A" stroke-width="2" stroke-dasharray="12 12"/>
</svg>
