<svg width="330" height="362" viewBox="0 0 330 362" fill="none" xmlns="http://www.w3.org/2000/svg">
<path d="M296 361C298.203 361 300.356 360.784 302.439 360.372L302.245 359.391C306.443 358.56 310.346 356.909 313.78 354.61L314.336 355.441C317.934 353.032 321.032 349.934 323.441 346.336L322.61 345.78C324.909 342.346 326.56 338.443 327.391 334.245L328.372 334.439C328.784 332.356 329 330.203 329 328V322.179H328V310.536H329V298.893H328V287.25H329V275.607H328V263.964H329V252.321H328V240.679H329V229.036H328V217.393H329V205.75H328V194.107H329V182.464H328V170.821H329V159.179H328V147.536H329V135.893H328V124.25H329V112.607H328V100.964H329V89.3215H328V77.6786H329V66.0357H328V54.3929H329V42.75H328V31.1072H329V19.4643H328V7.82146H329V2V1H328H321.875V2H309.625V1H297.375V2H285.125V1H272.875V2H260.625V1H248.375V2H236.125V1H223.875V2H211.625V1H199.375V2H187.125V1H174.875V2H162.625V1H150.375V2H138.125V1H125.875V2H113.625V1H101.375V2H89.125V1H76.875V2H64.625V1H52.375V2H40.125V1H34C31.7974 1 29.6442 1.21594 27.5607 1.6281L27.7548 2.60909C23.5566 3.43962 19.6536 5.09135 16.2203 7.3899L15.664 6.55894C12.0657 8.96791 8.96791 12.0657 6.55894 15.664L7.3899 16.2203C5.09135 19.6536 3.43963 23.5566 2.60909 27.7548L1.6281 27.5607C1.21594 29.6442 1 31.7974 1 34V39.8214H2V51.4643H1V63.1071H2V74.75H1V86.3928H2V98.0357H1V109.679H2V121.321H1V132.964H2V144.607H1V156.25H2V167.893H1V179.536H2V191.179H1V202.821H2V214.464H1V226.107H2V237.75H1V249.393H2V261.036H1V272.679H2V284.321H1V295.964H2V307.607H1V319.25H2V330.893H1V342.536H2V354.179H1V360V361H2H8.125V360H20.375V361H32.625V360H44.875V361H57.125V360H69.375V361H81.625V360H93.875V361H106.125V360H118.375V361H130.625V360H142.875V361H155.125V360H167.375V361H179.625V360H191.875V361H204.125V360H216.375V361H228.625V360H240.875V361H253.125V360H265.375V361H277.625V360H289.875V361H296Z" fill="#39763A" stroke="#39763A" stroke-width="2" stroke-dasharray="12 12"/>
</svg>
