<svg width="83" height="83" viewBox="0 0 83 83" fill="none" xmlns="http://www.w3.org/2000/svg">
<circle cx="41.5" cy="41.5" r="40.5" stroke="#008A46" stroke-width="2"/>
<path fill-rule="evenodd" clip-rule="evenodd" d="M44.8105 35.0801L41.5344 29.4082L37.7495 35.9608L30.0234 31.4962L35.5002 22.0098C35.8557 21.3999 36.3645 20.8936 36.9761 20.541C37.5876 20.1885 38.2808 20.002 38.9867 20H44.082C44.7879 20.002 45.4811 20.1885 46.0927 20.541C46.6703 20.874 47.1563 21.3442 47.508 21.9093C47.5125 21.9139 47.517 21.9187 47.5213 21.9235C47.5653 21.9723 47.599 22.0295 47.6204 22.0917C47.6224 22.0975 47.6243 22.1034 47.626 22.1092L52.5434 30.6192L54.5707 29.2568L51.9007 37.604L42.9473 35.9903L44.8105 35.0801ZM45.603 21.3864C45.8948 21.5548 46.1556 21.7697 46.3756 22.0214C41.8832 23.8522 41.1348 27.6365 41.0539 28.2902L37.4024 34.6209L31.3633 31.1393L36.3461 22.4988C36.6148 22.0364 37 21.6527 37.4634 21.3858C37.9267 21.119 38.452 20.9783 38.9867 20.978H44.082C44.616 20.9787 45.1404 21.1195 45.603 21.3864ZM42.0419 28.3351C42.1738 27.6057 42.9699 24.3888 46.9239 22.8559L51.7054 31.1393L45.6761 34.6209L42.0419 28.3351ZM51.2308 36.4939L46.0328 35.5697L52.6196 31.7654L52.7858 31.6529L51.2308 36.4939ZM56.0385 57.5794L46.0859 57.5528L46.2439 60.0001L40.376 53.5062L46.2439 46.5625L46.0921 48.6259H52.6449L48.8796 42.0636L56.6204 37.6285L62.0922 47.1443C62.444 47.7566 62.6291 48.4504 62.6291 49.1565C62.6291 49.8626 62.444 50.5564 62.0922 51.1687L59.5348 55.5696C59.1796 56.1819 58.6695 56.69 58.0558 57.0428C57.4421 57.3955 56.7464 57.5806 56.0385 57.5794ZM45.0801 57.2294V49.4918L41.6865 53.4867L45.0801 57.2294ZM56.6172 56.5444C57.2739 51.823 54.4781 49.2993 53.8937 48.8298L50.2341 42.445L56.2781 38.983L61.2267 47.6431C61.4932 48.1056 61.6334 48.63 61.6334 49.1638C61.6334 49.6976 61.4932 50.2221 61.2267 50.6846L58.6693 55.0855C58.4004 55.5462 58.0157 55.9286 57.5533 56.1945C57.2614 56.3624 56.945 56.4802 56.6172 56.5444ZM55.6198 56.6002L46.0581 56.5721L46.0728 49.6284H53.3296C53.8751 50.0943 56.2718 52.4002 55.6198 56.6002ZM26.5419 57.6527L37.4904 57.6869L37.5344 48.7676L29.9697 48.7334L33.2697 43.0696L34.9818 44.2395L31.9207 35.6772L23.3633 37.4865L25.5587 38.5802L20.5789 47.1309C20.5623 47.1544 20.5478 47.1793 20.5357 47.2052C20.1847 47.816 20 48.5081 20 49.2126C20 49.918 20.1852 50.611 20.537 51.2224L23.0651 55.6233C23.4162 56.2364 23.9221 56.7465 24.5323 57.1026C25.1424 57.4588 25.8354 57.6484 26.5419 57.6527ZM33.05 41.7712L26.3543 37.8735L31.285 36.8117L33.05 41.7712ZM20.9909 49.1833C20.9909 48.8511 21.0452 48.5226 21.1505 48.2103C22.6847 49.4458 24.5943 50.1367 26.5766 50.1613C27.468 50.1709 28.3534 50.0198 29.1906 49.7157L36.5516 49.7505L36.5173 56.7138L26.5467 56.6747C26.0113 56.6656 25.4876 56.5158 25.0284 56.2403C24.5692 55.9647 24.1906 55.5732 23.9306 55.105L21.3976 50.704C21.1312 50.2415 20.9909 49.7171 20.9909 49.1833ZM21.6063 47.3054C24.933 50.0121 28.1051 49.0742 28.7919 48.8202L32.4391 42.5574L26.4196 39.0709L21.6063 47.3054Z" fill="#008A46"/>
</svg>
