<svg xmlns="http://www.w3.org/2000/svg" width="50" height="50" viewBox="0 0 50 50" fill="none">
<ellipse cx="24.4034" cy="24.5279" rx="24.4034" ry="24.5279" fill="white"/>
<path d="M43.2832 24.5281C43.2832 35.0146 34.8265 43.508 24.4041 43.508C13.9816 43.508 5.52492 35.0146 5.52492 24.5281C5.52492 14.0415 13.9816 5.54812 24.4041 5.54812C34.8265 5.54812 43.2832 14.0415 43.2832 24.5281Z" stroke="white" stroke-width="1.75199"/>
<path d="M43.3065 24.5281C43.3065 35.0146 34.8498 43.508 24.4274 43.508C14.0049 43.508 5.54824 35.0146 5.54824 24.5281C5.54824 14.0415 14.0049 5.54812 24.4274 5.54812C34.8498 5.54812 43.3065 14.0415 43.3065 24.5281Z" stroke="#BEB9B9" stroke-width="1.75199"/>
<path d="M22.8523 15.1841C23.2301 15.249 23.612 15.2976 23.9816 15.3828C26.8173 16.0439 29.0029 18.4528 29.3848 21.3323C29.6489 23.3357 29.1532 25.1323 27.9264 26.7302C27.8898 26.7789 27.8532 26.8275 27.7842 26.9249C27.8451 26.9654 27.9142 26.9979 27.967 27.0506C29.4254 28.5065 30.8839 29.9625 32.3342 31.4225C32.4723 31.5644 32.582 31.7347 32.7039 31.8929C32.7039 32.0024 32.7039 32.1079 32.7039 32.2174C32.6064 32.4445 32.448 32.6067 32.2164 32.704C32.1067 32.704 32.0011 32.704 31.8914 32.704C31.737 32.5864 31.5705 32.485 31.4364 32.3471C29.9698 30.8871 28.5114 29.4231 27.0489 27.9631C27.0001 27.9144 26.9635 27.8617 26.9067 27.7968C26.7685 27.8982 26.6548 27.9874 26.537 28.0726C22.316 31.1507 16.3685 28.8391 15.3244 23.7169C14.5444 19.8804 17.0957 16.0682 20.9429 15.3179C21.2272 15.2611 21.5116 15.2287 21.8001 15.1841C22.1494 15.1841 22.5029 15.1841 22.8523 15.1841ZM22.3444 16.4819C19.135 16.4737 16.5066 19.0774 16.4903 22.2894C16.4741 25.5095 19.0822 28.1456 22.2998 28.1618C25.5173 28.178 28.1498 25.5663 28.1661 22.3421C28.1782 19.1261 25.562 16.49 22.3444 16.4819Z" fill="#BEB9B9"/>
</svg>